STARTFONT 2.1
COMMENT
COMMENT Converted from OpenType font "MFLanSong_Noncommercial-Regular.ttf" by "otf2bdf 3.0".
COMMENT
FONT -FreeType-MF LanSong(Noncommercial)-Medium-R-Normal--33-240-100-100-P-221-ISO10646-1
SIZE 24 100 100
FONTBOUNDINGBOX 25 39 0 -10
STARTPROPERTIES 19
FOUNDRY "FreeType"
FAMILY_NAME "MF LanSong(Noncommercial)"
WEIGHT_NAME "Medium"
SLANT "R"
SETWIDTH_NAME "Normal"
ADD_STYLE_NAME ""
PIXEL_SIZE 33
POINT_SIZE 240
RESOLUTION_X 100
RESOLUTION_Y 100
SPACING "P"
AVERAGE_WIDTH 221
CHARSET_REGISTRY "ISO10646"
CHARSET_ENCODING "1"
FONT_ASCENT 28
FONT_DESCENT 10
COPYRIGHT "© 2020SN. All rights reserved."
_OTF_FONTFILE "MFLanSong_Noncommercial-Regular.ttf"
_OTF_PSNAME "MF LanSong(Noncommercial)-Regular"
ENDPROPERTIES
CHARS 7256
STARTCHAR 0000
ENCODING 0
SWIDTH 240 0
DWIDTH 8 0
BBX 0 0 0 0
BITMAP
ENDCHAR
STARTCHAR 0001
ENCODING 1
SWIDTH 240 0
DWIDTH 8 0
BBX 0 0 0 0
BITMAP
ENDCHAR
STARTCHAR 0002
ENCODING 2
SWIDTH 240 0
DWIDTH 8 0
BBX 0 0 0 0
BITMAP
ENDCHAR
STARTCHAR 0003
ENCODING 3
SWIDTH 240 0
DWIDTH 8 0
BBX 0 0 0 0
BITMAP
ENDCHAR
STARTCHAR 0004
ENCODING 4
SWIDTH 240 0
DWIDTH 8 0
BBX 0 0 0 0
BITMAP
ENDCHAR
STARTCHAR 0005
ENCODING 5
SWIDTH 240 0
DWIDTH 8 0
BBX 0 0 0 0
BITMAP
ENDCHAR
STARTCHAR 0006
ENCODING 6
SWIDTH 240 0
DWIDTH 8 0
BBX 0 0 0 0
BITMAP
ENDCHAR
STARTCHAR 0007
ENCODING 7
SWIDTH 240 0
DWIDTH 8 0
BBX 0 0 0 0
BITMAP
ENDCHAR
STARTCHAR 000A
ENCODING 10
SWIDTH 240 0
DWIDTH 8 0
BBX 0 0 0 0
BITMAP
ENDCHAR
STARTCHAR 000B
ENCODING 11
SWIDTH 240 0
DWIDTH 8 0
BBX 0 0 0 0
BITMAP
ENDCHAR
STARTCHAR 000C
ENCODING 12
SWIDTH 240 0
DWIDTH 8 0
BBX 0 0 0 0
BITMAP
ENDCHAR
STARTCHAR 000E
ENCODING 14
SWIDTH 240 0
DWIDTH 8 0
BBX 0 0 0 0
BITMAP
ENDCHAR
STARTCHAR 000F
ENCODING 15
SWIDTH 240 0
DWIDTH 8 0
BBX 0 0 0 0
BITMAP
ENDCHAR
STARTCHAR 0010
ENCODING 16
SWIDTH 240 0
DWIDTH 8 0
BBX 0 0 0 0
BITMAP
ENDCHAR
STARTCHAR 0011
ENCODING 17
SWIDTH 240 0
DWIDTH 8 0
BBX 0 0 0 0
BITMAP
ENDCHAR
STARTCHAR 0012
ENCODING 18
SWIDTH 240 0
DWIDTH 8 0
BBX 0 0 0 0
BITMAP
ENDCHAR
STARTCHAR 0013
ENCODING 19
SWIDTH 240 0
DWIDTH 8 0
BBX 0 0 0 0
BITMAP
ENDCHAR
STARTCHAR 0014
ENCODING 20
SWIDTH 240 0
DWIDTH 8 0
BBX 0 0 0 0
BITMAP
ENDCHAR
STARTCHAR 0015
ENCODING 21
SWIDTH 240 0
DWIDTH 8 0
BBX 0 0 0 0
BITMAP
ENDCHAR
STARTCHAR 0016
ENCODING 22
SWIDTH 240 0
DWIDTH 8 0
BBX 0 0 0 0
BITMAP
ENDCHAR
STARTCHAR 0017
ENCODING 23
SWIDTH 240 0
DWIDTH 8 0
BBX 0 0 0 0
BITMAP
ENDCHAR
STARTCHAR 0018
ENCODING 24
SWIDTH 240 0
DWIDTH 8 0
BBX 0 0 0 0
BITMAP
ENDCHAR
STARTCHAR 0019
ENCODING 25
SWIDTH 240 0
DWIDTH 8 0
BBX 0 0 0 0
BITMAP
ENDCHAR
STARTCHAR 001A
ENCODING 26
SWIDTH 240 0
DWIDTH 8 0
BBX 0 0 0 0
BITMAP
ENDCHAR
STARTCHAR 001B
ENCODING 27
SWIDTH 240 0
DWIDTH 8 0
BBX 0 0 0 0
BITMAP
ENDCHAR
STARTCHAR 001C
ENCODING 28
SWIDTH 240 0
DWIDTH 8 0
BBX 0 0 0 0
BITMAP
ENDCHAR
STARTCHAR 001D
ENCODING 29
SWIDTH 240 0
DWIDTH 8 0
BBX 0 0 0 0
BITMAP
ENDCHAR
STARTCHAR 001E
ENCODING 30
SWIDTH 240 0
DWIDTH 8 0
BBX 0 0 0 0
BITMAP
ENDCHAR
STARTCHAR 001F
ENCODING 31
SWIDTH 240 0
DWIDTH 8 0
BBX 0 0 0 0
BITMAP
ENDCHAR
STARTCHAR 0020
ENCODING 32
SWIDTH 240 0
DWIDTH 8 0
BBX 0 0 0 0
BITMAP
ENDCHAR
STARTCHAR 0021
ENCODING 33
SWIDTH 120 0
DWIDTH 4 0
BBX 2 28 1 -1
BITMAP
40
40
40
40
40
40
40
40
40
40
40
40
40
40
40
40
40
40
40
40
40
40
00
00
00
00
C0
C0
ENDCHAR
STARTCHAR 0022
ENCODING 34
SWIDTH 240 0
DWIDTH 8 0
BBX 6 6 1 22
BITMAP
24
6C
48
48
90
90
ENDCHAR
STARTCHAR 0023
ENCODING 35
SWIDTH 570 0
DWIDTH 19 0
BBX 17 26 1 0
BITMAP
010200
030600
030600
030400
020400
7FFF80
060C00
060C00
060800
041800
041800
0C1800
0C1000
081000
083000
FFFF00
182000
182000
106000
106000
106000
304000
304000
20C000
20C000
208000
ENDCHAR
STARTCHAR 0024
ENCODING 36
SWIDTH 420 0
DWIDTH 14 0
BBX 12 28 1 -2
BITMAP
0200
0200
0F00
3FC0
6260
6230
4230
4210
4200
6200
3200
1A00
0F00
0380
02E0
0220
0230
0210
8210
8210
8210
C230
6220
3AC0
1F80
0200
0200
0200
ENDCHAR
STARTCHAR 0025
ENCODING 37
SWIDTH 600 0
DWIDTH 20 0
BBX 18 26 1 0
BITMAP
000600
380600
6C0C00
C60C00
860800
821800
821000
823000
C63000
4C2000
786000
004000
00C000
008000
018000
010F00
011980
0330C0
022040
062040
042040
0C30C0
081180
080F00
180000
100000
ENDCHAR
STARTCHAR 0026
ENCODING 38
SWIDTH 540 0
DWIDTH 18 0
BBX 15 26 2 -1
BITMAP
1F00
7B80
C0C0
C060
8020
8020
8060
C040
60C0
3380
1E00
0C00
1E00
3308
6188
C088
C0C8
8068
8028
8018
8018
C018
C03C
6064
39C6
0F04
ENDCHAR
STARTCHAR 0027
ENCODING 39
SWIDTH 120 0
DWIDTH 4 0
BBX 3 6 0 22
BITMAP
20
60
40
40
80
80
ENDCHAR
STARTCHAR 0028
ENCODING 40
SWIDTH 210 0
DWIDTH 7 0
BBX 4 27 2 0
BITMAP
30
30
20
60
40
40
C0
C0
C0
80
80
80
80
80
80
80
80
80
80
80
C0
40
40
60
60
20
30
ENDCHAR
STARTCHAR 0029
ENCODING 41
SWIDTH 210 0
DWIDTH 7 0
BBX 4 28 1 0
BITMAP
80
C0
C0
40
60
60
20
20
30
30
10
10
10
10
10
10
10
30
30
30
20
20
60
60
40
C0
80
80
ENDCHAR
STARTCHAR 002A
ENCODING 42
SWIDTH 240 0
DWIDTH 8 0
BBX 6 7 1 20
BITMAP
10
10
D4
7C
30
68
4C
ENDCHAR
STARTCHAR 002B
ENCODING 43
SWIDTH 480 0
DWIDTH 16 0
BBX 16 18 0 1
BITMAP
0100
0100
0100
0100
0100
0100
0100
FFFF
0100
0100
0100
0100
0100
0100
0100
0100
0100
0100
ENDCHAR
STARTCHAR 002C
ENCODING 44
SWIDTH 90 0
DWIDTH 3 0
BBX 3 6 0 -4
BITMAP
60
60
40
40
80
80
ENDCHAR
STARTCHAR 002D
ENCODING 45
SWIDTH 540 0
DWIDTH 18 0
BBX 16 1 1 11
BITMAP
FFFF
ENDCHAR
STARTCHAR 002E
ENCODING 46
SWIDTH 120 0
DWIDTH 4 0
BBX 2 2 1 0
BITMAP
C0
C0
ENDCHAR
STARTCHAR 002F
ENCODING 47
SWIDTH 210 0
DWIDTH 7 0
BBX 7 29 0 -2
BITMAP
02
02
06
06
04
04
04
0C
0C
08
08
08
18
18
18
10
10
30
30
30
20
20
20
60
60
40
40
40
C0
ENDCHAR
STARTCHAR 0030
ENCODING 48
SWIDTH 480 0
DWIDTH 16 0
BBX 13 26 2 -1
BITMAP
0F80
19C0
3060
6030
4030
4010
C018
8018
8018
8008
8008
8008
8008
8008
8008
8008
8008
8008
C018
C010
C010
4030
6020
3060
19C0
0F80
ENDCHAR
STARTCHAR 0031
ENCODING 49
SWIDTH 270 0
DWIDTH 9 0
BBX 8 26 1 -1
BITMAP
78
08
08
08
08
08
08
08
08
08
08
08
08
08
08
08
08
08
08
08
08
08
08
08
08
FF
ENDCHAR
STARTCHAR 0032
ENCODING 50
SWIDTH 450 0
DWIDTH 15 0
BBX 13 26 1 -1
BITMAP
1F80
39C0
6060
4030
C030
C010
8010
8010
0030
0030
0020
0060
00C0
0180
0300
0600
0C00
1800
3000
2000
6000
4000
C000
C000
8000
FFF8
ENDCHAR
STARTCHAR 0033
ENCODING 51
SWIDTH 480 0
DWIDTH 16 0
BBX 13 26 2 -1
BITMAP
1F00
39C0
6060
C020
8030
8010
8010
0010
0030
0060
00C0
0F80
00C0
0060
0030
0010
0018
0008
8008
8008
8018
C018
4030
6020
3DC0
0F80
ENDCHAR
STARTCHAR 0034
ENCODING 52
SWIDTH 420 0
DWIDTH 14 0
BBX 14 26 0 0
BITMAP
0420
0420
0C20
0820
0820
1820
1020
1020
3020
3020
2020
2020
6020
4020
4020
C020
C020
FFFC
0020
0020
0020
0020
0020
0020
0020
0020
ENDCHAR
STARTCHAR 0035
ENCODING 53
SWIDTH 450 0
DWIDTH 15 0
BBX 13 26 1 -1
BITMAP
4000
4000
7FF8
4000
4000
4000
4000
4000
4000
4000
7F80
01E0
0030
0010
0018
0018
0008
0008
8008
8008
8018
C010
4030
6060
39C0
0F80
ENDCHAR
STARTCHAR 0036
ENCODING 54
SWIDTH 510 0
DWIDTH 17 0
BBX 13 26 2 -1
BITMAP
0F80
1CE0
3030
6010
6018
C008
C008
C000
8000
8000
8F80
98E0
B030
E010
C018
C018
C008
C008
C008
C008
C018
4018
6010
3030
1CE0
0F80
ENDCHAR
STARTCHAR 0037
ENCODING 55
SWIDTH 450 0
DWIDTH 15 0
BBX 13 25 1 0
BITMAP
FFF8
0018
0018
0010
0030
0030
0020
0060
0060
0040
0040
00C0
0080
0080
0180
0100
0100
0300
0300
0200
0600
0600
0400
0C00
0800
ENDCHAR
STARTCHAR 0038
ENCODING 56
SWIDTH 510 0
DWIDTH 17 0
BBX 14 26 2 -1
BITMAP
0F80
1CE0
3030
6010
4018
4008
4008
4008
6018
2030
3860
1FC0
0FC0
3860
6010
4008
C00C
8004
8004
8004
800C
C00C
6018
7030
3CE0
0FC0
ENDCHAR
STARTCHAR 0039
ENCODING 57
SWIDTH 480 0
DWIDTH 16 0
BBX 13 26 2 -1
BITMAP
0F80
39E0
6020
4010
C010
8018
8008
8008
8008
C018
4018
6038
30E8
1F88
0008
0008
0008
0008
8018
8010
C010
C030
4030
6060
39C0
0F80
ENDCHAR
STARTCHAR 003A
ENCODING 58
SWIDTH 120 0
DWIDTH 4 0
BBX 2 18 1 1
BITMAP
C0
C0
00
00
00
00
00
00
00
00
00
00
00
00
00
00
C0
C0
ENDCHAR
STARTCHAR 003B
ENCODING 59
SWIDTH 90 0
DWIDTH 3 0
BBX 2 19 0 0
BITMAP
C0
C0
00
00
00
00
00
00
00
00
00
00
00
00
40
40
40
80
80
ENDCHAR
STARTCHAR 003C
ENCODING 60
SWIDTH 450 0
DWIDTH 15 0
BBX 13 17 0 1
BITMAP
0008
0018
0070
01C0
0380
0E00
1800
7000
C000
6000
3800
0C00
0700
0180
00E0
0030
0018
ENDCHAR
STARTCHAR 003D
ENCODING 61
SWIDTH 540 0
DWIDTH 18 0
BBX 16 8 1 8
BITMAP
FFFF
0000
0000
0000
0000
0000
0000
FFFF
ENDCHAR
STARTCHAR 003E
ENCODING 62
SWIDTH 450 0
DWIDTH 15 0
BBX 13 17 1 1
BITMAP
8000
C000
7000
1C00
0E00
0380
00C0
0070
0018
0030
00E0
0180
0700
0C00
3800
6000
C000
ENDCHAR
STARTCHAR 003F
ENCODING 63
SWIDTH 420 0
DWIDTH 14 0
BBX 12 28 1 0
BITMAP
1F80
31C0
6060
C020
C030
8010
8010
8010
0010
0030
0020
0060
00C0
0080
0100
0300
0200
0200
0200
0200
0200
0200
0200
0000
0000
0000
0600
0600
ENDCHAR
STARTCHAR 0040
ENCODING 64
SWIDTH 720 0
DWIDTH 24 0
BBX 20 26 2 -1
BITMAP
01F800
079E00
1C0300
100180
3000C0
61F040
433C60
C20C20
C60C30
840C30
840410
840410
840410
840410
840C30
860C30
820C20
C31E60
41F3C0
400000
600040
300040
1800C0
0C0380
07FE00
01F800
ENDCHAR
STARTCHAR 0041
ENCODING 65
SWIDTH 570 0
DWIDTH 19 0
BBX 17 26 1 -1
BITMAP
008000
01C000
014000
014000
036000
036000
022000
062000
063000
041000
041000
0C1800
0FF800
080800
180C00
100C00
100400
300400
300600
200200
200200
600300
400100
400100
C00180
800180
ENDCHAR
STARTCHAR 0042
ENCODING 66
SWIDTH 480 0
DWIDTH 16 0
BBX 13 26 2 -1
BITMAP
FF80
81E0
8030
8018
8018
8008
8008
8008
8018
8030
80E0
FF80
81E0
8030
8010
8018
8018
8008
8008
8008
8018
8018
8018
8030
83E0
FF80
ENDCHAR
STARTCHAR 0043
ENCODING 67
SWIDTH 480 0
DWIDTH 16 0
BBX 13 26 2 -1
BITMAP
0F80
1DE0
3070
6030
4018
4018
C008
C000
8000
8000
8000
8000
8000
8000
8000
8000
8008
8008
C008
C018
4018
6010
6030
3020
1CE0
0F80
ENDCHAR
STARTCHAR 0044
ENCODING 68
SWIDTH 480 0
DWIDTH 16 0
BBX 13 26 2 -1
BITMAP
FE00
8780
80C0
8060
8020
8030
8010
8010
8018
8018
8008
8008
8008
8008
8008
8008
8018
8018
8010
8010
8030
8020
8060
80C0
8F80
FE00
ENDCHAR
STARTCHAR 0045
ENCODING 69
SWIDTH 450 0
DWIDTH 15 0
BBX 13 26 2 -1
BITMAP
FFF0
8000
8000
8000
8000
8000
8000
8000
8000
8000
8000
FFE0
8000
8000
8000
8000
8000
8000
8000
8000
8000
8000
8000
8000
8000
FFF8
ENDCHAR
STARTCHAR 0046
ENCODING 70
SWIDTH 450 0
DWIDTH 15 0
BBX 12 26 2 -1
BITMAP
FFF0
8000
8000
8000
8000
8000
8000
8000
8000
8000
8000
FFE0
8000
8000
8000
8000
8000
8000
8000
8000
8000
8000
8000
8000
8000
8000
ENDCHAR
STARTCHAR 0047
ENCODING 71
SWIDTH 510 0
DWIDTH 17 0
BBX 14 26 2 -1
BITMAP
07C0
1CE0
3030
2018
6008
400C
C00C
C000
8000
8000
8000
8000
8000
80FC
8004
8004
8004
8004
C00C
C00C
4008
6008
6018
3030
1CF0
07C0
ENDCHAR
STARTCHAR 0048
ENCODING 72
SWIDTH 510 0
DWIDTH 17 0
BBX 13 26 2 -1
BITMAP
8008
8008
8008
8008
8008
8008
8008
8008
8008
8008
8008
FFF8
8008
8008
8008
8008
8008
8008
8008
8008
8008
8008
8008
8008
8008
8008
ENDCHAR
STARTCHAR 0049
ENCODING 73
SWIDTH 360 0
DWIDTH 12 0
BBX 10 26 1 -1
BITMAP
7FC0
0400
0400
0400
0400
0400
0400
0400
0400
0400
0400
0400
0400
0400
0400
0400
0400
0400
0400
0400
0400
0400
0400
0400
0400
FFC0
ENDCHAR
STARTCHAR 004A
ENCODING 74
SWIDTH 330 0
DWIDTH 11 0
BBX 9 26 1 -1
BITMAP
0080
0080
0080
0080
0080
0080
0080
0080
0080
0080
0080
0080
0080
0080
0080
0080
0080
0080
0080
0080
8080
8080
8180
C100
6700
3E00
ENDCHAR
STARTCHAR 004B
ENCODING 75
SWIDTH 510 0
DWIDTH 17 0
BBX 13 26 2 -1
BITMAP
8010
8030
8030
8060
80C0
8180
8100
8300
8600
8C00
9C00
9600
B200
E300
C100
8180
8080
80C0
8040
8060
8020
8030
8010
8018
8018
8008
ENDCHAR
STARTCHAR 004C
ENCODING 76
SWIDTH 390 0
DWIDTH 13 0
BBX 10 26 2 -1
BITMAP
8000
8000
8000
8000
8000
8000
8000
8000
8000
8000
8000
8000
8000
8000
8000
8000
8000
8000
8000
8000
8000
8000
8000
8000
8000
FFC0
ENDCHAR
STARTCHAR 004D
ENCODING 77
SWIDTH 570 0
DWIDTH 19 0
BBX 15 26 2 -1
BITMAP
8002
C006
C006
C006
E00E
E00A
A00A
A01A
B012
9012
9032
9832
8822
8862
8C62
8442
84C2
86C2
8282
8282
8382
8302
8002
8002
8002
8002
ENDCHAR
STARTCHAR 004E
ENCODING 78
SWIDTH 510 0
DWIDTH 17 0
BBX 13 26 2 -1
BITMAP
8008
C008
C008
E008
A008
B008
9008
9808
9808
8C08
8C08
8608
8608
8208
8308
8108
8188
8088
80C8
8048
8068
8028
8038
8018
8018
8018
ENDCHAR
STARTCHAR 004F
ENCODING 79
SWIDTH 510 0
DWIDTH 17 0
BBX 14 26 2 -1
BITMAP
0780
1CE0
3030
2010
6018
4008
C008
C00C
800C
800C
8004
8004
8004
8004
8004
8004
800C
800C
C00C
C008
4008
6018
2010
3030
1CE0
0780
ENDCHAR
STARTCHAR 0050
ENCODING 80
SWIDTH 480 0
DWIDTH 16 0
BBX 13 26 2 -1
BITMAP
FFC0
80E0
8030
8018
8008
8008
8008
8008
8018
8018
8070
FFE0
8000
8000
8000
8000
8000
8000
8000
8000
8000
8000
8000
8000
8000
8000
ENDCHAR
STARTCHAR 0051
ENCODING 81
SWIDTH 570 0
DWIDTH 19 0
BBX 16 27 2 -3
BITMAP
0780
1CE0
3020
2010
6018
4008
C008
C008
C00C
800C
8004
8004
8004
8004
8004
8004
800C
800C
C00C
C068
4078
6038
2038
303C
1CE6
0787
0003
ENDCHAR
STARTCHAR 0052
ENCODING 82
SWIDTH 510 0
DWIDTH 17 0
BBX 14 26 2 -1
BITMAP
FFC0
81E0
8030
8018
8008
8008
8008
8008
8018
8010
8070
FFC0
8600
8300
8300
8180
8080
80C0
8040
8060
8030
8030
8018
8018
800C
8000
ENDCHAR
STARTCHAR 0053
ENCODING 83
SWIDTH 510 0
DWIDTH 17 0
BBX 14 26 2 -1
BITMAP
0FC0
1CE0
3030
6018
4008
400C
4000
4000
6000
3000
1C00
0700
01C0
0070
0018
0008
000C
0004
8004
8004
8004
C00C
C008
6018
3CF0
0FC0
ENDCHAR
STARTCHAR 0054
ENCODING 84
SWIDTH 510 0
DWIDTH 17 0
BBX 15 26 1 -1
BITMAP
FFFE
0100
0100
0100
0100
0100
0100
0100
0100
0100
0100
0100
0100
0100
0100
0100
0100
0100
0100
0100
0100
0100
0100
0100
0100
0100
ENDCHAR
STARTCHAR 0055
ENCODING 85
SWIDTH 540 0
DWIDTH 18 0
BBX 14 26 2 -1
BITMAP
8004
8004
8004
8004
8004
8004
8004
8004
8004
8004
8004
8004
8004
8004
8004
8004
8004
8004
8004
8004
800C
C00C
4008
6010
3CF0
0FC0
ENDCHAR
STARTCHAR 0056
ENCODING 86
SWIDTH 510 0
DWIDTH 17 0
BBX 15 26 1 -1
BITMAP
8002
C006
C004
4004
400C
600C
6008
2018
2018
3010
1010
1030
1030
1820
0820
0860
0C60
0C40
04C0
04C0
0680
0680
0380
0380
0300
0300
ENDCHAR
STARTCHAR 0057
ENCODING 87
SWIDTH 720 0
DWIDTH 24 0
BBX 21 26 1 0
BITMAP
800008
802008
C07018
C07018
405010
405010
405010
60D830
60D830
608830
208820
218C20
218C20
318460
310460
110440
130640
130640
1A02C0
1A02C0
1A02C0
0E0380
0E0380
0C0180
0C0180
040100
ENDCHAR
STARTCHAR 0058
ENCODING 88
SWIDTH 570 0
DWIDTH 19 0
BBX 15 26 2 0
BITMAP
4004
600C
2008
3018
1010
1830
0820
0C60
0440
06C0
0280
0380
0380
0380
06C0
06C0
0C60
0C60
1830
1010
3018
2008
600C
4004
C006
8002
ENDCHAR
STARTCHAR 0059
ENCODING 89
SWIDTH 480 0
DWIDTH 16 0
BBX 14 26 1 -1
BITMAP
C004
600C
6008
3018
1010
1830
0860
0C60
04C0
0680
0380
0100
0100
0100
0100
0100
0100
0100
0100
0100
0100
0100
0100
0100
0100
0100
ENDCHAR
STARTCHAR 005A
ENCODING 90
SWIDTH 510 0
DWIDTH 17 0
BBX 15 26 1 -1
BITMAP
7FFC
000C
0008
0018
0010
0030
0020
0060
0040
00C0
0080
0180
0300
0300
0600
0600
0C00
0C00
1800
1800
3000
3000
6000
6000
C000
FFFE
ENDCHAR
STARTCHAR 005B
ENCODING 91
SWIDTH 240 0
DWIDTH 8 0
BBX 6 29 1 -5
BITMAP
FC
C0
C0
C0
C0
C0
C0
C0
C0
C0
C0
C0
C0
C0
C0
C0
C0
C0
C0
C0
C0
C0
C0
C0
C0
C0
C0
C0
FC
ENDCHAR
STARTCHAR 005C
ENCODING 92
SWIDTH 210 0
DWIDTH 7 0
BBX 7 30 0 -5
BITMAP
C0
40
40
40
60
60
20
20
20
30
30
30
10
10
10
18
18
08
08
08
0C
0C
0C
04
04
04
06
06
02
02
ENDCHAR
STARTCHAR 005D
ENCODING 93
SWIDTH 210 0
DWIDTH 7 0
BBX 6 29 0 -5
BITMAP
FC
04
04
04
04
04
04
04
04
04
04
04
04
04
04
04
04
04
04
04
04
04
04
04
04
04
04
04
FC
ENDCHAR
STARTCHAR 005E
ENCODING 94
SWIDTH 330 0
DWIDTH 11 0
BBX 9 9 1 18
BITMAP
1C00
1C00
1600
3600
3200
6300
6100
C180
C080
ENDCHAR
STARTCHAR 005F
ENCODING 95
SWIDTH 540 0
DWIDTH 18 0
BBX 16 1 1 -3
BITMAP
FFFF
ENDCHAR
STARTCHAR 0060
ENCODING 96
SWIDTH 150 0
DWIDTH 5 0
BBX 4 5 0 23
BITMAP
80
40
60
30
10
ENDCHAR
STARTCHAR 0061
ENCODING 97
SWIDTH 420 0
DWIDTH 14 0
BBX 11 18 1 -1
BITMAP
1E20
33A0
60A0
4060
C060
8060
8020
8020
8020
8020
8020
8060
8060
C060
4060
60A0
33A0
1E20
ENDCHAR
STARTCHAR 0062
ENCODING 98
SWIDTH 420 0
DWIDTH 14 0
BBX 11 26 2 -1
BITMAP
8000
8000
8000
8000
8000
8000
8000
8000
9F00
B380
E0C0
C040
C040
8060
8020
8020
8020
8020
8020
8060
8060
C060
C040
E0C0
B380
9F00
ENDCHAR
STARTCHAR 0063
ENCODING 99
SWIDTH 420 0
DWIDTH 14 0
BBX 12 18 1 -1
BITMAP
1F00
3B80
60C0
4060
C060
C020
8000
8000
8000
8000
8000
8030
C070
C060
4060
60C0
3BC0
0F00
ENDCHAR
STARTCHAR 0064
ENCODING 100
SWIDTH 420 0
DWIDTH 14 0
BBX 11 26 1 -1
BITMAP
0020
0020
0020
0020
0020
0020
0020
0020
1E20
3BA0
60A0
40E0
C060
C060
8020
8020
8020
8020
8020
8060
8060
C060
4060
60E0
33A0
1F20
ENDCHAR
STARTCHAR 0065
ENCODING 101
SWIDTH 390 0
DWIDTH 13 0
BBX 11 18 1 -1
BITMAP
1F00
3B80
60C0
4040
C040
8060
8020
8020
FFE0
8000
8000
8020
8060
C060
4040
60C0
3B80
1F00
ENDCHAR
STARTCHAR 0066
ENCODING 102
SWIDTH 450 0
DWIDTH 15 0
BBX 13 26 1 -1
BITMAP
01E0
0730
0418
0408
0400
0400
0400
0400
0400
FFF8
0400
0400
0400
0400
0400
0400
0400
0400
0400
0400
0400
0400
0400
0400
0400
0400
ENDCHAR
STARTCHAR 0067
ENCODING 103
SWIDTH 450 0
DWIDTH 15 0
BBX 11 27 2 -10
BITMAP
1F20
33A0
60E0
40E0
C060
8060
8060
8020
8020
8020
8020
8060
8060
C060
4060
60A0
33A0
1E20
0020
0020
0020
8020
8060
C060
6040
79C0
1F00
ENDCHAR
STARTCHAR 0068
ENCODING 104
SWIDTH 420 0
DWIDTH 14 0
BBX 11 26 2 -1
BITMAP
8000
8000
8000
8000
8000
8000
8000
8000
9F00
BBC0
C040
C060
8020
8020
8020
8020
8020
8020
8020
8020
8020
8020
8020
8020
8020
8020
ENDCHAR
STARTCHAR 0069
ENCODING 105
SWIDTH 120 0
DWIDTH 4 0
BBX 2 26 1 -1
BITMAP
C0
C0
00
00
00
00
00
00
40
40
40
40
40
40
40
40
40
40
40
40
40
40
40
40
40
40
ENDCHAR
STARTCHAR 006A
ENCODING 106
SWIDTH 300 0
DWIDTH 10 0
BBX 8 35 1 -10
BITMAP
03
03
00
00
00
00
00
00
02
02
02
02
02
02
02
02
02
02
02
02
02
02
02
02
02
02
02
02
02
82
82
82
C6
64
38
ENDCHAR
STARTCHAR 006B
ENCODING 107
SWIDTH 420 0
DWIDTH 14 0
BBX 11 26 2 -1
BITMAP
8000
8000
8000
8000
8000
8000
8000
8000
8060
80C0
8380
8700
8C00
9E00
B600
E200
C300
8100
8180
8080
80C0
80C0
8040
8060
8020
8020
ENDCHAR
STARTCHAR 006C
ENCODING 108
SWIDTH 90 0
DWIDTH 3 0
BBX 1 26 1 -1
BITMAP
80
80
80
80
80
80
80
80
80
80
80
80
80
80
80
80
80
80
80
80
80
80
80
80
80
80
ENDCHAR
STARTCHAR 006D
ENCODING 109
SWIDTH 630 0
DWIDTH 21 0
BBX 17 18 2 -1
BITMAP
BE3E00
F77700
C1C100
808180
808080
808080
808080
808080
808080
808080
808080
808080
808080
808080
808080
808080
808080
808080
ENDCHAR
STARTCHAR 006E
ENCODING 110
SWIDTH 420 0
DWIDTH 14 0
BBX 11 18 2 -1
BITMAP
9F00
BB80
E0C0
C060
8020
8020
8020
8020
8020
8020
8020
8020
8020
8020
8020
8020
8020
8020
ENDCHAR
STARTCHAR 006F
ENCODING 111
SWIDTH 420 0
DWIDTH 14 0
BBX 12 18 1 -1
BITMAP
0F00
39C0
6040
6060
C020
C030
8030
8010
8010
8010
8010
8030
C030
C020
4060
6040
39C0
0F00
ENDCHAR
STARTCHAR 0070
ENCODING 112
SWIDTH 390 0
DWIDTH 13 0
BBX 11 27 1 -10
BITMAP
9F00
BB80
E0C0
C040
C060
C060
8020
8020
8020
8020
8020
8060
C060
C060
C040
E0C0
BB80
9F00
8000
8000
8000
8000
8000
8000
8000
8000
8000
ENDCHAR
STARTCHAR 0071
ENCODING 113
SWIDTH 390 0
DWIDTH 13 0
BBX 11 27 1 -10
BITMAP
1E20
33A0
60E0
4060
C060
8060
8020
8020
8020
8020
8020
8060
C060
C060
4060
60E0
3BA0
1F20
0020
0020
0020
0020
0020
0020
0020
0020
0020
ENDCHAR
STARTCHAR 0072
ENCODING 114
SWIDTH 360 0
DWIDTH 12 0
BBX 9 18 2 -1
BITMAP
8180
8300
8600
9C00
B800
E000
C000
8000
8000
8000
8000
8000
8000
8000
8000
8000
8000
8000
ENDCHAR
STARTCHAR 0073
ENCODING 115
SWIDTH 390 0
DWIDTH 13 0
BBX 11 18 1 -1
BITMAP
1F00
3BC0
6060
4060
4000
4000
6000
3800
0F00
0380
00C0
0060
0020
C020
C060
E060
79C0
1F00
ENDCHAR
STARTCHAR 0074
ENCODING 116
SWIDTH 360 0
DWIDTH 12 0
BBX 10 24 1 -1
BITMAP
0800
0800
0800
0800
0800
0800
0800
FFC0
0800
0800
0800
0800
0800
0800
0800
0800
0800
0800
0840
0840
08C0
08C0
0D80
0700
ENDCHAR
STARTCHAR 0075
ENCODING 117
SWIDTH 420 0
DWIDTH 14 0
BBX 10 18 2 -1
BITMAP
8040
8040
8040
8040
8040
8040
8040
8040
8040
8040
8040
8040
8040
8040
C0C0
C0C0
7340
3E40
ENDCHAR
STARTCHAR 0076
ENCODING 118
SWIDTH 390 0
DWIDTH 13 0
BBX 11 18 1 0
BITMAP
8020
8060
C060
4040
4040
60C0
6080
2080
2180
3180
1100
1100
1B00
1A00
0A00
0E00
0E00
0C00
ENDCHAR
STARTCHAR 0077
ENCODING 119
SWIDTH 600 0
DWIDTH 20 0
BBX 18 17 1 0
BITMAP
80C0C0
C0C0C0
C1C0C0
41E080
416080
612180
632180
233100
223100
321300
361300
361A00
141A00
140A00
1C0E00
1C0C00
080400
ENDCHAR
STARTCHAR 0078
ENCODING 120
SWIDTH 450 0
DWIDTH 15 0
BBX 13 18 1 -2
BITMAP
4010
6030
3060
1040
18C0
0D80
0500
0700
0700
0500
0D80
18C0
1040
3060
6030
4010
C018
8008
ENDCHAR
STARTCHAR 0079
ENCODING 121
SWIDTH 420 0
DWIDTH 14 0
BBX 11 27 1 -10
BITMAP
8020
8020
8020
8020
8020
8020
8020
8020
8020
8020
8020
8020
8060
8060
C060
40E0
71A0
1F20
0020
0020
0020
8020
8060
8060
C0C0
7380
1F00
ENDCHAR
STARTCHAR 007A
ENCODING 122
SWIDTH 420 0
DWIDTH 14 0
BBX 12 18 1 -1
BITMAP
FFE0
0060
00C0
00C0
0180
0100
0300
0600
0400
0C00
0800
1800
3000
2000
6000
4000
8000
FFF0
ENDCHAR
STARTCHAR 007B
ENCODING 123
SWIDTH 240 0
DWIDTH 8 0
BBX 7 29 1 -5
BITMAP
1E
30
20
20
20
20
20
20
20
20
20
20
20
60
C0
60
20
20
20
20
20
20
20
20
20
20
20
30
1C
ENDCHAR
STARTCHAR 007C
ENCODING 124
SWIDTH 90 0
DWIDTH 3 0
BBX 1 31 1 -3
BITMAP
80
80
80
80
80
80
80
80
80
80
80
80
80
80
80
80
80
80
80
80
80
80
80
80
80
80
80
80
80
80
80
ENDCHAR
STARTCHAR 007D
ENCODING 125
SWIDTH 240 0
DWIDTH 8 0
BBX 7 29 1 -5
BITMAP
E0
30
10
10
10
10
10
10
10
10
10
10
10
18
0E
18
10
10
10
10
10
10
10
10
10
10
10
30
E0
ENDCHAR
STARTCHAR 007E
ENCODING 126
SWIDTH 420 0
DWIDTH 14 0
BBX 12 3 1 10
BITMAP
7C10
EFF0
83E0
ENDCHAR
STARTCHAR 00A0
ENCODING 160
SWIDTH 240 0
DWIDTH 8 0
BBX 0 0 0 0
BITMAP
ENDCHAR
STARTCHAR 00A5
ENCODING 165
SWIDTH 450 0
DWIDTH 15 0
BBX 13 26 1 -1
BITMAP
4030
6030
2060
3040
10C0
1880
0D80
0D00
0700
FFF8
0200
0200
0200
0200
0200
0200
FFF8
0200
0200
0200
0200
0200
0200
0200
0200
0200
ENDCHAR
STARTCHAR 00A9
ENCODING 169
SWIDTH 660 0
DWIDTH 22 0
BBX 19 26 2 -1
BITMAP
03F000
073C00
1C0600
300300
300180
61F080
4738C0
C40C40
CC0C60
880460
880060
880020
880020
880020
880420
8C0460
8C0C60
C40860
C71840
43F0C0
600080
200180
300300
180600
0F1C00
03F000
ENDCHAR
STARTCHAR 00B0
ENCODING 176
SWIDTH 210 0
DWIDTH 7 0
BBX 5 5 1 22
BITMAP
70
D8
88
98
F0
ENDCHAR
STARTCHAR 00B7
ENCODING 183
SWIDTH 720 0
DWIDTH 24 0
BBX 1 1 12 9
BITMAP
80
ENDCHAR
STARTCHAR 2014
ENCODING 8212
SWIDTH 750 0
DWIDTH 25 0
BBX 17 1 4 9
BITMAP
FFFF80
ENDCHAR
STARTCHAR 2018
ENCODING 8216
SWIDTH 750 0
DWIDTH 25 0
BBX 3 5 20 22
BITMAP
20
40
40
C0
80
ENDCHAR
STARTCHAR 2019
ENCODING 8217
SWIDTH 750 0
DWIDTH 25 0
BBX 3 6 1 22
BITMAP
20
60
40
40
80
80
ENDCHAR
STARTCHAR 201C
ENCODING 8220
SWIDTH 720 0
DWIDTH 24 0
BBX 6 6 17 21
BITMAP
20
44
48
48
D8
90
ENDCHAR
STARTCHAR 201D
ENCODING 8221
SWIDTH 720 0
DWIDTH 24 0
BBX 6 6 1 22
BITMAP
24
6C
48
48
90
90
ENDCHAR
STARTCHAR 2022
ENCODING 8226
SWIDTH 720 0
DWIDTH 24 0
BBX 1 1 12 9
BITMAP
80
ENDCHAR
STARTCHAR 2026
ENCODING 8230
SWIDTH 720 0
DWIDTH 24 0
BBX 21 1 1 9
BITMAP
C02018
ENDCHAR
STARTCHAR 205D
ENCODING 8285
SWIDTH 720 0
DWIDTH 24 0
BBX 1 19 8 7
BITMAP
80
80
00
00
00
00
00
00
00
80
00
00
00
00
00
00
00
80
80
ENDCHAR
STARTCHAR 20AC
ENCODING 8364
SWIDTH 540 0
DWIDTH 18 0
BBX 16 25 1 -1
BITMAP
0070
01D8
0104
0306
0202
0602
0600
0400
0400
FFFE
0400
0400
0400
0400
0400
FFFE
0400
0400
0600
0202
0203
0306
0104
018C
00F8
ENDCHAR
STARTCHAR 2122
ENCODING 8482
SWIDTH 450 0
DWIDTH 15 0
BBX 12 7 1 21
BITMAP
FB30
2330
2370
22D0
22D0
22D0
2210
ENDCHAR
STARTCHAR 22EF
ENCODING 8943
SWIDTH 720 0
DWIDTH 24 0
BBX 21 1 1 9
BITMAP
C02018
ENDCHAR
STARTCHAR 2F00
ENCODING 12032
SWIDTH 750 0
DWIDTH 25 0
BBX 21 1 2 15
BITMAP
FFFFF8
ENDCHAR
STARTCHAR 2F01
ENCODING 12033
SWIDTH 750 0
DWIDTH 25 0
BBX 1 31 12 -3
BITMAP
80
80
80
80
80
80
80
80
80
80
80
80
80
80
80
80
80
80
80
80
80
80
80
80
80
80
80
80
80
80
80
ENDCHAR
STARTCHAR 2F02
ENCODING 12034
SWIDTH 720 0
DWIDTH 24 0
BBX 6 8 9 10
BITMAP
80
40
20
30
18
18
0C
0C
ENDCHAR
STARTCHAR 2F03
ENCODING 12035
SWIDTH 750 0
DWIDTH 25 0
BBX 8 30 5 -3
BITMAP
01
01
01
01
01
01
01
01
01
01
01
01
01
01
01
03
03
03
02
02
06
06
04
0C
08
18
10
20
40
80
ENDCHAR
STARTCHAR 2F04
ENCODING 12036
SWIDTH 720 0
DWIDTH 24 0
BBX 19 28 4 -4
BITMAP
FFFE00
000600
000400
000C00
001800
001800
003000
002000
006000
00C000
00C000
018000
030000
030000
060000
060000
0C0000
180000
180000
300000
300000
600000
C00000
C00000
800000
800040
C00040
7FFFE0
ENDCHAR
STARTCHAR 2F06
ENCODING 12038
SWIDTH 720 0
DWIDTH 24 0
BBX 22 24 1 0
BITMAP
3FFFE0
000000
000000
000000
000000
000000
000000
000000
000000
000000
000000
000000
000000
000000
000000
000000
000000
000000
000000
000000
000000
000000
000000
FFFFFC
ENDCHAR
STARTCHAR 2F07
ENCODING 12039
SWIDTH 750 0
DWIDTH 25 0
BBX 23 7 1 22
BITMAP
001000
001000
001000
001000
001000
FFFFFE
FFFFFE
ENDCHAR
STARTCHAR 2F08
ENCODING 12040
SWIDTH 720 0
DWIDTH 24 0
BBX 19 31 2 -3
BITMAP
004000
004000
004000
004000
004000
004000
00C000
00C000
00C000
00C000
00A000
00A000
00A000
00A000
019000
011000
011800
010800
030800
020C00
020400
060600
040200
040300
080100
080180
1000C0
2000C0
400060
800060
000020
ENDCHAR
STARTCHAR 2F09
ENCODING 12041
SWIDTH 720 0
DWIDTH 24 0
BBX 22 28 1 -2
BITMAP
020400
020400
020400
020400
020400
020400
020400
020400
020400
020400
020400
020400
060400
060400
060400
040400
040400
040400
0C0400
0C0400
080400
080400
100400
100400
200400
200408
400408
8007FC
ENDCHAR
STARTCHAR 2F0A
ENCODING 12042
SWIDTH 720 0
DWIDTH 24 0
BBX 22 29 1 -2
BITMAP
002000
002000
002000
002000
001000
001000
001000
001800
003800
003800
002400
006400
006600
004200
00C200
00C300
018100
018180
010180
030080
0200C0
040040
0C0060
080020
100030
200010
200018
40000C
800008
ENDCHAR
STARTCHAR 2F0B
ENCODING 12043
SWIDTH 720 0
DWIDTH 24 0
BBX 22 28 1 -2
BITMAP
008400
008400
008400
008200
008200
018200
018200
018200
018100
010100
010100
010180
030180
030080
020080
0200C0
060040
040040
040060
080060
080020
080030
100030
100018
200018
40000C
40000C
80000C
ENDCHAR
STARTCHAR 2F0C
ENCODING 12044
SWIDTH 720 0
DWIDTH 24 0
BBX 18 28 3 -4
BITMAP
FFFFC0
800040
800040
800040
800040
800040
800040
800040
800040
800040
800040
800040
800040
800040
800040
800040
800040
800040
800040
800040
800040
800040
800040
800040
800040
800040
800040
800040
ENDCHAR
STARTCHAR 2F0D
ENCODING 12045
SWIDTH 750 0
DWIDTH 25 0
BBX 19 4 3 22
BITMAP
FFFFE0
800020
800020
800020
ENDCHAR
STARTCHAR 2F0E
ENCODING 12046
SWIDTH 720 0
DWIDTH 24 0
BBX 5 23 1 2
BITMAP
80
40
60
20
30
18
18
00
00
00
00
00
00
08
08
08
10
10
30
20
60
C0
80
ENDCHAR
STARTCHAR 2F0F
ENCODING 12047
SWIDTH 750 0
DWIDTH 25 0
BBX 22 28 1 -4
BITMAP
07FE00
040200
040200
040200
040200
040200
040200
040200
040200
040200
040200
0C0200
0C0200
0C0200
0C0200
0C0200
080200
080200
080200
080200
180200
100200
100200
200200
200200
400204
800204
8003FC
ENDCHAR
STARTCHAR 2F10
ENCODING 12048
SWIDTH 720 0
DWIDTH 24 0
BBX 18 26 3 -1
BITMAP
800040
800040
800040
800040
800040
800040
800040
800040
800040
800040
800040
800040
800040
800040
800040
800040
800040
800040
800040
800040
800040
800040
800040
800040
FFFFC0
FFFFC0
ENDCHAR
STARTCHAR 2F11
ENCODING 12049
SWIDTH 720 0
DWIDTH 24 0
BBX 20 28 1 -4
BITMAP
3FFFF0
004010
004010
004010
004010
004010
004010
00C010
00C010
00C010
00C010
008010
008010
008010
018010
018010
010010
010010
030010
020010
060010
040010
0C0010
080010
100010
200010
400010
800010
ENDCHAR
STARTCHAR 2F12
ENCODING 12050
SWIDTH 720 0
DWIDTH 24 0
BBX 19 29 1 -2
BITMAP
008000
008000
008000
008000
008000
7FFFE0
008020
008020
008020
008020
008020
018020
018020
018020
018020
010020
010020
030020
030020
020020
060020
060020
0C0020
0C0020
180020
100020
200020
400020
800020
ENDCHAR
STARTCHAR 2F13
ENCODING 12051
SWIDTH 720 0
DWIDTH 24 0
BBX 18 30 2 -3
BITMAP
0C0000
0C0000
080000
080000
1FFFC0
1FFFC0
100040
300040
200040
200040
400040
800040
000040
000040
000040
000040
000040
000040
000040
000040
000040
000040
000040
000040
000040
000040
000040
000040
000040
000040
ENDCHAR
STARTCHAR 2F14
ENCODING 12052
SWIDTH 750 0
DWIDTH 25 0
BBX 17 30 6 -2
BITMAP
800000
C00000
C00000
C00000
C00000
C00000
C00400
C00C00
C01800
C03000
C06000
C0C000
C18000
C30000
CC0000
D80000
E00000
C00000
C00000
C00000
C00000
C00000
C00000
C00000
C00000
C00000
C00100
C00100
FFFF80
7FFF80
ENDCHAR
STARTCHAR 2F15
ENCODING 12053
SWIDTH 720 0
DWIDTH 24 0
BBX 20 27 3 -3
BITMAP
FFFFE0
C00000
C00000
C00000
C00000
C00000
C00000
C00000
C00000
C00000
C00000
C00000
C00000
C00000
C00000
C00000
C00000
C00000
C00000
C00000
C00000
C00000
C00000
C00000
C00000
C00000
FFFFF0
ENDCHAR
STARTCHAR 2F17
ENCODING 12055
SWIDTH 750 0
DWIDTH 25 0
BBX 21 30 2 -3
BITMAP
002000
002000
002000
002000
002000
002000
002000
002000
002000
002000
002000
FFFFF8
002000
002000
002000
002000
002000
002000
002000
002000
002000
002000
002000
002000
002000
002000
002000
002000
002000
002000
ENDCHAR
STARTCHAR 2F18
ENCODING 12056
SWIDTH 720 0
DWIDTH 24 0
BBX 11 31 10 -3
BITMAP
8000
8000
C000
C000
C000
C000
C000
C000
C000
C000
E000
D800
C600
C300
C180
C0C0
C060
C020
C000
C000
C000
C000
C000
C000
C000
C000
C000
C000
C000
C000
8000
ENDCHAR
STARTCHAR 2F19
ENCODING 12057
SWIDTH 720 0
DWIDTH 24 0
BBX 9 27 13 -3
BITMAP
FF80
8080
8080
8080
8080
8080
8080
8080
8080
8080
8080
8080
8080
8080
8080
8080
8080
8080
8080
8080
8080
8000
8000
8000
8000
8000
8000
ENDCHAR
STARTCHAR 2F1A
ENCODING 12058
SWIDTH 750 0
DWIDTH 25 0
BBX 22 29 1 -3
BITMAP
0FFFFC
0C0000
0C0000
0C0000
0C0000
0C0000
0C0000
0C0000
0C0000
0C0000
080000
080000
080000
080000
080000
080000
180000
180000
180000
100000
100000
100000
300000
200000
200000
400000
400000
800000
800000
ENDCHAR
STARTCHAR 2F1B
ENCODING 12059
SWIDTH 720 0
DWIDTH 24 0
BBX 20 29 2 -2
BITMAP
002000
006000
006000
004000
004000
00C000
00C000
008000
008000
018000
010000
010000
030000
030000
020000
060400
040400
040200
0C0100
080100
180080
100080
3000C0
200040
2000E0
400F20
87F820
FF0030
000010
ENDCHAR
STARTCHAR 2F1C
ENCODING 12060
SWIDTH 750 0
DWIDTH 25 0
BBX 23 28 1 -4
BITMAP
3FFFC0
0800C0
0400C0
0400C0
040180
020180
020180
010300
010300
008300
008600
00C600
006C00
007800
003800
003800
003800
006C00
00C600
018700
010380
0201C0
0600E0
0C0070
180038
20001C
400006
800000
ENDCHAR
STARTCHAR 2F1D
ENCODING 12061
SWIDTH 750 0
DWIDTH 25 0
BBX 15 25 5 0
BITMAP
FFFE
8002
8002
8002
8002
8002
8002
8002
8002
8002
8002
8002
8002
8002
8002
8002
8002
8002
8002
8002
8002
8002
8002
8002
FFFE
ENDCHAR
STARTCHAR 2F1E
ENCODING 12062
SWIDTH 720 0
DWIDTH 24 0
BBX 18 27 3 -2
BITMAP
FFFFC0
800040
800040
800040
800040
800040
800040
800040
800040
800040
800040
800040
800040
800040
800040
800040
800040
800040
800040
800040
800040
800040
800040
800040
800040
800040
FFFFC0
ENDCHAR
STARTCHAR 2F1F
ENCODING 12063
SWIDTH 750 0
DWIDTH 25 0
BBX 21 29 2 -1
BITMAP
002000
002000
002000
002000
002000
002000
002000
002000
002000
002000
3FFFE0
002000
002000
002000
002000
002000
002000
002000
002000
002000
002000
002000
002000
002000
002000
002000
002000
FFFFF8
FFFFF8
ENDCHAR
STARTCHAR 2F20
ENCODING 12064
SWIDTH 720 0
DWIDTH 24 0
BBX 20 29 2 0
BITMAP
002000
002000
002000
002000
002000
002000
002000
002000
002000
002000
FFFFF0
002000
002000
002000
002000
002000
002000
002000
002000
002000
002000
002000
002000
002000
002000
002000
002000
003FE0
FFFFE0
ENDCHAR
STARTCHAR 2F21
ENCODING 12065
SWIDTH 750 0
DWIDTH 25 0
BBX 23 31 1 -3
BITMAP
008000
018000
018000
018000
010000
01FFC0
03FFC0
0200C0
020080
070180
050180
050300
088300
088600
10C600
204C00
206C00
003800
001800
003800
006C00
004600
00C700
018380
0301C0
0600E0
0C0070
18003C
20000E
400004
800000
ENDCHAR
STARTCHAR 2F23
ENCODING 12067
SWIDTH 750 0
DWIDTH 25 0
BBX 20 30 2 -3
BITMAP
018000
018000
010000
010000
03FFF0
030030
020020
060060
040060
040040
0C00C0
0800C0
1C0180
120180
210300
218300
40C600
806600
802C00
000C00
001800
003000
006000
00C000
018000
030000
060000
0C0000
100000
600000
ENDCHAR
STARTCHAR 2F24
ENCODING 12068
SWIDTH 720 0
DWIDTH 24 0
BBX 21 29 2 -3
BITMAP
002000
002000
002000
002000
002000
002000
002000
FFFFF8
006000
006000
007000
007000
007000
004800
00C800
00C800
00CC00
018400
018600
010200
030300
020100
060180
0C00C0
0800C0
100060
200030
400018
800008
ENDCHAR
STARTCHAR 2F25
ENCODING 12069
SWIDTH 720 0
DWIDTH 24 0
BBX 22 30 1 -3
BITMAP
002000
006000
006000
004000
00C000
00C000
008000
FFFFFC
018100
010100
030300
030300
020300
060200
060600
040600
040400
040C00
030C00
00D800
007000
003800
006C00
00C600
008300
010180
0600C0
0C0060
100030
600000
ENDCHAR
STARTCHAR 2F26
ENCODING 12070
SWIDTH 720 0
DWIDTH 24 0
BBX 22 28 1 -4
BITMAP
0FFFC0
0000C0
000180
000300
000300
000600
000C00
001800
001800
001000
001000
FFFFFC
001000
001000
001000
001000
001000
001000
001000
001000
001000
001000
001000
001000
001000
001000
001000
001000
ENDCHAR
STARTCHAR 2F27
ENCODING 12071
SWIDTH 750 0
DWIDTH 25 0
BBX 21 9 2 19
BITMAP
002000
002000
002000
FFFFF8
FFFFF8
800008
800008
800008
800008
ENDCHAR
STARTCHAR 2F28
ENCODING 12072
SWIDTH 720 0
DWIDTH 24 0
BBX 22 30 1 -3
BITMAP
000200
000200
000200
000200
000200
000200
000200
FFFFFC
000200
000200
000200
000200
100200
080200
040200
020200
030200
010200
018200
008200
000200
000200
000200
000200
000200
000200
000200
000200
000200
000200
ENDCHAR
STARTCHAR 2F29
ENCODING 12073
SWIDTH 720 0
DWIDTH 24 0
BBX 20 30 2 -3
BITMAP
002000
003000
003000
003000
003000
003000
003000
003000
043200
0C3200
0C3100
083080
0830C0
183040
103060
103020
203030
203030
403010
803000
803000
003000
003000
003000
003000
003000
003000
003000
003000
002000
ENDCHAR
STARTCHAR 2F2A
ENCODING 12074
SWIDTH 720 0
DWIDTH 24 0
BBX 21 30 2 -3
BITMAP
008000
008000
008000
008000
008000
008000
008000
FFFFF0
008800
008800
008800
008800
018800
018800
018800
018800
010800
010800
030800
030800
020800
060800
040800
0C0800
080800
100800
300810
200810
400FF8
800000
ENDCHAR
STARTCHAR 2F2B
ENCODING 12075
SWIDTH 720 0
DWIDTH 24 0
BBX 20 27 1 -3
BITMAP
0FFFF0
080010
080010
080010
080010
080010
080010
080010
0FFFF0
080000
080000
080000
080000
080000
080000
180000
180000
100000
100000
100000
300000
200000
200000
400000
400000
800000
800000
ENDCHAR
STARTCHAR 2F2C
ENCODING 12076
SWIDTH 750 0
DWIDTH 25 0
BBX 17 31 4 -3
BITMAP
008000
008000
008000
008000
008000
808080
808080
808080
808080
808080
808080
808080
808080
808080
808080
808080
808080
FFFF80
FFFF80
008000
008000
008000
008000
008000
008000
008000
008000
008000
008000
008000
008000
ENDCHAR
STARTCHAR 2F2D
ENCODING 12077
SWIDTH 750 0
DWIDTH 25 0
BBX 17 29 4 0
BITMAP
008000
008000
008000
008000
008000
008000
008000
808080
808080
808080
808080
808080
808080
808080
808080
808080
808080
808080
808080
808080
808080
808080
808080
808080
808080
808080
808080
FFFF80
FFFF80
ENDCHAR
STARTCHAR 2F2E
ENCODING 12078
SWIDTH 750 0
DWIDTH 25 0
BBX 19 30 3 -2
BITMAP
060000
061860
061860
041060
0C3040
0C30C0
0820C0
182080
186180
104100
30C100
208200
618200
410400
830400
820800
830400
410400
418200
208200
30C100
104100
106180
186080
0820C0
0C30C0
0C3040
041060
061860
061860
ENDCHAR
STARTCHAR 2F2F
ENCODING 12079
SWIDTH 750 0
DWIDTH 25 0
BBX 21 25 2 0
BITMAP
3FFFF0
002000
002000
002000
002000
002000
002000
002000
002000
002000
002000
002000
002000
002000
002000
002000
002000
002000
002000
002000
002000
002000
002000
002000
FFFFF8
ENDCHAR
STARTCHAR 2F30
ENCODING 12080
SWIDTH 750 0
DWIDTH 25 0
BBX 19 27 4 -3
BITMAP
FFFE00
000200
000200
000200
000200
000200
000200
000200
000200
000200
7FFE00
400000
400000
400000
400000
400000
400000
400000
400000
400000
400000
400000
400000
400000
400040
400040
7FFFE0
ENDCHAR
STARTCHAR 2F31
ENCODING 12081
SWIDTH 750 0
DWIDTH 25 0
BBX 17 30 4 -3
BITMAP
008000
008000
008000
008000
008000
008000
FFFF80
808080
808080
808080
808080
808080
808080
808080
808080
808080
808080
808080
808080
808080
808080
808080
808080
808080
008000
008000
008000
008000
008000
008000
ENDCHAR
STARTCHAR 2F32
ENCODING 12082
SWIDTH 750 0
DWIDTH 25 0
BBX 21 28 2 -4
BITMAP
1FFFE0
002000
002000
002000
002000
002000
002000
002000
002000
002000
FFFFF8
002000
002000
002000
002000
002000
002000
002000
002000
002000
002000
002000
002000
002000
002000
002000
002000
002000
ENDCHAR
STARTCHAR 2F33
ENCODING 12083
SWIDTH 720 0
DWIDTH 24 0
BBX 18 30 3 -2
BITMAP
018000
018000
010000
030000
030000
020000
060000
040000
0C0400
080C00
100800
301800
201000
40F000
FF6000
F06000
00C000
008000
018000
030000
020400
060200
0C0200
080100
100100
200180
401E80
9FF0C0
FE00C0
000040
ENDCHAR
STARTCHAR 2F34
ENCODING 12084
SWIDTH 750 0
DWIDTH 25 0
BBX 21 31 2 -3
BITMAP
000800
000800
000800
000800
000FF8
1FFFF0
180000
180000
180000
180000
180000
180000
180000
100000
100000
100000
100000
100000
100000
100000
300000
300000
300000
200000
200000
200000
400000
400000
400000
800000
800000
ENDCHAR
STARTCHAR 2F35
ENCODING 12085
SWIDTH 720 0
DWIDTH 24 0
BBX 21 27 2 -3
BITMAP
FE0000
060000
040000
0C0000
0C0000
180000
180000
300000
300000
600000
7E0000
060000
060000
060000
060000
860000
8C0000
4C0000
4C0000
280000
380000
180000
180000
2C0000
660000
438000
80FFF8
ENDCHAR
STARTCHAR 2F36
ENCODING 12086
SWIDTH 720 0
DWIDTH 24 0
BBX 22 30 1 -3
BITMAP
020100
020100
020100
020100
020100
020100
020100
020100
020100
020100
020100
FFFFFC
020100
020100
020100
020100
020100
060100
060100
040100
040100
040100
0C0100
080100
080100
100100
100100
200100
400100
800100
ENDCHAR
STARTCHAR 2F37
ENCODING 12087
SWIDTH 750 0
DWIDTH 25 0
BBX 23 29 1 -2
BITMAP
004000
004200
004180
0040C0
004060
004000
00400C
006FF8
0FFF00
FF6000
006000
002000
002000
002000
003000
003000
001000
001800
001800
000800
000C00
000C00
000600
000200
000300
000180
0000C0
000074
00003E
ENDCHAR
STARTCHAR 2F38
ENCODING 12088
SWIDTH 720 0
DWIDTH 24 0
BBX 17 28 3 -3
BITMAP
FFFF00
000100
000100
000100
000100
000100
3FFF00
200000
200000
200000
200000
200000
200000
200000
3FFF80
000080
000080
000080
000080
000080
000080
000080
000080
000080
000080
000080
000080
000080
ENDCHAR
STARTCHAR 2F39
ENCODING 12089
SWIDTH 750 0
DWIDTH 25 0
BBX 16 26 4 -1
BITMAP
FFFF
0001
0001
0001
0001
0001
0001
0001
0001
0001
0001
0001
7FFF
0001
0001
0001
0001
0001
0001
0001
0001
0001
0001
0001
0001
FFFF
ENDCHAR
STARTCHAR 2F3A
ENCODING 12090
SWIDTH 750 0
DWIDTH 25 0
BBX 18 29 4 -2
BITMAP
000C00
001800
007000
00C000
030000
0C0000
300000
000000
000000
000300
000600
000C00
003800
006000
018000
060000
180000
600000
000000
0000C0
000180
000700
000C00
003800
00E000
038000
0E0000
300000
C00000
ENDCHAR
STARTCHAR 2F3B
ENCODING 12091
SWIDTH 750 0
DWIDTH 25 0
BBX 8 30 1 -3
BITMAP
06
04
04
08
18
10
23
42
86
0C
08
18
38
48
88
08
08
08
08
08
08
08
08
08
08
08
08
08
08
08
ENDCHAR
STARTCHAR 2F3C
ENCODING 12092
SWIDTH 720 0
DWIDTH 24 0
BBX 21 28 2 -2
BITMAP
002000
001000
001000
000800
000800
020C00
030400
030000
030000
030000
030040
230040
230020
230020
430030
430010
C30010
C30018
830018
030000
030000
030000
030000
030000
030000
030080
030080
01FFC0
ENDCHAR
STARTCHAR 2F3D
ENCODING 12093
SWIDTH 750 0
DWIDTH 25 0
BBX 23 29 1 -2
BITMAP
004400
004300
004100
004080
0040C0
004000
004004
006FF8
0FFF80
FF6000
006000
002020
002070
003060
0030C0
0030C0
001180
001B00
001E00
000E00
000C00
001C00
003600
006300
00C300
030180
0400C0
180074
00001E
ENDCHAR
STARTCHAR 2F3F
ENCODING 12095
SWIDTH 750 0
DWIDTH 25 0
BBX 22 29 1 -3
BITMAP
0003C0
00FE00
3FE000
002000
002000
002000
002000
002000
1FFFC0
002000
002000
002000
002000
002000
002000
FFFFFC
FFFFF8
002000
002000
002000
002000
002000
002000
002000
002000
002000
002000
002000
002000
ENDCHAR
STARTCHAR 2F40
ENCODING 12096
SWIDTH 750 0
DWIDTH 25 0
BBX 22 30 2 -2
BITMAP
002000
002000
002000
FFFFF8
002000
002000
002000
002000
002000
1FFF80
1FFF80
040100
040300
020200
020600
010400
018C00
008800
00D800
007000
002000
007000
009800
018C00
030700
040380
0801C0
100070
60003C
800008
ENDCHAR
STARTCHAR 2F41
ENCODING 12097
SWIDTH 720 0
DWIDTH 24 0
BBX 21 30 2 -2
BITMAP
004000
006000
006000
006000
007FF0
006000
006000
006000
006000
3FFF80
3FFF00
080300
040300
040600
020600
020C00
010800
019800
00F000
006000
006000
00F000
019800
030C00
060600
080380
1001C0
200070
400038
800008
ENDCHAR
STARTCHAR 2F42
ENCODING 12098
SWIDTH 750 0
DWIDTH 25 0
BBX 21 30 2 -1
BITMAP
002000
002000
002000
002000
FFFFF0
FFFFF0
080300
040300
040600
060600
020600
030C00
010C00
018800
009800
00D800
007000
006000
007000
00F000
00D800
018C00
030E00
020700
040300
0801C0
1000E0
200070
400038
800000
ENDCHAR
STARTCHAR 2F43
ENCODING 12099
SWIDTH 750 0
DWIDTH 25 0
BBX 22 30 2 -3
BITMAP
000400
000600
040600
020600
010600
018600
00C600
204600
100600
080600
040600
060600
030600
010600
000600
00067C
003FF0
1FF600
F80600
000600
000600
000600
000600
000600
000600
000600
000600
000600
000600
000400
ENDCHAR
STARTCHAR 2F44
ENCODING 12100
SWIDTH 750 0
DWIDTH 25 0
BBX 22 30 2 -3
BITMAP
000040
0001E0
003F80
0FF800
080000
080000
080000
080000
080000
080000
080000
0FFFFC
080200
080200
080200
180200
180200
180200
180200
180200
100200
100200
300200
300200
200200
200200
400200
400200
800200
800200
ENDCHAR
STARTCHAR 2F45
ENCODING 12101
SWIDTH 690 0
DWIDTH 23 0
BBX 21 30 1 -3
BITMAP
002000
002000
002000
002000
FFFFF8
7FFFF0
020000
020000
020000
020000
020000
03FF80
020080
020080
020080
060080
060080
060080
060080
040080
040080
0C0080
0C0080
080080
180080
100080
100080
200080
400080
000080
ENDCHAR
STARTCHAR 2F46
ENCODING 12102
SWIDTH 720 0
DWIDTH 24 0
BBX 21 28 2 -4
BITMAP
3FFFC0
004000
004000
004000
004000
004000
004000
00C000
00C000
FFFFF8
00C800
008800
008800
008800
018800
018800
010800
030800
030800
020800
060800
040800
0C0800
180800
100810
200818
400FF8
800000
ENDCHAR
STARTCHAR 2F47
ENCODING 12103
SWIDTH 720 0
DWIDTH 24 0
BBX 14 27 5 -3
BITMAP
FFFC
8004
8004
8004
8004
8004
8004
8004
8004
8004
8004
FFFC
8004
8004
8004
8004
8004
8004
8004
8004
8004
8004
8004
8004
8004
8004
FFFC
ENDCHAR
STARTCHAR 2F48
ENCODING 12104
SWIDTH 720 0
DWIDTH 24 0
BBX 16 26 4 -1
BITMAP
FFFF
C001
C001
C001
C001
C001
C001
C001
C001
C001
C001
C001
FFF9
C001
C001
C001
C001
C001
C001
C001
C001
C001
C001
C001
C001
FFFF
ENDCHAR
STARTCHAR 2F49
ENCODING 12105
SWIDTH 750 0
DWIDTH 25 0
BBX 18 29 2 -2
BITMAP
0FFFC0
080040
080040
080040
080040
080040
080040
0FFFC0
080040
080040
080040
080040
080040
080040
180040
1FFFC0
180040
100040
100040
100040
100040
300040
200040
200040
200040
400040
400040
800040
000040
ENDCHAR
STARTCHAR 2F4A
ENCODING 12106
SWIDTH 750 0
DWIDTH 25 0
BBX 23 30 1 -3
BITMAP
001000
001000
001000
001000
001000
001000
7FFFF8
019200
011200
011200
031200
031100
031100
021100
021180
061180
061080
0410C0
0C10C0
0C1060
081060
181030
101038
201018
20101C
40100E
801004
001000
001000
001000
ENDCHAR
STARTCHAR 2F4B
ENCODING 12107
SWIDTH 720 0
DWIDTH 24 0
BBX 19 30 2 -2
BITMAP
0C0000
0C0000
080000
080000
1FFFE0
1FFFE0
100040
3040C0
204080
204100
404100
804000
00C000
00C000
00A000
00A000
009000
009000
011800
010800
010C00
020400
020600
040300
040100
080180
1000C0
200040
400060
800020
ENDCHAR
STARTCHAR 2F4C
ENCODING 12108
SWIDTH 720 0
DWIDTH 24 0
BBX 22 30 1 -2
BITMAP
001000
001800
001800
001800
001800
001800
001800
001800
041800
041800
041800
041FF8
041800
041800
041800
041800
041800
041800
041800
041800
041800
041800
041800
041800
041800
041800
041800
041800
FFFFFC
FFFFFC
ENDCHAR
STARTCHAR 2F4D
ENCODING 12109
SWIDTH 750 0
DWIDTH 25 0
BBX 21 28 2 -2
BITMAP
7FFFF8
008000
008000
018000
018000
010000
03FFC0
0300C0
0200C0
0600C0
040080
0C0180
0A0180
190100
118300
20C200
404600
806400
000C00
001800
003000
002000
004000
008000
030000
060000
080000
300000
ENDCHAR
STARTCHAR 2F4E
ENCODING 12110
SWIDTH 720 0
DWIDTH 24 0
BBX 21 29 1 -3
BITMAP
07FF00
040300
040300
040300
040300
0C0300
0C0300
080300
080300
1003F0
200000
400000
1FFF80
040180
040300
020300
010600
018C00
00CC00
007800
003000
007800
00CC00
018700
020380
0C00E0
180078
200018
C00000
ENDCHAR
STARTCHAR 2F4F
ENCODING 12111
SWIDTH 720 0
DWIDTH 24 0
BBX 22 28 1 -2
BITMAP
0FFFC0
0C1040
0C1040
0C1040
0C1040
0C1040
0C1040
0C1040
0C1040
FFFFFC
0C1040
0C1040
0C1040
0C3040
0C3040
0C3040
0C3040
0C2040
0C6040
0FFFF8
00C040
00C040
018040
010040
030040
060040
040040
080040
ENDCHAR
STARTCHAR 2F50
ENCODING 12112
SWIDTH 720 0
DWIDTH 24 0
BBX 19 29 4 -2
BITMAP
004000
C06000
C06000
C06000
C06000
C06040
C060C0
C06080
C06180
C06300
C06600
FF6400
C06800
C07000
C06000
C06000
C06000
C06000
C06000
C06000
C06000
C06000
C06000
C06000
C06000
C06000
C06040
C06040
C03FE0
ENDCHAR
STARTCHAR 2F51
ENCODING 12113
SWIDTH 750 0
DWIDTH 25 0
BBX 22 29 2 -1
BITMAP
0001C0
000F80
00FC00
7FE000
006000
006000
006000
006000
006000
007FC0
1FFF00
1E6000
006000
006000
006000
006000
006FF8
3FFE00
FC6000
006000
006000
006000
006000
006000
006000
006000
006008
007FFC
003FFC
ENDCHAR
STARTCHAR 2F52
ENCODING 12114
SWIDTH 720 0
DWIDTH 24 0
BBX 19 29 4 -2
BITMAP
000700
00FC00
3F8000
C08000
C08000
C08000
C08000
C08000
C08000
C08000
C08000
FFFFC0
FFFFC0
C0C000
C0C000
C04000
C04000
C04000
C06000
C06000
C02000
C02000
C03000
C01000
C01800
C00C00
C00C20
C00720
C003E0
ENDCHAR
STARTCHAR 2F53
ENCODING 12115
SWIDTH 720 0
DWIDTH 24 0
BBX 22 30 1 -2
BITMAP
0C0000
0C0000
0C0000
0FFFF0
0FFFF0
180000
100000
100000
37FFE0
200000
200000
400000
800000
9FFF80
000080
000080
000080
000080
000080
000080
000080
000080
000080
000080
0000C0
000040
000060
000068
000038
00001C
ENDCHAR
STARTCHAR 2F54
ENCODING 12116
SWIDTH 720 0
DWIDTH 24 0
BBX 22 31 1 -3
BITMAP
003000
003000
003000
003000
003000
003010
003030
003830
003860
7F38C0
013880
013500
033600
033600
033200
023200
023300
063100
063180
043080
0C30C0
083060
183060
103030
303018
203018
40300C
803004
003000
003000
003000
ENDCHAR
STARTCHAR 2F55
ENCODING 12117
SWIDTH 720 0
DWIDTH 24 0
BBX 21 31 2 -3
BITMAP
004000
006000
006000
004000
004000
004000
004000
004000
004040
104040
10E0C0
10E0C0
20E080
20E180
209100
619200
419200
018800
010800
030C00
030400
060600
060200
0C0300
0C0180
180180
1000C0
200060
400070
800038
000010
ENDCHAR
STARTCHAR 2F56
ENCODING 12118
SWIDTH 720 0
DWIDTH 24 0
BBX 22 30 1 -3
BITMAP
000060
0003C0
003E00
0FF200
082200
082100
082100
082100
082100
082100
082100
082100
082180
082180
082180
182080
1820C0
1820C0
1020C0
1020C0
102060
102060
302060
202030
202030
202038
402018
40201C
80200C
80200C
ENDCHAR
STARTCHAR 2F57
ENCODING 12119
SWIDTH 750 0
DWIDTH 25 0
BBX 20 30 2 -2
BITMAP
030800
030400
060200
060300
060180
0C0080
0800C0
180060
100060
200030
200330
440300
840200
020600
020600
010C00
018C00
009800
00D000
007000
006000
007000
00D800
018C00
030600
060300
0C0180
1000E0
200070
400010
ENDCHAR
STARTCHAR 2F58
ENCODING 12120
SWIDTH 750 0
DWIDTH 25 0
BBX 20 31 3 -3
BITMAP
000600
200600
180C00
061800
01B000
00E000
00F000
019800
030E00
060700
080180
300080
400000
000200
000200
100600
080400
040C00
041800
021800
033000
01E000
00E000
00E000
01B000
031800
060E00
080700
3001C0
4000F0
800030
ENDCHAR
STARTCHAR 2F59
ENCODING 12121
SWIDTH 720 0
DWIDTH 24 0
BBX 18 30 2 -3
BITMAP
000040
040040
040040
040040
040040
040040
040040
040040
040040
07FFC0
07FFC0
000040
000040
000040
000040
000040
7FFFC0
030040
030040
030040
060040
060040
060040
0E0040
0C0040
180040
180040
300040
400040
800040
ENDCHAR
STARTCHAR 2F5A
ENCODING 12122
SWIDTH 720 0
DWIDTH 24 0
BBX 21 29 1 -2
BITMAP
080400
0C0400
0C0400
0C0400
0C0400
0C0400
0C0400
0C0400
0FFFF8
0FFFF0
0C0000
0C0000
0C0000
080000
080000
0FFFC0
080040
080040
080040
180040
180040
100040
100040
300040
200040
200040
400040
400040
800040
ENDCHAR
STARTCHAR 2F5B
ENCODING 12123
SWIDTH 750 0
DWIDTH 25 0
BBX 21 28 2 -4
BITMAP
7FFFF0
000200
000200
000200
100200
180200
180200
180200
180200
180200
1FFFF8
018200
018200
010200
030200
030200
030200
060200
060200
040200
0C0200
080200
100200
300200
200200
400200
800200
000200
ENDCHAR
STARTCHAR 2F5C
ENCODING 12124
SWIDTH 720 0
DWIDTH 24 0
BBX 22 31 1 -4
BITMAP
001000
001000
041000
0C1000
0C1000
081000
0FFFE0
0FFFE0
101000
101000
201000
201000
401000
401000
001000
001000
FFFFFC
001000
001000
001000
001000
001000
001000
001000
001000
001000
001000
001000
001000
001000
001000
ENDCHAR
STARTCHAR 2F5D
ENCODING 12125
SWIDTH 750 0
DWIDTH 25 0
BBX 21 31 2 -4
BITMAP
004000
004000
006400
006200
006100
006180
006180
006000
006000
006000
FFFFF8
004000
004000
005000
00D000
00D000
00C800
008800
008400
018400
010600
010200
020300
020180
0400C0
0C00C0
180060
100030
200018
400008
800000
ENDCHAR
STARTCHAR 2F5E
ENCODING 12126
SWIDTH 750 0
DWIDTH 25 0
BBX 22 30 1 -2
BITMAP
002000
002000
002000
002000
FFFFFC
004000
00C000
008000
018000
010200
030200
020600
040400
080C00
083800
1FD800
001000
003000
006000
004000
00C000
018200
010100
020100
040080
0801C0
101EC0
1FF040
3F0060
000060
ENDCHAR
STARTCHAR 2F5F
ENCODING 12127
SWIDTH 720 0
DWIDTH 24 0
BBX 22 27 1 -3
BITMAP
3FFFF0
003000
003000
003000
003000
003000
003000
003000
003000
003000
003000
1FFFC0
003000
003000
003000
003000
003200
003100
003180
003080
0030C0
0030C0
003040
003000
003000
003000
FFFFFC
ENDCHAR
STARTCHAR 2F60
ENCODING 12128
SWIDTH 720 0
DWIDTH 24 0
BBX 22 30 1 -2
BITMAP
000060
0003C0
003F00
0FF100
082100
082100
082100
082100
082100
082100
082180
082180
082180
082180
082080
182080
1820C0
1820C0
1020C0
106040
106060
106860
304460
204630
20C230
408318
408F18
41798C
81E18C
018004
ENDCHAR
STARTCHAR 2F61
ENCODING 12129
SWIDTH 720 0
DWIDTH 24 0
BBX 22 28 1 -4
BITMAP
FFFFF8
020000
020000
020000
060000
060000
060000
07FE00
060200
040200
040200
040200
048200
0C8200
0C4200
0C4200
0C6200
0C2200
080200
080200
080200
080200
080200
180200
180200
180208
180208
1803FC
ENDCHAR
STARTCHAR 2F62
ENCODING 12130
SWIDTH 750 0
DWIDTH 25 0
BBX 23 29 1 -1
BITMAP
040080
040080
040080
040080
040080
040080
FFFFFE
040080
040080
040080
040080
040080
040080
040080
040080
040080
07FF80
040080
040080
040080
040080
040080
040080
040080
040080
040080
040080
07FF80
07FF80
ENDCHAR
STARTCHAR 2F63
ENCODING 12131
SWIDTH 720 0
DWIDTH 24 0
BBX 20 29 2 -1
BITMAP
002000
0C2000
0C2000
0C2000
082000
082000
1FFFC0
1FFF00
102000
302000
202000
202000
402000
802000
802000
002000
1FFF80
002000
002000
002000
002000
002000
002000
002000
002000
002000
002000
003FF0
FFFFF0
ENDCHAR
STARTCHAR 2F64
ENCODING 12132
SWIDTH 720 0
DWIDTH 24 0
BBX 19 28 1 -3
BITMAP
1FFFE0
101020
101020
101020
101020
101020
101020
1FFFE0
101020
101020
101020
101020
101020
101020
301020
3FFFE0
301020
301020
201020
201020
201020
201020
401020
401020
401020
801020
801020
801020
ENDCHAR
STARTCHAR 2F65
ENCODING 12133
SWIDTH 750 0
DWIDTH 25 0
BBX 17 26 4 -1
BITMAP
FFFF80
808080
808080
808080
808080
808080
808080
808080
808080
808080
808080
FFFF80
808080
808080
808080
808080
808080
808080
808080
808080
808080
808080
808080
808080
808080
FFFF80
ENDCHAR
STARTCHAR 2F66
ENCODING 12134
SWIDTH 750 0
DWIDTH 25 0
BBX 21 27 2 -4
BITMAP
7FFFF0
003010
003010
003010
003010
003000
083000
083000
083000
083000
083000
083FF0
183000
183000
183000
103000
183000
183000
343000
243000
263000
233000
213000
41F000
40F000
803FF8
800000
ENDCHAR
STARTCHAR 2F67
ENCODING 12135
SWIDTH 720 0
DWIDTH 24 0
BBX 22 30 1 -3
BITMAP
000200
000200
000200
07FFFC
07FFFC
060000
060000
460000
460000
260000
360000
360000
060000
060000
040000
1C0000
340000
640000
C40000
0C0000
0C0000
080000
080000
080000
100000
100000
100000
200000
200000
400000
ENDCHAR
STARTCHAR 2F69
ENCODING 12137
SWIDTH 750 0
DWIDTH 25 0
BBX 16 29 5 -2
BITMAP
0300
0200
0600
0400
FFFF
FFFF
8001
8001
8001
8001
8001
8001
8001
8001
8001
FFFF
8001
8001
8001
8001
8001
8001
8001
8001
8001
8001
8001
8001
FFFF
ENDCHAR
STARTCHAR 2F6A
ENCODING 12138
SWIDTH 750 0
DWIDTH 25 0
BBX 22 31 2 -3
BITMAP
001000
001000
001000
001000
1FFFE0
101020
101020
101020
101020
101000
101000
1FFFC0
1FFFC0
110080
110180
110180
308100
30C300
304300
302600
303400
201C00
200800
201C00
603600
406300
40C1C0
4100E0
820078
84001C
180000
ENDCHAR
STARTCHAR 2F6B
ENCODING 12139
SWIDTH 720 0
DWIDTH 24 0
BBX 22 27 1 -3
BITMAP
1FFFE0
108420
108420
108420
108420
108420
108420
108420
108420
108420
108420
108420
108420
108420
108420
108420
108420
108420
108420
108420
108420
108420
108420
108420
108420
108420
FFFFFC
ENDCHAR
STARTCHAR 2F6C
ENCODING 12140
SWIDTH 720 0
DWIDTH 24 0
BBX 14 28 5 -2
BITMAP
FFFC
8004
8004
8004
8004
8004
8004
8004
8004
FFFC
8004
8004
8004
8004
8004
8004
8004
FFFC
8004
8004
8004
8004
8004
8004
8004
8004
8004
FFFC
ENDCHAR
STARTCHAR 2F6D
ENCODING 12141
SWIDTH 750 0
DWIDTH 25 0
BBX 21 29 2 -3
BITMAP
1FFFC0
0001C0
000180
000300
000600
008C00
007800
003000
001800
000800
7FFFF8
010808
030808
030808
030808
020808
060800
060800
040800
0C0800
080800
180800
100800
300800
200800
400800
800800
000800
000800
ENDCHAR
STARTCHAR 2F6E
ENCODING 12142
SWIDTH 750 0
DWIDTH 25 0
BBX 21 31 2 -4
BITMAP
020000
060000
060000
060000
040000
0C0000
0FFFE0
082000
182000
102000
202000
202000
402000
006000
006000
FFFFF8
007000
004800
004800
00CC00
00C400
008600
018200
010300
030180
060080
0400C0
080060
100038
200018
C00000
ENDCHAR
STARTCHAR 2F6F
ENCODING 12143
SWIDTH 720 0
DWIDTH 24 0
BBX 20 27 2 -3
BITMAP
7FFFF0
008000
018000
018000
010000
030000
030000
020000
060000
060000
07FF80
0E0080
0A0080
120080
120080
220080
420080
420080
820080
020080
020080
020080
020080
020080
020080
020080
03FF80
ENDCHAR
STARTCHAR 2F70
ENCODING 12144
SWIDTH 720 0
DWIDTH 24 0
BBX 21 28 1 -3
BITMAP
1FFFC0
000000
000000
000000
000000
000000
000000
000000
000000
7FFFF8
003000
003000
003000
003000
063200
063100
043080
0C3080
0C3040
183060
183030
303030
203018
603008
403008
803000
003000
003000
ENDCHAR
STARTCHAR 2F72
ENCODING 12146
SWIDTH 720 0
DWIDTH 24 0
BBX 22 30 1 -2
BITMAP
0000E0
003F00
3FF000
001000
001000
001000
001000
001000
001000
001000
7FFFF8
019200
019200
019200
011300
031100
031100
021180
061080
0610C0
041040
0C1060
081060
101030
101010
201018
40100C
801004
001000
001000
ENDCHAR
STARTCHAR 2F73
ENCODING 12147
SWIDTH 750 0
DWIDTH 25 0
BBX 23 30 1 -2
BITMAP
001000
001000
3FFFF8
3FFFF8
300008
300008
300008
304408
204400
00C400
00C400
008200
008200
008200
008300
018100
018100
010180
030180
0300C0
0200C0
060060
040060
0C0070
080030
100038
300018
20001C
40000E
800004
ENDCHAR
STARTCHAR 2F74
ENCODING 12148
SWIDTH 720 0
DWIDTH 24 0
BBX 22 29 1 -1
BITMAP
002000
002000
002000
002000
7FFFF8
7FFFF8
000000
000000
000080
080180
080180
040180
040100
040300
020300
020200
020200
030200
010400
010400
010400
018800
018800
019000
001000
000000
000000
FFFFFC
FFFFFC
ENDCHAR
STARTCHAR 2F75
ENCODING 12149
SWIDTH 720 0
DWIDTH 24 0
BBX 22 30 1 -3
BITMAP
080400
0C0600
080400
180C00
180C00
100800
1FEFFC
241080
241080
241080
442080
444080
844080
040080
040080
040080
040080
040080
040080
040080
040080
040080
040080
040080
040080
040080
040080
040080
040080
040080
ENDCHAR
STARTCHAR 2F76
ENCODING 12150
SWIDTH 720 0
DWIDTH 24 0
BBX 22 31 1 -3
BITMAP
002000
003000
003000
003020
103060
083040
0430C0
063080
023100
033100
013200
003000
7FFFF8
1FB200
013200
013200
033100
033100
023180
023080
063080
0430C0
0C3040
083060
083030
103030
203018
20300C
403004
803000
003000
ENDCHAR
STARTCHAR 2F77
ENCODING 12151
SWIDTH 720 0
DWIDTH 24 0
BBX 20 30 2 -3
BITMAP
004000
006000
00C000
018000
010300
020700
040E00
080C00
1FF800
003000
006000
00C200
018200
030100
060080
0C0040
180FC0
3FF060
003060
003000
023000
063100
0C3080
0C3040
183060
183020
303030
203000
403000
802000
ENDCHAR
STARTCHAR 2F78
ENCODING 12152
SWIDTH 720 0
DWIDTH 24 0
BBX 22 30 1 -2
BITMAP
060000
060000
060000
040000
0C0000
0FFFE0
082000
182000
102000
202000
202000
402000
002000
002000
FFFFFC
002000
002000
002000
002000
102040
102040
102040
102040
102040
102040
102040
102040
102040
1FFFC0
1FFFC0
ENDCHAR
STARTCHAR 2F79
ENCODING 12153
SWIDTH 720 0
DWIDTH 24 0
BBX 18 29 3 -2
BITMAP
FFFFC0
C00040
C00040
C08240
C18340
C1C340
D14240
C92240
C92640
C71640
C71440
C20C40
C20C40
C30C40
C70C40
C50E40
C51640
C99240
C89340
C8A340
D0A340
E04140
E04140
C00040
C00040
C00040
C00040
C00040
800000
ENDCHAR
STARTCHAR 2F7A
ENCODING 12154
SWIDTH 750 0
DWIDTH 25 0
BBX 21 31 2 -3
BITMAP
000200
040600
020400
030C00
010800
001FF0
7FFFF0
002000
002000
002000
002000
002000
1FFFC0
002000
002000
002000
002000
002000
002000
FFFFF8
002000
002000
002000
002000
002000
002000
002000
002000
002000
002000
002000
ENDCHAR
STARTCHAR 2F7B
ENCODING 12155
SWIDTH 750 0
DWIDTH 25 0
BBX 20 28 2 -4
BITMAP
FFDFF0
00C010
00C010
00C010
20C810
10C410
18C210
08C310
0CC310
0CC110
00C010
02C050
02C090
04C090
04C090
04C110
08C110
18C210
10C610
30C410
60C810
E0D810
C0D010
00C010
00C010
00C010
00C010
008010
ENDCHAR
STARTCHAR 2F7C
ENCODING 12156
SWIDTH 720 0
DWIDTH 24 0
BBX 22 30 1 -2
BITMAP
004000
006000
006020
1FFF20
006060
0060C0
0060C0
006180
006300
006600
FFFFFC
001800
003000
002000
00C000
038000
0300C0
070180
0B0300
130E00
231800
436000
038000
030000
030000
030000
030020
030020
03FFF0
00FFE0
ENDCHAR
STARTCHAR 2F7D
ENCODING 12157
SWIDTH 720 0
DWIDTH 24 0
BBX 22 28 1 -4
BITMAP
FFFFFC
006000
006000
004000
004000
00C000
008000
1FFFE0
108420
108420
108420
108420
108420
108420
108420
108420
108420
108420
108420
108420
108420
108420
108420
108420
108420
108420
108420
108420
ENDCHAR
STARTCHAR 2F7E
ENCODING 12158
SWIDTH 750 0
DWIDTH 25 0
BBX 23 30 1 -3
BITMAP
001000
001000
001000
001000
3FFFF8
001000
001000
001000
001000
1FFFE0
001000
001000
001000
001000
7FFFFC
019200
011200
031200
031100
021180
061080
0610C0
0C1060
081060
181030
10101C
20100E
401004
801000
001000
ENDCHAR
STARTCHAR 2F7F
ENCODING 12159
SWIDTH 750 0
DWIDTH 25 0
BBX 22 29 2 -2
BITMAP
7FFFF0
040180
040180
040180
040180
040180
040180
07FF80
040180
040180
040180
040180
040180
07FF80
040180
040180
040180
040180
040184
0407F8
0FFF80
FF8180
000180
000180
000180
000180
000180
000180
000100
ENDCHAR
STARTCHAR 2F80
ENCODING 12160
SWIDTH 720 0
DWIDTH 24 0
BBX 22 30 1 -3
BITMAP
002000
002000
002000
0FFFC0
002040
002040
002040
002040
FFFFFC
002040
002040
002040
1FFFC0
002000
002000
002000
002000
1FFFE0
002000
002000
002000
002000
FFFFF8
002000
002000
002000
002000
002000
002000
002000
ENDCHAR
STARTCHAR 2F81
ENCODING 12161
SWIDTH 720 0
DWIDTH 24 0
BBX 18 30 3 -3
BITMAP
004000
004000
004000
004000
FFFFC0
C0C040
C0C040
C0C040
C0A040
C19040
C10840
C30C40
C64640
C84240
D0C040
C0C040
C0C040
C0C040
C1B040
C11840
C20C40
C60440
C80640
D00240
C00040
C00040
C00040
C00040
C00040
800040
ENDCHAR
STARTCHAR 2F82
ENCODING 12162
SWIDTH 750 0
DWIDTH 25 0
BBX 19 27 4 -3
BITMAP
FFFFC0
C04000
C04000
C04000
C04000
C04000
C04000
C04000
FFFF00
C00100
C00100
C00100
C00100
C00100
C00100
C00100
C00100
FFFF00
C04000
C04000
C04000
C04000
C04000
C04000
C04000
C04000
FFFFE0
ENDCHAR
STARTCHAR 2F83
ENCODING 12163
SWIDTH 750 0
DWIDTH 25 0
BBX 15 29 5 -2
BITMAP
0300
0200
0600
0400
FFFE
FFFE
8002
8002
8002
8002
8002
8002
FFFE
8002
8002
8002
8002
8002
8002
FFFE
8002
8002
8002
8002
8002
8002
8002
8002
FFFE
ENDCHAR
STARTCHAR 2F84
ENCODING 12164
SWIDTH 750 0
DWIDTH 25 0
BBX 21 27 2 -2
BITMAP
7FFFF0
00C000
00C000
018000
018200
030200
020100
060180
0401C0
083EC0
1FE060
000060
000000
002000
002000
002000
002000
1FFFE0
002000
002000
002000
002000
002000
002000
002000
003FF8
FFFFF8
ENDCHAR
STARTCHAR 2F85
ENCODING 12165
SWIDTH 750 0
DWIDTH 25 0
BBX 18 28 3 -1
BITMAP
030000
060000
383FC0
C00040
C00040
C00040
C00040
C00040
C00040
C00040
C00040
C00040
C00040
FF3FC0
C00040
C00040
C00040
C00040
C00040
C00040
C00040
C00040
C00040
C00040
C00040
C00040
C00040
FFFFC0
ENDCHAR
STARTCHAR 2F86
ENCODING 12166
SWIDTH 720 0
DWIDTH 24 0
BBX 22 30 1 -3
BITMAP
000040
0003C0
00FE00
3FE000
002000
002000
002000
002000
002000
FFFFFC
7FFFF8
002000
002000
002000
002000
002000
002000
0FFFC0
080040
080040
080040
080040
080040
080040
080040
080040
080040
080040
080040
0FFFC0
ENDCHAR
STARTCHAR 2F87
ENCODING 12167
SWIDTH 720 0
DWIDTH 24 0
BBX 22 31 1 -3
BITMAP
0C0040
0C0040
0C0040
0C0040
080040
080040
1FDFFC
1FCFF8
18C040
10D040
10D840
30D840
30D840
299840
459840
459840
819840
831FFC
031FF8
030040
060040
060040
0C0040
0C0040
080040
180040
100040
200040
400040
400040
800040
ENDCHAR
STARTCHAR 2F88
ENCODING 12168
SWIDTH 750 0
DWIDTH 25 0
BBX 23 30 1 -3
BITMAP
003000
002000
002000
07FF80
07FF80
060080
064080
062080
062080
061080
061880
060880
060080
060080
FFFFFE
040080
040080
044080
042080
0C1080
0C1080
0C1880
080880
080080
080080
100080
100080
200080
200080
400080
ENDCHAR
STARTCHAR 2F89
ENCODING 12169
SWIDTH 750 0
DWIDTH 25 0
BBX 19 29 5 -3
BITMAP
FFFC00
C00400
C00400
C00400
C00400
FFFC00
C00400
C00400
C00400
C00400
C00400
FFFC00
C20100
C20300
C10300
C10600
C18C00
C09800
C0D000
C06000
C02000
C03000
C01800
C00C00
C00600
C00380
C001C0
C000E0
400000
ENDCHAR
STARTCHAR 2F8A
ENCODING 12170
SWIDTH 750 0
DWIDTH 25 0
BBX 22 30 2 -2
BITMAP
030000
020000
020000
07FF00
07FF00
040200
080600
180400
100400
200800
4FFFE0
881020
081020
081020
081020
081020
081020
0FFFE0
080000
080000
080000
080000
080000
080000
080000
080000
080008
080008
080008
0FFFFC
ENDCHAR
STARTCHAR 2F8C
ENCODING 12172
SWIDTH 750 0
DWIDTH 25 0
BBX 23 30 1 -3
BITMAP
002000
003000
003000
003000
003FF0
003000
003000
003000
1FFFF8
1FFFF8
100008
102008
103008
103008
103000
103000
103070
103FE0
13FC00
37B000
303000
303000
203000
203000
203000
203000
403000
403008
80300C
801FFE
ENDCHAR
STARTCHAR 2F8D
ENCODING 12173
SWIDTH 750 0
DWIDTH 25 0
BBX 22 30 2 -3
BITMAP
002000
002000
002000
002000
002000
002000
1FFFC0
102040
102040
102040
102040
102040
102040
102040
102040
102040
1FFFC0
002000
002000
002000
002000
002100
002080
002040
002060
002030
0021F0
01FE18
FFC018
00000C
ENDCHAR
STARTCHAR 2F8E
ENCODING 12174
SWIDTH 720 0
DWIDTH 24 0
BBX 22 29 1 0
BITMAP
006000
006000
004000
008000
0FFFE0
0FFFE0
088420
088420
088420
088420
088420
088420
088420
088420
088420
088420
088420
088420
088420
088420
088420
088420
088420
088420
088420
088420
088420
088420
FFFFFC
ENDCHAR
STARTCHAR 2F8F
ENCODING 12175
SWIDTH 750 0
DWIDTH 25 0
BBX 23 30 1 -2
BITMAP
060000
040000
0C3FF8
080000
180000
120000
230000
460000
860000
0C0000
08FFFE
180040
380040
680040
880040
080040
080040
080040
080040
080040
080040
080040
080040
080040
080040
080040
080040
080040
080040
080040
ENDCHAR
STARTCHAR 2F90
ENCODING 12176
SWIDTH 720 0
DWIDTH 24 0
BBX 22 31 1 -4
BITMAP
002000
002000
002000
002000
002000
FFFFFC
004000
00C000
008000
01A000
019000
011030
031030
030860
070840
050880
090500
090400
110200
210300
210100
410180
810080
0100C0
010060
010020
010030
010018
01000C
01000C
010000
ENDCHAR
STARTCHAR 2F93
ENCODING 12179
SWIDTH 720 0
DWIDTH 24 0
BBX 19 30 1 -3
BITMAP
030000
020000
07FF00
040300
0C0600
080400
180800
1FFFE0
281020
281020
481020
081020
081020
0FFFE0
081020
081020
081020
081020
181020
1FFFE0
181020
101020
101020
101020
301020
201020
201020
401020
801020
000020
ENDCHAR
STARTCHAR 2F94
ENCODING 12180
SWIDTH 750 0
DWIDTH 25 0
BBX 22 29 1 -2
BITMAP
002000
002000
002000
FFFFFC
7FFFF8
000000
000000
000000
0FFFC0
000000
000000
000000
000000
000000
0FFFC0
000000
000000
000000
000000
0FFF80
080080
080080
080080
080080
080080
080080
080080
080080
0FFF80
ENDCHAR
STARTCHAR 2F95
ENCODING 12181
SWIDTH 720 0
DWIDTH 24 0
BBX 21 29 1 -2
BITMAP
018800
030400
030200
060300
060180
0C3080
1820C0
107060
20D820
40C830
018400
030600
020300
040180
0800C0
100060
200038
C7FF18
040108
040100
040100
040100
040100
040100
040100
040100
040100
040100
07FF00
ENDCHAR
STARTCHAR 2F96
ENCODING 12182
SWIDTH 720 0
DWIDTH 24 0
BBX 22 27 1 -2
BITMAP
7FFFF8
000000
000000
000000
000000
07FF80
040080
040080
040080
040080
040080
040080
040080
040080
040080
07FF80
000000
000000
040180
040180
020300
010300
010600
018400
008800
FFFFFC
FFFFFC
ENDCHAR
STARTCHAR 2F97
ENCODING 12183
SWIDTH 690 0
DWIDTH 23 0
BBX 21 28 1 -4
BITMAP
FFFFF8
006000
00C000
00C000
018020
028060
06C0C0
084180
102300
206600
40FC00
019400
031200
061200
0C1A00
183900
206900
40C880
008880
010840
020860
040830
181810
201808
401800
011000
00F000
00E000
ENDCHAR
STARTCHAR 2F98
ENCODING 12184
SWIDTH 750 0
DWIDTH 25 0
BBX 18 31 4 -3
BITMAP
001800
003000
006000
00C000
01C000
0620C0
082180
143300
620E00
031800
033000
00E000
011000
061000
181800
603800
006800
01CC00
070400
180C00
601C00
007400
01C400
070400
180C00
E00C00
000C00
000C00
001800
007800
003000
ENDCHAR
STARTCHAR 2F9A
ENCODING 12186
SWIDTH 750 0
DWIDTH 25 0
BBX 21 30 2 -3
BITMAP
002000
002000
002000
002000
1FFFE0
002000
002000
002000
002000
002000
FFFFF8
008600
008600
008600
088600
098600
098680
118640
118620
110630
210610
230618
420608
020600
060600
040600
080600
100600
200600
400400
ENDCHAR
STARTCHAR 2F9B
ENCODING 12187
SWIDTH 750 0
DWIDTH 25 0
BBX 21 29 2 -2
BITMAP
002000
003000
003000
003000
3FFFC0
003000
003000
003000
003000
003000
FFFFF8
000000
002000
003000
083000
183000
183000
183FE0
103000
103000
303000
303000
303000
283000
4C3000
463000
43B000
80FFF8
801FF0
ENDCHAR
STARTCHAR 2F9C
ENCODING 12188
SWIDTH 720 0
DWIDTH 24 0
BBX 21 28 2 -2
BITMAP
0FFF80
080080
080080
080080
080080
080080
080080
080080
080080
0FFF80
006000
006000
006000
006000
0C6000
086000
087FE0
186000
186000
106000
106000
386000
286000
246000
426000
41E000
80FFF8
800000
ENDCHAR
STARTCHAR 2F9D
ENCODING 12189
SWIDTH 720 0
DWIDTH 24 0
BBX 21 30 1 -3
BITMAP
006000
004000
008000
0FFF80
0FFF80
080180
080180
0FFF80
080188
080198
080190
0801B0
0FFFB0
0801E0
0801E0
0801C0
0801C0
FFFF80
000380
000780
000D80
001980
003180
006180
008180
030180
040180
180180
600180
000100
ENDCHAR
STARTCHAR 2F9E
ENCODING 12190
SWIDTH 720 0
DWIDTH 24 0
BBX 22 31 1 -3
BITMAP
001000
001000
001000
001000
7FFFF8
001000
001000
001000
001000
0FFFC0
081040
081040
081040
0FFFC0
081040
081040
081040
081040
0FFFC0
001000
001000
001000
FFFFFC
001000
001000
001000
001000
001000
001000
001000
001000
ENDCHAR
STARTCHAR 2F9F
ENCODING 12191
SWIDTH 720 0
DWIDTH 24 0
BBX 22 30 1 -2
BITMAP
002000
002000
002000
3FFFE0
3FFFE0
000000
000100
040300
020200
010600
018400
008800
000000
FFFFFC
002000
002000
002000
002000
002000
002000
7FFFF0
002000
002000
002000
002000
002000
002000
002000
002000
002000
ENDCHAR
STARTCHAR 2FA0
ENCODING 12192
SWIDTH 720 0
DWIDTH 24 0
BBX 22 28 1 -4
BITMAP
1FFFF8
180000
180000
180000
180000
19FFE0
180000
180000
180000
180000
100000
17FFF8
10C000
10C000
10C810
10C830
10C420
10C240
30C280
30C100
20C180
20C080
20C0C0
60C060
40C030
40C018
80C00C
80C000
ENDCHAR
STARTCHAR 2FA2
ENCODING 12194
SWIDTH 750 0
DWIDTH 25 0
BBX 19 28 5 -2
BITMAP
7FFE00
600200
600200
600200
600200
600200
7FFE00
000000
000000
000000
FFFF00
810100
810100
810100
810100
810100
810100
FFFF00
800000
800000
800000
800000
800000
800000
800000
800040
800040
FFFFE0
ENDCHAR
STARTCHAR 2FA3
ENCODING 12195
SWIDTH 720 0
DWIDTH 24 0
BBX 22 28 1 -4
BITMAP
FFFFFC
004C00
004C00
004C00
004C00
004C00
1FFFE0
104C20
10CC20
10CC20
108C20
108C20
118C20
110C20
110FA0
120020
140020
100020
100020
1FFFE0
100020
100020
100020
100020
100020
100020
100020
1FFFE0
ENDCHAR
STARTCHAR 2FA5
ENCODING 12197
SWIDTH 720 0
DWIDTH 24 0
BBX 22 28 1 -2
BITMAP
0FFFC0
082040
082040
082040
082040
082040
082040
0FFFC0
082040
082040
082040
082040
082040
0FFFC0
002000
002000
002000
002000
002000
1FFFE0
002000
002000
002000
002000
002000
002000
002000
FFFFFC
ENDCHAR
STARTCHAR 2FA6
ENCODING 12198
SWIDTH 750 0
DWIDTH 25 0
BBX 22 29 1 -1
BITMAP
003000
003000
006800
004800
00C400
008600
018300
030180
0600C0
0C0060
1BFF38
30300C
403004
803000
003000
003000
003000
1FFFE0
003000
003000
0430C0
0430C0
023180
033180
033100
01B200
003200
7FFFFC
7FFFFC
ENDCHAR
STARTCHAR 2FA9
ENCODING 12201
SWIDTH 720 0
DWIDTH 24 0
BBX 22 30 1 -3
BITMAP
002000
006000
004000
07FF80
040080
040080
040080
07FF80
040000
040000
040000
07FFC0
040040
040040
040040
040040
07FFC0
000000
001000
001000
FFFFFC
001000
001000
001000
001000
001000
001000
001000
001000
001000
ENDCHAR
STARTCHAR 2FAA
ENCODING 12202
SWIDTH 750 0
DWIDTH 25 0
BBX 22 31 1 -3
BITMAP
002000
003000
003000
003000
0FFFC0
003040
003040
003040
003040
FFFFFC
003040
003040
003040
1FFFC0
003000
003000
103020
0C3060
0638C0
033980
003600
00B600
013300
013380
023180
0430C0
183070
383038
70301C
403008
002000
ENDCHAR
STARTCHAR 2FAB
ENCODING 12203
SWIDTH 750 0
DWIDTH 25 0
BBX 22 30 2 -2
BITMAP
030400
030400
020400
060400
060400
07FFF8
0FFFF8
1C0400
1C0400
3C0400
6C0400
8C0400
0C0400
0FFFF0
0C0400
0C0400
0C0400
0C0400
0C0400
0C0400
0FFFF0
0C0400
0C0400
0C0400
0C0400
0C0400
0C0400
0FFFFC
0C0000
080000
ENDCHAR
STARTCHAR 2FAC
ENCODING 12204
SWIDTH 720 0
DWIDTH 24 0
BBX 20 28 2 -4
BITMAP
FFFFF0
006000
006000
006000
006000
3FFFC0
306040
306040
306040
306040
346840
326440
316240
31E340
306040
306040
306040
306040
346840
326440
336640
316240
306040
306040
306040
306040
306040
206040
ENDCHAR
STARTCHAR 2FAE
ENCODING 12206
SWIDTH 750 0
DWIDTH 25 0
BBX 22 30 1 -3
BITMAP
008600
008600
008600
008600
008600
7F87FC
008600
008600
008600
008600
008600
008600
3F87F8
008600
008600
008600
008600
008600
008600
008600
FF87FC
008600
008600
008600
008600
008600
008600
008600
008600
008600
ENDCHAR
STARTCHAR 2FAF
ENCODING 12207
SWIDTH 720 0
DWIDTH 24 0
BBX 22 27 1 -3
BITMAP
FFFFFC
002000
002000
002000
004000
004000
1FFFE0
108420
108420
108420
108420
108420
10FC20
108420
108420
108420
108420
108420
10FC20
108420
108420
108420
108420
108420
108420
108420
1FFFE0
ENDCHAR
STARTCHAR 2FB0
ENCODING 12208
SWIDTH 720 0
DWIDTH 24 0
BBX 22 30 1 -3
BITMAP
010200
010200
010200
7FFFF8
010200
010200
010200
010200
01FE00
001000
001000
001000
0FFFC0
081040
081040
081040
081040
0FFFC0
001000
001000
001000
001000
FFFFFC
001000
001000
001000
001000
001000
001000
001000
ENDCHAR
STARTCHAR 2FB2
ENCODING 12210
SWIDTH 720 0
DWIDTH 24 0
BBX 22 30 1 -2
BITMAP
008400
008600
008600
008600
008600
008600
7F87F8
008600
008600
008600
008600
008600
008600
3F87F0
008600
008600
008600
008600
008600
008600
7F87F8
008600
008600
008600
008600
008600
008600
008600
FFFFFC
FFFFFC
ENDCHAR
STARTCHAR 2FB3
ENCODING 12211
SWIDTH 720 0
DWIDTH 24 0
BBX 22 29 1 -1
BITMAP
002000
002000
002000
3FFFE0
1FFFC0
000300
020300
010200
018600
018400
000800
FFFFFC
000000
000000
000000
07FF80
040080
040080
040080
040080
040080
07FF80
040080
040080
040080
040080
040080
040080
07FF80
ENDCHAR
STARTCHAR 2FB5
ENCODING 12213
SWIDTH 720 0
DWIDTH 24 0
BBX 22 29 1 -2
BITMAP
1FFFC0
100040
100040
100E40
107C40
17E040
102040
102040
102040
13FE40
122240
122240
122240
122240
122240
13FE40
33FE40
302040
302040
302440
202240
202240
202340
203D40
4FC160
4001E0
800034
80003C
00001C
ENDCHAR
STARTCHAR 2FB6
ENCODING 12214
SWIDTH 750 0
DWIDTH 25 0
BBX 23 30 1 -3
BITMAP
7FFE00
000618
000630
004660
034280
0E4300
7842E0
084230
084318
08410C
084180
0840C2
084072
FFFE3E
384604
084618
084630
084660
184280
184300
1842C0
104330
104318
10410C
204180
2040C0
2040C2
404072
80401E
80000C
ENDCHAR
STARTCHAR 2FB7
ENCODING 12215
SWIDTH 720 0
DWIDTH 24 0
BBX 21 30 2 -2
BITMAP
002000
006000
00D000
018800
030400
062300
0821C0
3020F0
4FFF38
8FFF00
0C0100
0C0100
0C0100
0FFF00
0C0100
0C0100
0C0100
0C0100
0FFF00
0C0020
0C4060
0C30C0
0C0980
0C0600
0C0200
0C0100
0C0080
0C00C0
0C0060
0C0020
ENDCHAR
STARTCHAR 2FB8
ENCODING 12216
SWIDTH 720 0
DWIDTH 24 0
BBX 22 30 1 -3
BITMAP
040100
020180
010300
018200
000400
FFFFFC
7FFFF8
002000
002000
004000
0FFFC0
080040
080040
080040
080040
080040
0FFFC0
080040
080040
080040
080040
080040
0FFFC0
080040
080040
080040
080040
080040
080040
0FFFC0
ENDCHAR
STARTCHAR 2FB9
ENCODING 12217
SWIDTH 690 0
DWIDTH 23 0
BBX 21 30 1 -3
BITMAP
000080
000F80
01FC00
7FE000
002000
002000
FFFFF0
FFFFF0
032800
062400
062200
0C2300
1821C0
1020E0
202038
400010
0FFF00
080100
080100
080100
080100
080100
0FFF00
080100
080100
080100
080100
080100
080100
0FFF00
ENDCHAR
STARTCHAR 2FBB
ENCODING 12219
SWIDTH 750 0
DWIDTH 25 0
BBX 19 30 3 -3
BITMAP
0FFE00
080200
080200
080200
0FC200
084200
084200
084200
FFFFE0
800020
800020
800020
800020
0FFE00
080200
080200
080200
0FFE00
080200
080200
080200
080200
0FFE00
080200
080200
080200
080200
080200
080200
080200
ENDCHAR
STARTCHAR 2FBC
ENCODING 12220
SWIDTH 750 0
DWIDTH 25 0
BBX 21 30 2 -3
BITMAP
002000
002000
002000
FFFFF8
000000
000000
07FF80
040180
040180
040180
040180
07FF80
000000
000000
000000
3FFFE0
200020
200020
200020
23FE20
230220
230220
230220
230220
230220
23FE20
200020
200020
200020
200020
ENDCHAR
STARTCHAR 2FBD
ENCODING 12221
SWIDTH 750 0
DWIDTH 25 0
BBX 23 30 1 -3
BITMAP
000008
000018
3FE030
300060
300040
300180
3FC200
300000
300000
300004
300008
3FE018
300030
300060
3000C0
300100
FFF600
0C0000
0C0000
180006
18800C
10800C
104018
204030
206060
43A0C0
7E2180
702200
000C00
001000
ENDCHAR
STARTCHAR 2FBE
ENCODING 12222
SWIDTH 720 0
DWIDTH 24 0
BBX 18 31 3 -3
BITMAP
800040
800040
BFFF40
840440
840440
840440
840440
BF3F40
840440
840440
840440
840440
BFFF40
800040
800040
800040
800040
800040
800040
800040
800040
800040
800040
800040
800040
800040
800040
800040
800040
800040
800040
ENDCHAR
STARTCHAR 2FBF
ENCODING 12223
SWIDTH 720 0
DWIDTH 24 0
BBX 18 29 3 -1
BITMAP
010C00
D08C40
CCD840
C23040
D12440
D0C440
C8E240
C9B240
C21840
C48C40
C84C40
D06640
C00040
FFFFC0
FFFFC0
000000
200000
200380
200700
203C00
20F000
278000
380000
200000
200000
200040
200040
3FFFC0
1FFFC0
ENDCHAR
STARTCHAR 2FC0
ENCODING 12224
SWIDTH 750 0
DWIDTH 25 0
BBX 21 29 2 -2
BITMAP
FFFFF8
000000
000000
000000
07FF00
040100
040100
040100
040100
07FF00
000000
000000
000000
7FFFE0
600020
620620
610420
618C20
608820
6FFFA0
67FF20
602020
602020
602020
602020
602020
602020
602020
400020
ENDCHAR
STARTCHAR 2FC1
ENCODING 12225
SWIDTH 750 0
DWIDTH 25 0
BBX 22 31 1 -3
BITMAP
006000
006000
004000
004000
1FFFC0
102040
102040
102040
102040
1FFFC0
102040
102040
102040
106040
106040
1FFFC0
006000
005000
00D880
00D980
009980
019920
011910
031A30
021BD8
061B18
0C1800
181804
300FFC
400FFC
800000
ENDCHAR
STARTCHAR 2FC5
ENCODING 12229
SWIDTH 750 0
DWIDTH 25 0
BBX 23 31 1 -4
BITMAP
000800
000800
000800
1FFFF8
1FFFF0
184200
184200
184200
1FFFF0
184210
184210
184210
184210
184210
1FFFF0
100000
110200
118300
118308
118338
318370
31FBC0
218300
218300
218300
218300
418300
418304
8183FE
8181FE
008000
ENDCHAR
STARTCHAR 2FC6
ENCODING 12230
SWIDTH 720 0
DWIDTH 24 0
BBX 21 31 2 -3
BITMAP
004000
006000
006000
FFFFE0
006000
086100
186300
106300
306300
286580
2C64C0
46E860
81F060
036800
066600
086300
3141C0
430078
83FF10
07FF00
040700
0C0600
180C00
121C00
219800
007000
00F800
018600
060300
180080
600000
ENDCHAR
STARTCHAR 2FC7
ENCODING 12231
SWIDTH 720 0
DWIDTH 24 0
BBX 22 30 1 -2
BITMAP
000400
000400
000400
1FFFFC
180000
18C040
18C040
18C040
18C040
18C040
1FFFFC
1BC350
1BC350
1BC350
12E250
12D250
12DA58
12CA48
16CA48
34C448
34C448
34C444
28C844
28C844
20C840
40C040
40C040
40C040
80C040
80C040
ENDCHAR
STARTCHAR 2FC9
ENCODING 12233
SWIDTH 720 0
DWIDTH 24 0
BBX 22 31 1 -2
BITMAP
0000C0
0007C0
007F00
1FF800
003000
003FF8
7FFFF8
013000
033C00
063300
0420C0
083070
103038
207008
C0C800
018600
060380
0C20E0
10317C
623308
833600
01B400
00B000
003000
00B800
013600
063180
1C30C0
103060
003000
002000
ENDCHAR
STARTCHAR 2FCA
ENCODING 12234
SWIDTH 750 0
DWIDTH 25 0
BBX 21 30 2 -2
BITMAP
1FFFC0
183040
183040
183140
1A3340
193240
19B440
18B840
183040
183040
1FFFC0
003000
003000
003000
003000
3FFFE0
003000
003000
003000
003000
FFFFF8
000000
000000
110840
108860
208420
208430
60C638
40C618
400010
ENDCHAR
STARTCHAR 2FCB
ENCODING 12235
SWIDTH 750 0
DWIDTH 25 0
BBX 23 30 1 -3
BITMAP
004620
084630
044620
064640
064680
004600
FFFFFE
7FFFFC
001840
0218C0
011980
019900
001A00
0FFFF0
0FFFF0
08D810
08D810
08D810
08DA10
089A10
089910
099910
091990
091990
0A1890
0A1890
0C1810
081810
081810
081010
ENDCHAR
STARTCHAR 2FCD
ENCODING 12237
SWIDTH 750 0
DWIDTH 25 0
BBX 20 30 2 -3
BITMAP
03FE00
020600
020600
020600
23FE20
220620
220620
220620
23FE20
220620
220620
23FE20
200020
200020
200020
3F8FE0
3F8FE0
018800
018800
FF8FF0
198810
198810
318810
318810
318810
318810
618810
418810
818810
010800
ENDCHAR
STARTCHAR 2FCE
ENCODING 12238
SWIDTH 750 0
DWIDTH 25 0
BBX 23 30 1 -2
BITMAP
020040
020040
020040
FFF040
020040
020FFE
020040
7FE040
7FE040
000040
000040
3FCFFC
20420C
20420C
204208
204218
204318
204110
3FC1B0
0000B0
00C0E0
20C040
1080E0
1880E0
1D0130
0D2318
02C618
0F040C
F00806
001002
ENDCHAR
STARTCHAR 2FCF
ENCODING 12239
SWIDTH 720 0
DWIDTH 24 0
BBX 20 30 3 -2
BITMAP
060000
387F00
C00100
C00100
C00100
C00100
FE7F00
C00100
C00100
C00100
FFFF00
000000
000000
818100
C18100
C99100
CD9900
C58900
C18100
C18100
C18100
C99100
CD9980
C58980
C18180
C18080
C180C0
C18070
C18030
408000
ENDCHAR
STARTCHAR 2FD0
ENCODING 12240
SWIDTH 720 0
DWIDTH 24 0
BBX 22 30 1 -2
BITMAP
002000
002000
07FF80
060080
07FF80
060080
060080
07FF80
060080
07FF80
000000
000000
0FFFE0
081060
081060
081060
0FFFE0
081060
081060
0FFFE0
000000
000000
FFFFFC
010200
030200
030200
020200
040200
080200
100200
ENDCHAR
STARTCHAR 2FD3
ENCODING 12243
SWIDTH 750 0
DWIDTH 25 0
BBX 23 29 1 -2
BITMAP
020400
020600
7FE7FC
000600
10C600
18C7F8
0C87F8
0D0008
FFF008
FFF008
000008
0007F8
1FC600
10C600
10C7F8
10C600
10C600
1FC600
10C7F8
10C600
10C600
10C600
1FC7FC
10C600
10C600
10C600
10C604
10C3FE
10C000
ENDCHAR
STARTCHAR 2FD5
ENCODING 12245
SWIDTH 720 0
DWIDTH 24 0
BBX 22 30 1 -2
BITMAP
003000
006000
00D000
018C00
030600
060380
0BFEE0
33FE7C
400018
800000
3EF9E0
228920
228920
228920
3EF9E0
000000
000000
1FFFC0
108440
108440
108440
108440
1FFFC0
108440
108440
108440
108440
108440
108440
108440
ENDCHAR
STARTCHAR 3000
ENCODING 12288
SWIDTH 990 0
DWIDTH 33 0
BBX 0 0 0 0
BITMAP
ENDCHAR
STARTCHAR 3001
ENCODING 12289
SWIDTH 750 0
DWIDTH 25 0
BBX 4 5 1 -2
BITMAP
80
40
60
30
30
ENDCHAR
STARTCHAR 3002
ENCODING 12290
SWIDTH 720 0
DWIDTH 24 0
BBX 4 4 1 -2
BITMAP
E0
B0
90
F0
ENDCHAR
STARTCHAR 3005
ENCODING 12293
SWIDTH 750 0
DWIDTH 25 0
BBX 19 29 3 -1
BITMAP
010000
030000
030000
020000
020000
020000
07FFE0
040060
0400C0
0C00C0
080080
080180
100100
100300
200200
200600
400400
800400
800800
020800
011000
009000
006000
002000
001000
000800
000C00
000600
000200
ENDCHAR
STARTCHAR 3007
ENCODING 12295
SWIDTH 720 0
DWIDTH 24 0
BBX 20 25 2 0
BITMAP
01F800
079E00
0C0300
180180
3000C0
600040
600060
400020
C00030
800030
800010
800010
800010
800010
800010
800030
C00030
C00020
400060
600040
3000C0
100180
1C0300
060E00
03FC00
ENDCHAR
STARTCHAR 3008
ENCODING 12296
SWIDTH 750 0
DWIDTH 25 0
BBX 6 28 18 -1
BITMAP
04
0C
0C
08
18
10
30
30
20
60
60
40
C0
C0
C0
C0
40
60
60
20
30
10
10
18
08
08
0C
04
ENDCHAR
STARTCHAR 3009
ENCODING 12297
SWIDTH 750 0
DWIDTH 25 0
BBX 6 28 1 -1
BITMAP
80
C0
40
40
60
20
20
30
10
18
18
08
0C
0C
0C
0C
08
18
18
10
30
30
20
60
40
C0
C0
80
ENDCHAR
STARTCHAR 300A
ENCODING 12298
SWIDTH 720 0
DWIDTH 24 0
BBX 10 28 13 -1
BITMAP
0440
0CC0
0C80
0980
1980
1100
3300
3300
2200
6600
6400
4C00
CC00
C800
C800
CC00
4400
6400
6600
2200
3300
1300
1100
1980
0980
0880
0CC0
0440
ENDCHAR
STARTCHAR 300B
ENCODING 12299
SWIDTH 720 0
DWIDTH 24 0
BBX 10 28 1 -1
BITMAP
8800
CC00
4400
6400
6600
2200
3200
3300
1100
1980
0980
0880
0CC0
04C0
04C0
0CC0
0C80
1980
1980
1100
3300
3300
2200
6600
6400
4C00
CC00
8800
ENDCHAR
STARTCHAR 300C
ENCODING 12300
SWIDTH 750 0
DWIDTH 25 0
BBX 4 23 20 5
BITMAP
F0
80
80
80
80
80
80
80
80
80
80
80
80
80
80
80
80
80
80
80
80
80
80
ENDCHAR
STARTCHAR 300D
ENCODING 12301
SWIDTH 720 0
DWIDTH 24 0
BBX 4 23 1 0
BITMAP
10
10
10
10
10
10
10
10
10
10
10
10
10
10
10
10
10
10
10
10
10
10
F0
ENDCHAR
STARTCHAR 300E
ENCODING 12302
SWIDTH 750 0
DWIDTH 25 0
BBX 6 23 18 3
BITMAP
FC
BC
A0
A0
A0
A0
A0
A0
A0
A0
A0
A0
A0
A0
A0
A0
A0
A0
A0
A0
A0
A0
C0
ENDCHAR
STARTCHAR 300F
ENCODING 12303
SWIDTH 750 0
DWIDTH 25 0
BBX 6 23 2 0
BITMAP
0C
14
14
14
14
14
14
14
14
14
14
14
14
14
14
14
14
14
14
14
F4
84
FC
ENDCHAR
STARTCHAR 3010
ENCODING 12304
SWIDTH 720 0
DWIDTH 24 0
BBX 2 28 21 -1
BITMAP
C0
C0
C0
C0
C0
C0
C0
80
80
80
80
80
80
80
80
80
80
80
80
80
80
C0
C0
C0
C0
C0
C0
C0
ENDCHAR
STARTCHAR 3011
ENCODING 12305
SWIDTH 720 0
DWIDTH 24 0
BBX 3 28 1 -1
BITMAP
E0
60
60
60
60
60
60
60
60
20
20
20
20
20
20
20
20
20
20
60
60
60
60
60
60
60
60
E0
ENDCHAR
STARTCHAR 3016
ENCODING 12310
SWIDTH 720 0
DWIDTH 24 0
BBX 4 28 19 0
BITMAP
F0
90
90
90
90
B0
B0
A0
A0
A0
A0
A0
A0
A0
A0
A0
A0
A0
A0
A0
A0
B0
B0
90
90
90
90
F0
ENDCHAR
STARTCHAR 3017
ENCODING 12311
SWIDTH 750 0
DWIDTH 25 0
BBX 5 28 1 0
BITMAP
F8
48
48
48
48
48
68
68
68
28
28
28
28
28
28
28
28
28
28
68
68
68
48
48
48
48
48
F8
ENDCHAR
STARTCHAR 306E
ENCODING 12398
SWIDTH 750 0
DWIDTH 25 0
BBX 19 26 3 -1
BITMAP
03F000
0F7C00
184600
304300
204180
604080
4040C0
404040
C04040
804060
804060
804020
804020
80C020
80C020
80C020
80C060
C0C060
C0C060
C08040
4080C0
618080
618180
310300
1B0600
0E0C00
ENDCHAR
STARTCHAR 30FB
ENCODING 12539
SWIDTH 720 0
DWIDTH 24 0
BBX 1 1 12 9
BITMAP
80
ENDCHAR
STARTCHAR 4E00
ENCODING 19968
SWIDTH 750 0
DWIDTH 25 0
BBX 21 1 2 15
BITMAP
FFFFF8
ENDCHAR
STARTCHAR 4E01
ENCODING 19969
SWIDTH 750 0
DWIDTH 25 0
BBX 21 28 2 -4
BITMAP
FFFFF8
001000
001000
001000
001000
001000
001000
001000
001000
001000
001000
001000
001000
001000
001000
001000
001000
001000
001000
001000
001000
001000
001000
001000
001000
001000
00F000
001000
ENDCHAR
STARTCHAR 4E03
ENCODING 19971
SWIDTH 750 0
DWIDTH 25 0
BBX 21 30 2 -3
BITMAP
008000
00C000
00C000
00C000
00C000
00C000
00C000
00C008
00C0F0
00C7E0
00FE00
03F000
3FC000
F8C000
00C000
00C000
00C000
00C000
00C000
00C000
00C000
00C000
00C000
00C000
00C000
00C000
00C000
00C010
00C010
007FF8
ENDCHAR
STARTCHAR 4E07
ENCODING 19975
SWIDTH 720 0
DWIDTH 24 0
BBX 21 28 2 -4
BITMAP
FFFFF8
020000
020000
020000
020000
020000
020000
020000
03FF80
020080
060080
060080
060080
060080
060080
060080
0C0080
0C0080
0C0080
080080
180080
180080
100080
200080
200080
400080
800080
000080
ENDCHAR
STARTCHAR 4E08
ENCODING 19976
SWIDTH 720 0
DWIDTH 24 0
BBX 20 30 2 -3
BITMAP
000800
000800
000800
000800
000800
000800
FFFFF0
000800
000800
000800
080800
080800
041800
041800
021800
031000
011000
00B000
00F000
006000
006000
00F000
009800
018C00
030600
060300
0C01C0
1000E0
200030
400000
ENDCHAR
STARTCHAR 4E09
ENCODING 19977
SWIDTH 750 0
DWIDTH 25 0
BBX 21 25 2 0
BITMAP
3FFFE0
000000
000000
000000
000000
000000
000000
000000
000000
000000
000000
0FFF80
000000
000000
000000
000000
000000
000000
000000
000000
000000
000000
000000
000000
FFFFF8
ENDCHAR
STARTCHAR 4E0A
ENCODING 19978
SWIDTH 750 0
DWIDTH 25 0
BBX 21 29 2 0
BITMAP
004000
006000
006000
006000
006000
006000
006000
006000
006000
006000
007FE0
006000
006000
006000
006000
006000
006000
006000
006000
006000
006000
006000
006000
006000
006000
006000
006000
FFFFF8
FFFFF8
ENDCHAR
STARTCHAR 4E0B
ENCODING 19979
SWIDTH 750 0
DWIDTH 25 0
BBX 21 28 2 -4
BITMAP
FFFFF8
006000
006000
006000
006000
006000
006000
006000
006400
006200
006300
006180
006080
0060C0
006060
006020
006000
006000
006000
006000
006000
006000
006000
006000
006000
006000
006000
004000
ENDCHAR
STARTCHAR 4E0C
ENCODING 19980
SWIDTH 720 0
DWIDTH 24 0
BBX 22 28 1 -4
BITMAP
FFFFFC
010100
010100
010100
010100
010100
010100
010100
010100
010100
030100
030100
030100
030100
020100
020100
060100
060100
040100
040100
0C0100
080100
180100
100100
300100
200100
400100
800100
ENDCHAR
STARTCHAR 4E0D
ENCODING 19981
SWIDTH 720 0
DWIDTH 24 0
BBX 20 28 2 -3
BITMAP
FFFFE0
006000
004000
00C000
008000
008000
01E000
016000
036400
026200
066100
046100
086080
1860C0
106040
206060
406030
806010
006000
006000
006000
006000
006000
006000
006000
006000
006000
006000
ENDCHAR
STARTCHAR 4E0E
ENCODING 19982
SWIDTH 720 0
DWIDTH 24 0
BBX 19 30 2 -3
BITMAP
080000
0C0000
0C0000
0C0000
0FFFE0
0C0000
0C0000
0C0000
0C0000
0C0000
0C0000
0FFFC0
0FFFC0
000040
000040
000040
000040
000040
000040
FFFE40
000040
000040
000040
000040
000040
000040
000040
000040
000040
000040
ENDCHAR
STARTCHAR 4E10
ENCODING 19984
SWIDTH 720 0
DWIDTH 24 0
BBX 21 29 1 -3
BITMAP
FFFFF8
003000
003000
003000
003000
103000
103000
103FE0
103000
103000
103000
103000
103000
1FFFE0
1FFFE0
000020
000020
000020
000020
000020
000020
000020
000020
000020
000020
000020
000020
000020
000020
ENDCHAR
STARTCHAR 4E11
ENCODING 19985
SWIDTH 750 0
DWIDTH 25 0
BBX 23 28 1 -2
BITMAP
1FFFC0
00C040
00C040
00C040
00C040
00C040
00C040
00C040
008040
008040
008040
008040
1FFFC0
018040
018040
018040
018040
018040
018040
010040
010040
010040
010040
030040
030040
030040
030040
FFFFFE
ENDCHAR
STARTCHAR 4E13
ENCODING 19987
SWIDTH 720 0
DWIDTH 24 0
BBX 22 29 1 -2
BITMAP
003000
003000
003000
3FFFE0
006000
004000
00C000
00C000
008000
FFFFFC
018000
030000
030000
030000
060000
07FFC0
0000C0
000080
000180
000100
000300
040200
030600
008400
006800
003800
001C00
000600
000300
ENDCHAR
STARTCHAR 4E14
ENCODING 19988
SWIDTH 720 0
DWIDTH 24 0
BBX 22 28 1 -2
BITMAP
07FF80
040080
040080
040080
040080
040080
040080
040080
07FF80
040080
040080
040080
040080
040080
040080
040080
040080
07FF80
040080
040080
040080
040080
040080
040080
040080
040080
040080
FFFFFC
ENDCHAR
STARTCHAR 4E15
ENCODING 19989
SWIDTH 750 0
DWIDTH 25 0
BBX 23 28 1 -2
BITMAP
7FFFFC
001000
003000
003000
002000
006000
006000
00D000
00D800
019A00
011900
031880
021840
041820
0C1830
181818
301808
20180C
401800
001800
001800
001800
001800
001800
001800
001000
000000
FFFFFE
ENDCHAR
STARTCHAR 4E16
ENCODING 19990
SWIDTH 720 0
DWIDTH 24 0
BBX 22 28 1 0
BITMAP
002080
002080
082080
0C2080
0C2080
0C2080
0C2080
FFFFFC
0C2080
0C2080
0C2080
0C2080
0C2080
0C2080
0C2080
0C2080
0C2080
0C2080
0C2080
0C3F80
0C3F80
0C0000
0C0000
0C0000
0C0000
0C0000
0FFFF8
0FFFF0
ENDCHAR
STARTCHAR 4E18
ENCODING 19992
SWIDTH 720 0
DWIDTH 24 0
BBX 22 29 1 -2
BITMAP
000060
0003C0
001E00
07E000
060000
060000
060000
060000
060000
060000
060000
07FFF8
07FFF0
060100
060100
060100
060100
060100
060100
060100
060100
060100
060100
060100
060100
060100
060100
060100
FFFFFC
ENDCHAR
STARTCHAR 4E19
ENCODING 19993
SWIDTH 750 0
DWIDTH 25 0
BBX 21 29 2 -2
BITMAP
FFFFF8
001000
001000
001000
001000
001000
3FFFE0
303020
303020
303020
302020
306020
306020
307020
30C820
308420
318620
310220
320320
340120
300020
300020
300020
300020
300020
300020
300020
300020
200000
ENDCHAR
STARTCHAR 4E1A
ENCODING 19994
SWIDTH 750 0
DWIDTH 25 0
BBX 22 28 1 -1
BITMAP
008400
008400
008400
008400
008400
008400
208420
208420
108420
108420
108460
088460
088440
088440
088440
0C8480
0C8480
048500
048500
008400
008400
008400
008400
008400
008400
008400
008400
FFFFFC
ENDCHAR
STARTCHAR 4E1B
ENCODING 19995
SWIDTH 750 0
DWIDTH 25 0
BBX 23 30 1 -2
BITMAP
020100
020100
020100
020100
020100
020100
020100
020300
020300
020380
070380
070380
068280
068280
06C640
064640
044440
046460
046C60
0C2820
080830
081030
101030
102018
204018
204008
000000
000000
FFFFFE
FFFFFE
ENDCHAR
STARTCHAR 4E1C
ENCODING 19996
SWIDTH 750 0
DWIDTH 25 0
BBX 22 30 1 -2
BITMAP
004000
00C000
008000
7FFFFC
018000
010000
030000
031000
061800
061800
061800
0C1800
0C1800
0FFFF0
001800
001800
001800
031800
031880
021840
061860
061820
0C1830
081810
181818
101818
20180C
401800
801800
001000
ENDCHAR
STARTCHAR 4E1D
ENCODING 19997
SWIDTH 720 0
DWIDTH 24 0
BBX 21 29 2 -1
BITMAP
060300
060300
040200
0C0200
0C0200
080600
184420
10C460
10C860
208840
209040
5F9FC0
791C80
030080
020180
020100
040300
0C0200
080600
100400
300800
218860
7E1F80
701C00
000000
000000
000000
FFFFF8
FFFFF8
ENDCHAR
STARTCHAR 4E1E
ENCODING 19998
SWIDTH 750 0
DWIDTH 25 0
BBX 23 29 1 -1
BITMAP
07FFC0
0000C0
000180
000300
000600
000408
000C18
000830
3F8820
008C60
018AC0
018B00
018900
010900
030880
0308C0
020860
060820
040830
0C0818
18080C
100806
200802
400800
800800
000800
000000
7FFFFE
7FFFFE
ENDCHAR
STARTCHAR 4E22
ENCODING 20002
SWIDTH 720 0
DWIDTH 24 0
BBX 22 30 1 -4
BITMAP
0000E0
007F80
3FE000
002000
002000
002000
002000
002000
1FFFE0
002000
002000
002000
002000
002000
FFFFFC
FFFFFC
00C000
008000
008000
018000
010200
030100
030100
020080
0600C0
040040
0801E0
083E20
1FE030
1C0030
ENDCHAR
STARTCHAR 4E24
ENCODING 20004
SWIDTH 750 0
DWIDTH 25 0
BBX 21 29 2 -2
BITMAP
FFFFF8
010400
010400
010400
010400
010400
3FFFE0
310420
310420
310420
310420
310420
338C20
33CE20
334A20
326920
326920
3269A0
3411A0
3420A0
3820E0
384020
300020
300020
300020
300020
300020
300020
200000
ENDCHAR
STARTCHAR 4E25
ENCODING 20005
SWIDTH 720 0
DWIDTH 24 0
BBX 23 28 1 -4
BITMAP
1FFFFC
002300
002300
002310
042330
022320
032320
032340
002300
002300
1FFFFE
1FFFF8
180000
180000
180000
180000
180000
180000
100000
100000
100000
100000
300000
200000
200000
400000
400000
800000
ENDCHAR
STARTCHAR 4E27
ENCODING 20007
SWIDTH 750 0
DWIDTH 25 0
BBX 23 30 1 -3
BITMAP
003000
003000
003000
3FFFF8
003000
003000
0830C0
043080
063180
023100
023200
003000
FFFFFE
FFFFFC
030000
030018
032038
031030
031060
0308C0
030D00
030400
030200
030300
030180
0300C0
030060
030038
03001C
030004
ENDCHAR
STARTCHAR 4E28
ENCODING 20008
SWIDTH 750 0
DWIDTH 25 0
BBX 1 31 12 -3
BITMAP
80
80
80
80
80
80
80
80
80
80
80
80
80
80
80
80
80
80
80
80
80
80
80
80
80
80
80
80
80
80
80
ENDCHAR
STARTCHAR 4E2A
ENCODING 20010
SWIDTH 750 0
DWIDTH 25 0
BBX 22 30 1 -2
BITMAP
003000
003000
006800
004800
00C400
018200
030100
020180
0400C0
081070
101038
20100C
401004
801000
001000
001000
001000
001000
001000
001000
001000
001000
001000
001000
001000
001000
001000
001000
001000
001000
ENDCHAR
STARTCHAR 4E2B
ENCODING 20011
SWIDTH 720 0
DWIDTH 24 0
BBX 16 30 5 -3
BITMAP
0003
8002
C006
4004
200C
3008
1010
1810
0020
0100
0100
0100
0100
0100
0100
0100
0100
0100
0100
0100
0100
0100
0100
0100
0100
0100
0100
0100
0100
0100
ENDCHAR
STARTCHAR 4E2C
ENCODING 20012
SWIDTH 720 0
DWIDTH 24 0
BBX 13 30 4 -3
BITMAP
0008
0008
0008
0008
2008
1008
0808
0408
0608
0308
0008
0008
0008
0018
0068
00C8
0388
0608
1C08
7008
C008
0008
0008
0008
0008
0008
0008
0008
0008
0008
ENDCHAR
STARTCHAR 4E2D
ENCODING 20013
SWIDTH 750 0
DWIDTH 25 0
BBX 19 31 3 -3
BITMAP
004000
004000
004000
004000
004000
004000
004000
FFFFE0
804020
804020
804020
804020
804020
804020
804020
804020
FFFFE0
004000
004000
004000
004000
004000
004000
004000
004000
004000
004000
004000
004000
004000
004000
ENDCHAR
STARTCHAR 4E30
ENCODING 20016
SWIDTH 720 0
DWIDTH 24 0
BBX 22 30 1 -3
BITMAP
002000
002000
002000
002000
002000
3FFFF0
002000
002000
002000
002000
002000
1FFFE0
002000
002000
002000
002000
002000
002000
FFFFFC
002000
002000
002000
002000
002000
002000
002000
002000
002000
002000
002000
ENDCHAR
STARTCHAR 4E32
ENCODING 20018
SWIDTH 750 0
DWIDTH 25 0
BBX 19 30 3 -3
BITMAP
004000
004000
004000
004000
3FFF80
204080
204080
204080
204080
3FFF80
004000
004000
004000
004000
FFFFE0
804020
804020
804020
804020
804020
FFFFE0
004000
004000
004000
004000
004000
004000
004000
004000
004000
ENDCHAR
STARTCHAR 4E34
ENCODING 20020
SWIDTH 720 0
DWIDTH 24 0
BBX 20 31 2 -3
BITMAP
081000
083000
0C3000
0C3000
0C3000
0C3FF0
0C3FE0
8C6000
8C4400
8C4200
8C8300
8C8100
8D0180
8C0080
8C0000
8C0000
8C7FE0
8C4220
8C4220
8C4220
8C4220
8C4220
8C4220
8C4220
0C4220
0C4220
0C4220
0C4220
0C4220
0C7FE0
080000
ENDCHAR
STARTCHAR 4E36
ENCODING 20022
SWIDTH 720 0
DWIDTH 24 0
BBX 6 8 9 10
BITMAP
80
40
20
30
18
18
0C
0C
ENDCHAR
STARTCHAR 4E38
ENCODING 20024
SWIDTH 720 0
DWIDTH 24 0
BBX 21 29 2 -2
BITMAP
020000
020000
020000
020000
020000
FFFF00
020300
020300
020300
020300
020300
220300
1E0300
060300
070300
078300
04C300
046300
0C0300
0C0300
080300
080300
100300
100300
200300
200300
400310
800318
0001F8
ENDCHAR
STARTCHAR 4E39
ENCODING 20025
SWIDTH 720 0
DWIDTH 24 0
BBX 22 29 1 -2
BITMAP
07FF80
060080
060080
060080
064080
062080
063080
061880
061880
060880
060080
060080
FFFFFC
060080
060080
060080
040080
040080
0C0080
0C0080
080080
080080
180080
100080
100080
200080
200080
400080
800080
ENDCHAR
STARTCHAR 4E3A
ENCODING 20026
SWIDTH 720 0
DWIDTH 24 0
BBX 18 30 2 -4
BITMAP
010000
410000
210000
110000
190000
010000
010000
FFFFC0
010040
010040
010040
010040
030040
030040
032040
031040
020840
020C40
060640
060640
040040
0C0040
0C0040
080040
180040
100040
200040
200040
400040
800040
ENDCHAR
STARTCHAR 4E3B
ENCODING 20027
SWIDTH 750 0
DWIDTH 25 0
BBX 21 29 2 -1
BITMAP
008000
004000
002000
003000
000000
3FFFE0
002000
002000
002000
002000
002000
002000
002000
002000
002000
1FFFC0
002000
002000
002000
002000
002000
002000
002000
002000
002000
002000
002000
002000
FFFFF8
ENDCHAR
STARTCHAR 4E3D
ENCODING 20029
SWIDTH 720 0
DWIDTH 24 0
BBX 22 29 1 -2
BITMAP
FFFFFC
000000
000000
000000
000000
000000
3FCFF0
304C10
304C10
304C10
304C10
304C10
304C10
344D10
344D10
324C90
324C90
324C90
324C90
304C10
304C10
304C10
304C10
304C10
304C10
304C10
304C10
304C10
204810
ENDCHAR
STARTCHAR 4E3E
ENCODING 20030
SWIDTH 750 0
DWIDTH 25 0
BBX 21 30 2 -3
BITMAP
004080
084080
082100
042100
040200
8007F8
7FFFF8
030200
030200
062100
042180
0820C0
102060
17FFB0
602018
002008
002000
002000
002000
002000
7FFFF8
002000
002000
002000
002000
002000
002000
002000
002000
002000
ENDCHAR
STARTCHAR 4E3F
ENCODING 20031
SWIDTH 750 0
DWIDTH 25 0
BBX 8 30 5 -3
BITMAP
01
01
01
01
01
01
01
01
01
01
01
01
01
01
01
03
03
03
02
02
06
06
04
0C
08
18
10
20
40
80
ENDCHAR
STARTCHAR 4E43
ENCODING 20035
SWIDTH 750 0
DWIDTH 25 0
BBX 20 29 2 -3
BITMAP
7FFFC0
0200C0
020080
020180
020300
020300
020600
020600
020C00
020FF0
020010
060010
060010
060010
060010
040010
040010
0C0010
0C0010
0C0010
080010
180010
100010
100010
200010
200010
400010
800010
000010
ENDCHAR
STARTCHAR 4E45
ENCODING 20037
SWIDTH 750 0
DWIDTH 25 0
BBX 22 30 2 -2
BITMAP
030000
030000
030000
020000
07FF00
07FF00
040200
0C0600
080600
080400
100C00
100C00
200800
401800
401400
003400
006600
006200
00C200
008300
018100
030180
0200C0
0400C0
080060
100060
200030
400018
80001C
000008
ENDCHAR
STARTCHAR 4E47
ENCODING 20039
SWIDTH 750 0
DWIDTH 25 0
BBX 21 30 2 -2
BITMAP
000080
000380
001E00
01F000
1E6000
206000
006000
006000
006000
006000
006000
006078
006FF0
03FE00
7FE000
F06000
006000
006000
006000
006000
006000
006000
006000
006000
006000
006000
006000
006010
007FF8
003FF8
ENDCHAR
STARTCHAR 4E48
ENCODING 20040
SWIDTH 750 0
DWIDTH 25 0
BBX 20 30 3 -2
BITMAP
002000
006000
006000
00C000
00C000
008000
018000
018400
030400
020800
060800
040800
0C1000
081000
102000
202000
406000
804000
00C000
008000
010200
030100
020180
040080
0C00C0
1800C0
300F60
3FF860
7F8030
000030
ENDCHAR
STARTCHAR 4E49
ENCODING 20041
SWIDTH 720 0
DWIDTH 24 0
BBX 22 30 1 -2
BITMAP
008000
004000
002020
002060
083060
081040
0800C0
0400C0
040080
040180
020180
020300
010300
010600
008600
00CC00
004C00
007800
003000
003000
007800
00CC00
008600
010380
0201C0
0400E0
080070
10001C
200008
C00000
ENDCHAR
STARTCHAR 4E4B
ENCODING 20043
SWIDTH 750 0
DWIDTH 25 0
BBX 21 30 2 -3
BITMAP
002000
002000
002000
002000
3FFFE0
3FFFE0
000060
0000C0
000180
000300
000300
000600
000C00
000C00
001800
003000
006000
006000
00C000
018000
030000
030000
060000
0C0000
080000
180000
380000
6E0000
43FFF8
C00000
ENDCHAR
STARTCHAR 4E4C
ENCODING 20044
SWIDTH 720 0
DWIDTH 24 0
BBX 19 30 1 -3
BITMAP
006000
006000
004000
0FFF00
0FFF00
080100
080100
080100
080100
080100
080100
080100
080000
080000
0FFFE0
000020
000020
000020
000020
000020
000020
FFFF20
000020
000020
000020
000020
000020
000020
000020
000020
ENDCHAR
STARTCHAR 4E4D
ENCODING 20045
SWIDTH 720 0
DWIDTH 24 0
BBX 21 31 2 -4
BITMAP
040000
0C0000
0C0000
080000
180000
1FFFF8
10C000
20C000
20C000
40C000
80C000
00FFC0
00C000
00C000
00C000
00C000
00C000
00C000
00FFF0
00C000
00C000
00C000
00C000
00C000
00C000
00C000
00C000
00C000
00C000
00C000
008000
ENDCHAR
STARTCHAR 4E4E
ENCODING 20046
SWIDTH 720 0
DWIDTH 24 0
BBX 22 30 1 -3
BITMAP
000060
0007C0
007E00
3FF000
003000
003060
103040
0830C0
043080
043180
063100
023200
003000
FFFFFC
FFFFFC
003000
003000
003000
003000
003000
003000
003000
003000
003000
003000
003000
003000
003000
003000
003000
ENDCHAR
STARTCHAR 4E4F
ENCODING 20047
SWIDTH 720 0
DWIDTH 24 0
BBX 21 30 2 -3
BITMAP
0000C0
0007C0
003E00
07E000
380000
002000
002000
002000
002000
3FFFC0
0FFFC0
000180
000300
000600
000600
000C00
001800
003000
006000
00C000
018000
030000
020000
060000
0C0000
180000
380000
6E0000
C3FFF8
800000
ENDCHAR
STARTCHAR 4E50
ENCODING 20048
SWIDTH 720 0
DWIDTH 24 0
BBX 22 31 1 -3
BITMAP
0000C0
0003C0
003E00
07E000
0C0000
0C0000
0C1800
0C1800
0C1800
0C1800
0C1800
0C1800
0C1800
0FFFF8
0FFFF0
001800
001800
031800
031880
021840
061820
041830
0C1810
081818
181808
30180C
201804
401800
801800
001800
001000
ENDCHAR
STARTCHAR 4E52
ENCODING 20050
SWIDTH 720 0
DWIDTH 24 0
BBX 22 31 1 -4
BITMAP
000040
0001C0
000F00
00F800
070000
060000
060000
060000
060000
07FFF0
07FFC0
060200
060200
060200
060200
060200
060200
060200
060200
FFFFFC
000000
000000
008000
018000
010000
030000
060000
040000
080000
100000
200000
ENDCHAR
STARTCHAR 4E53
ENCODING 20051
SWIDTH 720 0
DWIDTH 24 0
BBX 22 30 1 -3
BITMAP
000040
0001C0
000F00
00F000
070000
060000
060000
060000
060000
07FFF0
07FFC0
060200
060200
060200
060200
060200
060200
060200
060200
FFFFFC
000000
000000
000400
000200
000180
0000C0
000060
000030
000030
000018
ENDCHAR
STARTCHAR 4E54
ENCODING 20052
SWIDTH 750 0
DWIDTH 25 0
BBX 22 30 2 -2
BITMAP
0001C0
007F00
7FE000
006000
006000
006000
00C000
00C000
FFFFF8
7FFFE0
010400
030600
060300
040180
0800C0
120260
220238
42021C
82020C
020200
060200
060200
040200
040200
040200
0C0200
080200
100200
100200
200200
ENDCHAR
STARTCHAR 4E56
ENCODING 20054
SWIDTH 750 0
DWIDTH 25 0
BBX 21 30 2 -3
BITMAP
0003C0
00FE00
7FE000
002000
002000
002000
003FF8
FFFFF8
002000
002000
022200
022300
022310
7E2330
022360
022380
022300
022300
0E2310
7A2310
C22310
0223F8
0220F0
002000
002000
002000
002000
002000
002000
002000
ENDCHAR
STARTCHAR 4E58
ENCODING 20056
SWIDTH 750 0
DWIDTH 25 0
BBX 23 30 1 -3
BITMAP
000020
0003E0
007F00
3FF000
001000
001000
7FFFFC
7FFFFC
001000
011100
01118C
3F1198
0111E0
0111C0
011180
0F3988
793988
0175FC
0156FC
00D200
009300
011180
031080
061040
041060
081030
10101C
20100E
C01004
001000
ENDCHAR
STARTCHAR 4E59
ENCODING 20057
SWIDTH 720 0
DWIDTH 24 0
BBX 19 28 4 -4
BITMAP
FFFE00
000600
000400
000C00
001800
001800
003000
002000
006000
00C000
00C000
018000
030000
030000
060000
060000
0C0000
180000
180000
300000
300000
600000
C00000
C00000
800000
800040
C00040
7FFFE0
ENDCHAR
STARTCHAR 4E5C
ENCODING 20060
SWIDTH 750 0
DWIDTH 25 0
BBX 22 29 2 -2
BITMAP
040000
040000
040000
040000
040180
040780
041E80
04F080
07C080
0F0080
7C0080
E40080
040080
040080
040080
040080
040080
040080
040080
040000
040000
040000
040000
040000
040000
040000
040010
040008
07FFFC
ENDCHAR
STARTCHAR 4E5D
ENCODING 20061
SWIDTH 750 0
DWIDTH 25 0
BBX 23 30 1 -3
BITMAP
010000
010000
010000
010000
010000
010000
3FFF80
010180
010180
010180
010180
010180
010180
030180
030180
030180
020180
020180
020180
060180
040180
040180
0C0180
080180
080180
100180
100184
200184
4000FE
800000
ENDCHAR
STARTCHAR 4E5E
ENCODING 20062
SWIDTH 750 0
DWIDTH 25 0
BBX 23 30 1 -3
BITMAP
030000
070000
060000
060000
07FFFC
0FFFF0
080000
180000
100000
200000
400000
8FFF80
000180
000300
000600
000C00
000C00
001800
003000
006000
00C000
01C000
018000
030000
060000
0C0000
080000
080004
0C0004
07FFFE
ENDCHAR
STARTCHAR 4E5F
ENCODING 20063
SWIDTH 750 0
DWIDTH 25 0
BBX 23 30 1 -3
BITMAP
001000
001000
001000
001000
041000
0410E0
0413E0
041F20
047820
05F020
071020
3C1020
F41020
041020
041020
041020
041020
041020
041020
041020
041000
041000
041000
040000
040000
040000
040000
040004
040004
07FFFE
ENDCHAR
STARTCHAR 4E60
ENCODING 20064
SWIDTH 750 0
DWIDTH 25 0
BBX 17 28 3 -4
BITMAP
7FFF80
000080
000080
000080
080080
040080
020080
030080
018080
008080
00C080
000080
000080
001880
003080
006080
00C080
018080
060080
0C0080
380080
E00080
000080
000080
000080
000080
000080
000080
ENDCHAR
STARTCHAR 4E61
ENCODING 20065
SWIDTH 750 0
DWIDTH 25 0
BBX 19 31 3 -3
BITMAP
00C000
00C000
018000
010000
030200
020600
040400
0C0C00
081800
103800
3FF000
006000
00C000
008060
0100C0
0200C0
040180
080180
103F00
3FE600
000600
000C00
001800
003000
006000
018000
030000
040000
180000
600000
800000
ENDCHAR
STARTCHAR 4E66
ENCODING 20070
SWIDTH 720 0
DWIDTH 24 0
BBX 20 30 1 -3
BITMAP
008100
008080
0080C0
008060
3FFE30
008200
008200
008200
008200
008200
008200
008200
008200
008200
FFFFF0
008010
008010
008010
008010
008010
008010
008010
008010
008010
008010
008010
008010
008000
008000
008000
ENDCHAR
STARTCHAR 4E69
ENCODING 20073
SWIDTH 720 0
DWIDTH 24 0
BBX 22 29 2 -2
BITMAP
080400
0C0400
0C0400
0C0400
0C0400
0C0400
0FF400
0C0400
0C0400
0C0400
0C0400
0C0400
0C0400
0C0400
FFC400
FFC400
804400
804400
804400
804400
804400
804400
804400
804400
804400
804400
804408
804408
FFC7FC
ENDCHAR
STARTCHAR 4E70
ENCODING 20080
SWIDTH 750 0
DWIDTH 25 0
BBX 21 28 2 -4
BITMAP
7FFFC0
000040
100040
081040
041040
021040
031000
219000
101000
181000
0C1000
061000
021000
003000
003000
FFFFF8
002000
006000
006000
005000
00C800
018600
010300
020180
0400C0
080060
100030
600018
ENDCHAR
STARTCHAR 4E71
ENCODING 20081
SWIDTH 750 0
DWIDTH 25 0
BBX 23 29 1 -2
BITMAP
003100
00F100
03C100
1E0100
220100
020100
020100
020100
FFFD00
FFFD00
020100
020100
020100
020100
020100
020100
3FF100
201100
201100
201100
201100
201100
201100
201100
201100
201100
201104
201104
3FF1FE
ENDCHAR
STARTCHAR 4E73
ENCODING 20083
SWIDTH 720 0
DWIDTH 24 0
BBX 23 30 0 -3
BITMAP
000800
003900
03E180
3C0980
001980
031980
211180
11A180
182180
004180
000180
3FF180
003180
006180
00C180
008180
011980
016180
038180
3F0180
F90180
010180
010180
010180
010180
010180
010180
010184
010184
0100FE
ENDCHAR
STARTCHAR 4E7E
ENCODING 20094
SWIDTH 750 0
DWIDTH 25 0
BBX 23 30 1 -3
BITMAP
040100
060300
060300
060200
FFF600
0607FC
060400
060800
3FE800
3FE000
202000
2027F8
202018
3FE038
202030
202060
202060
3FE040
0600C0
060080
060180
060100
FFFB00
060200
060600
060400
060C00
060804
060C04
0607FE
ENDCHAR
STARTCHAR 4E86
ENCODING 20102
SWIDTH 720 0
DWIDTH 24 0
BBX 17 28 3 -4
BITMAP
FFFF80
000180
000300
000600
000C00
001800
003000
006000
004000
004000
004000
004000
004000
004000
004000
004000
004000
004000
004000
004000
004000
004000
004000
004000
004000
004000
004000
004000
ENDCHAR
STARTCHAR 4E88
ENCODING 20104
SWIDTH 750 0
DWIDTH 25 0
BBX 20 29 2 -3
BITMAP
3FFFC0
0001C0
000380
000200
000400
020800
019000
00E000
006000
003000
FFFFF0
002010
002010
002010
002010
002010
002000
002000
002000
002000
002000
002000
002000
002000
002000
002000
002000
002000
002000
ENDCHAR
STARTCHAR 4E89
ENCODING 20105
SWIDTH 720 0
DWIDTH 24 0
BBX 22 30 1 -3
BITMAP
030000
030000
07FE00
040600
0C0400
080C00
100800
201000
0FFFE0
002020
002020
002020
002020
FFFFFC
002020
002020
002020
002020
002020
1FFFE0
002000
002000
002000
002000
002000
002000
002000
002000
002000
002000
ENDCHAR
STARTCHAR 4E8B
ENCODING 20107
SWIDTH 750 0
DWIDTH 25 0
BBX 23 31 1 -3
BITMAP
001000
001000
001000
7FFFF8
001000
001000
001000
0FFFC0
081040
081040
081040
0FFFC0
001000
001000
001000
1FFFE0
001020
001020
001020
FFFFFE
001020
001020
001020
001020
1FFFE0
001000
001000
001000
001000
001000
001000
ENDCHAR
STARTCHAR 4E8C
ENCODING 20108
SWIDTH 720 0
DWIDTH 24 0
BBX 22 24 1 0
BITMAP
3FFFE0
000000
000000
000000
000000
000000
000000
000000
000000
000000
000000
000000
000000
000000
000000
000000
000000
000000
000000
000000
000000
000000
000000
FFFFFC
ENDCHAR
STARTCHAR 4E8D
ENCODING 20109
SWIDTH 750 0
DWIDTH 25 0
BBX 23 28 1 -4
BITMAP
1FFFF0
000000
000000
000000
000000
000000
000000
000000
FFFFFE
001000
001000
001000
001000
001000
001000
001000
001000
001000
001000
001000
001000
001000
001000
001000
001000
001000
001000
001000
ENDCHAR
STARTCHAR 4E8E
ENCODING 20110
SWIDTH 750 0
DWIDTH 25 0
BBX 21 28 2 -4
BITMAP
1FFFC0
002000
002000
002000
002000
002000
002000
002000
002000
002000
FFFFF8
002000
002000
002000
002000
002000
002000
002000
002000
002000
002000
002000
002000
002000
002000
002000
01E000
002000
ENDCHAR
STARTCHAR 4E8F
ENCODING 20111
SWIDTH 720 0
DWIDTH 24 0
BBX 22 28 1 -4
BITMAP
1FFFF0
000000
000000
000000
000000
000000
000000
FFFFFC
020000
020000
020000
020000
020000
020000
03FFC0
000040
000040
000040
000040
000040
000040
000040
000040
000040
000040
000040
000040
000040
ENDCHAR
STARTCHAR 4E91
ENCODING 20113
SWIDTH 720 0
DWIDTH 24 0
BBX 20 28 2 -4
BITMAP
1FFFC0
000000
000000
000000
000000
000000
000000
000000
000000
000000
FFFFF0
00C000
008000
018000
018000
010000
030000
030000
020400
060200
040100
040180
080080
0800C0
1007C0
21FC40
3FC060
000020
ENDCHAR
STARTCHAR 4E92
ENCODING 20114
SWIDTH 720 0
DWIDTH 24 0
BBX 22 26 1 -1
BITMAP
7FFFF8
020000
020000
020000
020000
020000
03FF00
020100
020100
020100
020100
020100
020100
020100
020100
020100
03FF00
000100
000100
000100
000100
000100
000100
000100
000100
FFFFFC
ENDCHAR
STARTCHAR 4E93
ENCODING 20115
SWIDTH 720 0
DWIDTH 24 0
BBX 22 29 1 -3
BITMAP
1FFFF0
000000
000000
000000
000000
000000
000000
000000
000000
FFFFFC
010100
010100
010100
010100
030100
030100
030100
020100
020100
020100
060100
040100
040100
0C0100
080100
100100
200100
400100
000100
ENDCHAR
STARTCHAR 4E94
ENCODING 20116
SWIDTH 720 0
DWIDTH 24 0
BBX 22 26 1 -1
BITMAP
3FFFF8
006000
004000
004000
004000
00C000
00C000
00C000
1FFF80
00C080
008080
008080
008080
008080
018080
018080
018080
018080
018080
018080
010080
010080
010080
010080
030080
FFFFFC
ENDCHAR
STARTCHAR 4E95
ENCODING 20117
SWIDTH 750 0
DWIDTH 25 0
BBX 23 30 1 -4
BITMAP
010100
010100
010100
010100
010100
010100
3FFFF8
010100
010100
010100
010100
010100
010100
010100
010100
010100
FFFFFE
030100
030100
020100
020100
060100
040100
040100
0C0100
080100
100100
200100
400100
000100
ENDCHAR
STARTCHAR 4E98
ENCODING 20120
SWIDTH 720 0
DWIDTH 24 0
BBX 22 27 1 -1
BITMAP
3FFFF8
000000
000000
000000
000000
000000
07FFC0
040040
040040
040040
040040
040040
040040
07FFC0
040040
040040
040040
040040
040040
040040
07FFC0
000000
000000
000000
000000
000000
FFFFFC
ENDCHAR
STARTCHAR 4E9A
ENCODING 20122
SWIDTH 750 0
DWIDTH 25 0
BBX 21 27 2 -2
BITMAP
3FFFE0
008C00
008C00
008C00
008C00
008C00
008C60
208C60
208C60
108C60
108C40
108C40
188CC0
088C80
088C80
088C80
0C8D00
0C8E00
048E00
008C00
008C00
008C00
008C00
008C00
008C00
FFFFF8
FFFFF8
ENDCHAR
STARTCHAR 4E9B
ENCODING 20123
SWIDTH 750 0
DWIDTH 25 0
BBX 21 30 2 -2
BITMAP
020800
030C00
030C00
030C00
130C10
130C30
130C60
13EC80
130F00
130C00
130C00
130C00
130C00
130C00
130C00
131C10
136C10
1387F8
7C01F0
E00000
000000
000000
1FFFC0
1FFFC0
000000
000000
000000
000000
FFFFF8
FFFFF8
ENDCHAR
STARTCHAR 4E9F
ENCODING 20127
SWIDTH 720 0
DWIDTH 24 0
BBX 22 29 1 -2
BITMAP
0FFF80
000180
000300
000600
000C00
001800
003000
3F37F0
213030
213030
213030
213420
213260
213160
2131C0
2130C0
2130C0
2130E0
2131A0
213130
213110
3F3218
003208
003400
003000
003000
000000
000000
FFFFFC
ENDCHAR
STARTCHAR 4EA0
ENCODING 20128
SWIDTH 750 0
DWIDTH 25 0
BBX 23 7 1 22
BITMAP
001000
001000
001000
001000
001000
FFFFFE
FFFFFE
ENDCHAR
STARTCHAR 4EA1
ENCODING 20129
SWIDTH 720 0
DWIDTH 24 0
BBX 22 29 1 -2
BITMAP
001000
001000
001000
001000
001000
FFFFFC
7FFFF8
060000
060000
060000
060000
060000
060000
060000
060000
060000
060000
060000
060000
060000
060000
060000
060000
060000
060000
060000
060000
060000
07FFF0
ENDCHAR
STARTCHAR 4EA2
ENCODING 20130
SWIDTH 750 0
DWIDTH 25 0
BBX 21 31 2 -4
BITMAP
002000
002000
002000
002000
FFFFF8
000000
000000
000000
000000
000000
03FF00
020300
020300
020300
020300
020300
020300
020300
060300
060300
060300
040300
040300
040300
0C0300
080300
080300
100310
100308
2003F8
400000
ENDCHAR
STARTCHAR 4EA4
ENCODING 20132
SWIDTH 720 0
DWIDTH 24 0
BBX 22 31 1 -3
BITMAP
002000
002000
002000
FFFFFC
FFFFFC
000000
010200
030100
020080
0600C0
0C0060
080230
110230
210600
010400
008C00
008800
005800
007000
002000
007000
005000
008800
018C00
030700
020380
0400C0
080070
10003C
200008
400000
ENDCHAR
STARTCHAR 4EA5
ENCODING 20133
SWIDTH 720 0
DWIDTH 24 0
BBX 21 30 2 -3
BITMAP
002000
002000
002000
FFFFF8
3FFFF0
018000
010200
030600
020400
040C00
080C00
103800
1FD000
0030C0
006180
00C180
008300
010600
020600
0C0C00
181800
203400
C06200
00C180
0180C0
030060
060070
180030
200018
C00000
ENDCHAR
STARTCHAR 4EA6
ENCODING 20134
SWIDTH 720 0
DWIDTH 24 0
BBX 22 30 1 -3
BITMAP
001000
001000
001000
FFFFFC
FFFFFC
010600
010600
010600
010600
010600
010600
310640
310620
310620
210610
630618
630608
43060C
42060C
820600
020600
060600
040600
040600
080600
080600
100600
200600
400600
800600
ENDCHAR
STARTCHAR 4EA7
ENCODING 20135
SWIDTH 690 0
DWIDTH 23 0
BBX 21 30 1 -3
BITMAP
001000
001000
001000
3FFFF8
3FFFF8
000000
020180
010180
008300
00C200
00C400
1FFFF8
1FFFF8
180000
180000
180000
180000
180000
180000
180000
180000
100000
100000
100000
300000
200000
200000
400000
800000
800000
ENDCHAR
STARTCHAR 4EA8
ENCODING 20136
SWIDTH 750 0
DWIDTH 25 0
BBX 22 30 1 -2
BITMAP
002000
002000
FFFFFC
000000
000000
000000
07FF80
040080
040080
040080
07FF80
000000
000000
000000
1FFFC0
0000C0
000300
000600
001800
003000
002000
002000
002000
002000
002000
002000
002000
002000
002000
002000
ENDCHAR
STARTCHAR 4EA9
ENCODING 20137
SWIDTH 750 0
DWIDTH 25 0
BBX 22 29 1 -2
BITMAP
002000
002000
002000
FFFFFC
3FFFF0
000000
000000
000000
000000
0FFFC0
082040
082040
082040
082040
082040
082040
082040
082040
0FFFC0
082040
082040
082040
082040
082040
082040
082040
082040
082040
0FFFC0
ENDCHAR
STARTCHAR 4EAB
ENCODING 20139
SWIDTH 720 0
DWIDTH 24 0
BBX 22 29 1 -2
BITMAP
001000
001000
7FFFF8
000000
000000
07FF80
040080
040080
040080
040080
07FF80
000000
000000
000000
0FFF80
000180
000600
000C00
001800
001000
FFFFFC
001000
001000
001000
001000
001000
001000
001000
001000
ENDCHAR
STARTCHAR 4EAC
ENCODING 20140
SWIDTH 750 0
DWIDTH 25 0
BBX 23 30 1 -3
BITMAP
001000
001000
7FFFFE
7FFFFE
000000
000000
000000
03FFC0
020040
020040
020040
020040
020040
020040
020040
03FFC0
001800
001800
001800
011800
031880
021840
061820
041830
081810
181818
30180C
40180C
801800
001800
ENDCHAR
STARTCHAR 4EAD
ENCODING 20141
SWIDTH 720 0
DWIDTH 24 0
BBX 20 29 2 -2
BITMAP
002000
002000
FFFFF0
000000
000000
0FFF00
080100
080100
080100
080100
0FFF00
000000
000000
000000
FFFFF0
800010
800010
800010
1FFF80
002000
002000
002000
002000
002000
002000
002000
002000
002000
002000
ENDCHAR
STARTCHAR 4EAE
ENCODING 20142
SWIDTH 720 0
DWIDTH 24 0
BBX 21 29 2 -2
BITMAP
004000
004000
FFFFF0
000000
000000
0FFF00
080300
080300
080300
080300
0FFF00
000000
000000
FFFFF0
800010
800010
800010
07FC00
060400
060400
040400
040400
040400
040400
0C0400
080410
080410
100410
2007F8
ENDCHAR
STARTCHAR 4EB2
ENCODING 20146
SWIDTH 750 0
DWIDTH 25 0
BBX 22 31 1 -2
BITMAP
001000
001000
001000
1FFFF0
0FFFE0
000000
000100
010300
008200
008200
000400
7FFFFC
001800
001800
001800
001800
1FFFF0
001800
001800
001800
031880
031880
061840
061820
0C1830
081810
101818
201808
40180C
801000
001000
ENDCHAR
STARTCHAR 4EB3
ENCODING 20147
SWIDTH 720 0
DWIDTH 24 0
BBX 21 30 2 -2
BITMAP
002000
002000
FFFFF0
000000
000000
0FFF00
080100
080100
080100
0FFF00
000000
000000
FFFFF0
C00010
C00110
800F10
00F800
0FC000
00C000
00C018
00C7F0
03FF00
FFC000
E0C000
00C000
00C000
00C010
004008
007FF8
001FF0
ENDCHAR
STARTCHAR 4EB5
ENCODING 20149
SWIDTH 750 0
DWIDTH 25 0
BBX 22 30 2 -3
BITMAP
002000
002000
FFFFF0
000000
080800
0C0800
0C0800
FF7F80
0C0880
0C1880
0E3880
0C1880
7C1C80
EC2680
8C62C0
0C4050
0C8070
084040
00C040
01A0C0
032080
061100
0A0C00
120600
620300
820180
0200E0
020030
02001C
020000
ENDCHAR
STARTCHAR 4EBA
ENCODING 20154
SWIDTH 720 0
DWIDTH 24 0
BBX 19 31 2 -3
BITMAP
004000
004000
004000
004000
004000
004000
00C000
00C000
00C000
00C000
00A000
00A000
00A000
00A000
019000
011000
011800
010800
030800
020C00
020400
060600
040200
040300
080100
080180
1000C0
2000C0
400060
800060
000020
ENDCHAR
STARTCHAR 4EBB
ENCODING 20155
SWIDTH 750 0
DWIDTH 25 0
BBX 9 31 1 -3
BITMAP
0180
0180
0300
0300
0200
0600
0400
0C00
0C00
1C00
1400
2400
4400
8400
0400
0400
0400
0400
0400
0400
0400
0400
0400
0400
0400
0400
0400
0400
0400
0400
0400
ENDCHAR
STARTCHAR 4EBF
ENCODING 20159
SWIDTH 750 0
DWIDTH 25 0
BBX 23 31 1 -4
BITMAP
020000
030000
060000
06FFF0
060030
0C0020
0C0060
080060
1800C0
3800C0
280180
480180
880300
080300
080600
080600
080C00
080C00
081800
081800
083000
083000
086000
086000
08C000
08C000
088000
088008
08C004
08FFFE
080000
ENDCHAR
STARTCHAR 4EC0
ENCODING 20160
SWIDTH 750 0
DWIDTH 25 0
BBX 23 31 1 -3
BITMAP
018100
010100
030100
030100
020100
060100
040100
0C0100
0C0100
1C0100
340100
45FFFE
840100
040100
040100
040100
040100
040100
040100
040100
040100
040100
040100
040100
040100
040100
040100
040100
040100
040100
040100
ENDCHAR
STARTCHAR 4EC1
ENCODING 20161
SWIDTH 720 0
DWIDTH 24 0
BBX 22 30 1 -3
BITMAP
030000
020000
060000
060000
04FFF0
0C0000
080000
180000
380000
280000
480000
880000
080000
080000
080000
080000
080000
080000
080000
080000
080000
080000
080000
080000
080000
080000
080000
09FFFC
080000
080000
ENDCHAR
STARTCHAR 4EC2
ENCODING 20162
SWIDTH 750 0
DWIDTH 25 0
BBX 22 30 1 -3
BITMAP
008000
018400
018400
030400
030400
060400
047FFC
0C0404
0C0404
140404
240404
440404
840404
040C04
040C04
040C04
040C04
040804
040804
040804
041804
041804
041004
041004
042004
042004
044004
044004
048004
040004
ENDCHAR
STARTCHAR 4EC3
ENCODING 20163
SWIDTH 750 0
DWIDTH 25 0
BBX 23 31 1 -4
BITMAP
020000
030000
060000
06FFFE
060080
0C0080
0C0080
180080
180080
380080
280080
480080
880080
080080
080080
080080
080080
080080
080080
080080
080080
080080
080080
080080
080080
080080
080080
080080
080080
080780
080080
ENDCHAR
STARTCHAR 4EC4
ENCODING 20164
SWIDTH 750 0
DWIDTH 25 0
BBX 23 29 1 -3
BITMAP
1FFFFC
180000
180000
180400
180400
180400
180400
180400
180400
180C00
180E00
180E00
100E00
100E00
100900
100900
101900
101980
101080
3030C0
303040
202060
206060
204030
408030
408018
41001C
82000C
84000E
ENDCHAR
STARTCHAR 4EC5
ENCODING 20165
SWIDTH 750 0
DWIDTH 25 0
BBX 23 30 1 -4
BITMAP
020000
070000
06FFF0
062030
042030
0C2030
082030
182020
181020
381060
281060
481840
880840
0808C0
080C80
080580
080780
080300
080300
080300
080780
080480
080CC0
080860
081060
083030
082018
084018
08800C
090006
ENDCHAR
STARTCHAR 4EC6
ENCODING 20166
SWIDTH 720 0
DWIDTH 24 0
BBX 22 31 1 -3
BITMAP
018200
018300
030300
030300
020300
060300
040300
0C0300
0C0300
140300
340300
2403C0
440360
840330
040318
04030C
040304
040300
040300
040300
040300
040300
040300
040300
040300
040300
040300
040300
040300
040300
040200
ENDCHAR
STARTCHAR 4EC7
ENCODING 20167
SWIDTH 720 0
DWIDTH 24 0
BBX 22 30 1 -3
BITMAP
020000
031000
021000
061000
041000
0C1000
0C1000
19FFE0
181060
381060
281060
481060
881060
081060
081060
083060
083060
083060
082060
082060
082060
082060
086060
084060
084060
088060
088060
090068
090064
0A003C
ENDCHAR
STARTCHAR 4EC9
ENCODING 20169
SWIDTH 750 0
DWIDTH 25 0
BBX 23 30 1 -4
BITMAP
020000
030000
063FC0
062040
062040
0C2040
0C2040
0C2040
1C2040
1C2040
2C2040
4C2040
8C2040
0C2040
0C2040
0C2040
0C2040
0C2040
0C6040
0C6040
0C4040
0C4040
0C4040
0C4040
0C4040
0C8040
0C8040
0D0044
0D0044
0A003E
ENDCHAR
STARTCHAR 4ECA
ENCODING 20170
SWIDTH 750 0
DWIDTH 25 0
BBX 23 30 1 -2
BITMAP
003000
003000
006800
006400
00C600
008300
010180
0320C0
0610E0
0C1070
181818
20080E
400004
800000
0FFFC0
0FFFC0
0000C0
000080
000180
000180
000100
000300
000200
000600
000600
000400
000C00
000800
001800
001000
ENDCHAR
STARTCHAR 4ECB
ENCODING 20171
SWIDTH 750 0
DWIDTH 25 0
BBX 22 30 2 -3
BITMAP
003000
003000
007000
006800
00C400
018600
010200
030300
060180
0C00C0
180060
210238
41021C
810208
010200
010200
030200
030200
030200
020200
020200
020200
060200
040200
040200
080200
080200
100200
200200
400200
ENDCHAR
STARTCHAR 4ECD
ENCODING 20173
SWIDTH 750 0
DWIDTH 25 0
BBX 22 30 1 -4
BITMAP
020000
070000
06FFF0
060830
040830
0C0830
080820
180860
180860
380860
28087C
480804
880804
081804
081804
081804
081804
081004
081004
081004
083004
083004
082004
086004
084004
084004
088004
088004
090004
0A0004
ENDCHAR
STARTCHAR 4ECE
ENCODING 20174
SWIDTH 720 0
DWIDTH 24 0
BBX 22 30 1 -3
BITMAP
010080
010080
010080
010080
010080
010080
010080
010080
030180
030180
030180
0301C0
030140
028140
028140
02C140
064360
046220
046220
042220
0C3430
083430
080410
100818
100818
201008
20200C
40200C
804004
008004
ENDCHAR
STARTCHAR 4ED1
ENCODING 20177
SWIDTH 750 0
DWIDTH 25 0
BBX 22 30 2 -2
BITMAP
002000
006000
005000
00D800
018800
010400
030600
060300
0C0180
1800C0
100060
240038
C6001C
060088
060180
060300
060C00
061800
063000
06C000
070000
060000
060000
060000
060000
060000
060040
060040
07FFE0
03FFE0
ENDCHAR
STARTCHAR 4ED3
ENCODING 20179
SWIDTH 750 0
DWIDTH 25 0
BBX 22 30 2 -3
BITMAP
006000
006000
00E000
00D000
018800
010C00
030600
060300
0C0380
1801C0
1000E0
27FE70
C7FE3C
040218
040200
040200
040200
040200
040200
040200
040200
040200
040000
040000
040000
040000
040000
040080
040040
07FFE0
ENDCHAR
STARTCHAR 4ED4
ENCODING 20180
SWIDTH 750 0
DWIDTH 25 0
BBX 23 30 1 -4
BITMAP
020000
070000
067FF0
060030
040060
0C0060
0800C0
180080
180180
380300
280200
480200
880200
080200
09FFFE
080200
080200
080200
080200
080200
080200
080200
080200
080200
080200
080200
080200
080200
080200
080200
ENDCHAR
STARTCHAR 4ED5
ENCODING 20181
SWIDTH 750 0
DWIDTH 25 0
BBX 23 31 1 -3
BITMAP
018100
018100
010100
030100
020100
060100
040100
0C0100
0C0100
140100
24FFFE
440100
840100
040100
040100
040100
040100
040100
040100
040100
040100
040100
040100
040100
040100
040100
040100
047FFC
047FFC
040000
040000
ENDCHAR
STARTCHAR 4ED6
ENCODING 20182
SWIDTH 750 0
DWIDTH 25 0
BBX 23 31 1 -4
BITMAP
018100
018100
010100
030100
022100
062100
042118
0C2178
0C21E8
1C2F88
343D08
64F108
85E108
042108
042108
042108
042108
042108
042108
042108
042108
042100
042100
042000
042000
042000
042004
042004
042004
043FFE
040000
ENDCHAR
STARTCHAR 4ED7
ENCODING 20183
SWIDTH 720 0
DWIDTH 24 0
BBX 23 30 1 -3
BITMAP
030100
030100
020100
060100
060100
0C0100
09FFFC
180100
180100
280100
480100
888100
084100
084300
082300
082300
083300
081200
081A00
080E00
080E00
080600
080E00
080B00
081980
0810C0
082060
084038
08801E
090004
ENDCHAR
STARTCHAR 4ED8
ENCODING 20184
SWIDTH 720 0
DWIDTH 24 0
BBX 22 31 1 -3
BITMAP
010040
030040
030040
020040
060040
040040
0C0040
0C0040
1DFFFC
1C0040
2C0040
4C0040
4C0040
8C4040
0C4040
0C2040
0C1040
0C1840
0C0840
0C0C40
0C0040
0C0040
0C0040
0C0040
0C0040
0C0040
0C0040
0C0040
0C0040
0C0040
080040
ENDCHAR
STARTCHAR 4ED9
ENCODING 20185
SWIDTH 720 0
DWIDTH 24 0
BBX 21 30 1 -2
BITMAP
030200
020200
060200
060200
040200
0C0200
080200
184208
184208
284208
484208
884208
084208
084208
084208
084208
084208
084208
084208
084208
084208
084208
084208
084208
084208
084208
084208
087FF8
087FF8
080000
ENDCHAR
STARTCHAR 4EDD
ENCODING 20189
SWIDTH 720 0
DWIDTH 24 0
BBX 21 30 2 -2
BITMAP
002000
004000
006000
009000
009000
010800
030400
060200
040100
080080
1000C0
200070
400038
8FFF98
002000
002000
002000
002000
002000
002000
002000
002000
002000
002000
002000
002000
002000
002000
FFFFF0
FFFFF0
ENDCHAR
STARTCHAR 4EDE
ENCODING 20190
SWIDTH 750 0
DWIDTH 25 0
BBX 21 30 2 -3
BITMAP
030000
030000
027FF8
060408
060408
0C0408
0C0408
1C0408
1C2408
3C2408
6C2408
4C4408
8C4C08
0C4C08
0CCC08
0D8C08
0C0808
0C0808
0C1808
0C1808
0C1008
0C1008
0C3008
0C2008
0C6008
0C4008
0C8008
0C8008
0D0008
0A0008
ENDCHAR
STARTCHAR 4EDF
ENCODING 20191
SWIDTH 720 0
DWIDTH 24 0
BBX 22 31 1 -3
BITMAP
020000
030030
0600E0
060780
047E00
0C0200
0C0200
080200
180200
180200
280200
480200
8BFFFC
09FFFC
080200
080200
080200
080200
080200
080200
080200
080200
080200
080200
080200
080200
080200
080200
080200
080200
080200
ENDCHAR
STARTCHAR 4EE1
ENCODING 20193
SWIDTH 720 0
DWIDTH 24 0
BBX 23 30 1 -3
BITMAP
022000
033000
026000
066000
044000
047FF8
0C8000
088000
190000
190000
280000
48FFC0
8800C0
080180
080180
080300
080300
080600
080C00
080C00
081800
081800
083000
086000
086000
08C000
08C008
088008
088008
087FFE
ENDCHAR
STARTCHAR 4EE3
ENCODING 20195
SWIDTH 750 0
DWIDTH 25 0
BBX 22 30 2 -3
BITMAP
010000
030800
030800
020900
060880
060840
0C0860
0C0820
1C0800
1C0800
2C0878
4C7FF0
8DFC00
0C0400
0C0400
0C0400
0C0400
0C0400
0C0600
0C0600
0C0600
0C0600
0C0200
0C0300
0C0300
0C0100
0C0180
0C00C4
0C0068
0C003C
ENDCHAR
STARTCHAR 4EE4
ENCODING 20196
SWIDTH 750 0
DWIDTH 25 0
BBX 23 30 1 -2
BITMAP
003000
003000
006800
004400
00C600
018300
010180
0220C0
062060
0C1030
18181C
20080E
400004
800000
0FFFC0
0FFFC0
0000C0
000080
000100
000300
000200
020600
018400
004800
002800
001000
001C00
000E00
000700
000300
ENDCHAR
STARTCHAR 4EE5
ENCODING 20197
SWIDTH 720 0
DWIDTH 24 0
BBX 20 31 3 -3
BITMAP
000200
000200
840200
C20200
C20200
C10200
C10600
C18600
C08600
C08400
C00400
C00400
C00400
C00C00
C00C00
C00800
C00800
C01800
C01800
C01200
C03100
C02100
C02080
C040C0
C04040
C08060
C18020
C10020
020030
040010
080000
ENDCHAR
STARTCHAR 4EE8
ENCODING 20200
SWIDTH 750 0
DWIDTH 25 0
BBX 23 31 1 -3
BITMAP
018000
018000
010000
030000
037FFC
060000
040000
0C0000
0C0000
1C0000
140000
240000
440000
840000
040000
043FF8
040000
040000
040000
040000
040000
040000
040000
040000
040000
040000
040000
040000
04FFFE
040000
040000
ENDCHAR
STARTCHAR 4EEA
ENCODING 20202
SWIDTH 750 0
DWIDTH 25 0
BBX 23 31 1 -3
BITMAP
018000
030400
030400
030200
020218
060318
044310
0C2030
0C2030
1C2030
141030
241020
440860
840860
040840
0404C0
0404C0
040680
040380
040300
040300
040380
0406C0
040C60
040860
041830
043018
04201C
04400E
048006
050000
ENDCHAR
STARTCHAR 4EEB
ENCODING 20203
SWIDTH 750 0
DWIDTH 25 0
BBX 23 30 1 -2
BITMAP
018100
018300
010300
030200
030600
020400
060400
0E0C00
0E0820
160820
261060
461040
8620C0
0640C0
064080
068180
060100
060300
060200
060600
060410
060C10
060808
061808
06100C
06200C
066076
067FC6
06FC06
040002
ENDCHAR
STARTCHAR 4EEC
ENCODING 20204
SWIDTH 750 0
DWIDTH 25 0
BBX 22 31 1 -3
BITMAP
020000
034000
062000
0613FC
061804
0C0004
0C4004
184004
184004
384004
284004
484004
884004
084004
084004
084004
084004
084004
084004
084004
084004
084004
084004
084004
084004
084004
084004
084004
084004
084004
084004
ENDCHAR
STARTCHAR 4EEE
ENCODING 20206
SWIDTH 720 0
DWIDTH 24 0
BBX 22 30 1 -3
BITMAP
020020
0300E0
020F80
067000
044000
044000
084000
084000
184000
384000
287FF0
485020
884820
084860
084860
084860
08C440
08C4C0
08C680
08C280
088380
088300
088380
088780
0884C0
090C60
090830
091038
0A201C
08400C
ENDCHAR
STARTCHAR 4EF0
ENCODING 20208
SWIDTH 750 0
DWIDTH 25 0
BBX 22 31 1 -3
BITMAP
020200
030700
060C00
063800
0641FC
0C4104
0C4104
184104
184104
384104
284104
484104
884104
084104
084104
084104
084104
084104
084104
084104
084104
084104
084104
084104
080100
080100
080100
080100
080100
080100
080100
ENDCHAR
STARTCHAR 4EF2
ENCODING 20210
SWIDTH 720 0
DWIDTH 24 0
BBX 21 31 1 -3
BITMAP
030200
020200
020200
060200
040200
040200
0C0200
08FFF8
188208
188208
288208
488208
888208
088208
088208
088208
088208
088208
08FFF8
080200
080200
080200
080200
080200
080200
080200
080200
080200
080200
080200
080200
ENDCHAR
STARTCHAR 4EF3
ENCODING 20211
SWIDTH 750 0
DWIDTH 25 0
BBX 23 30 1 -3
BITMAP
034180
076180
066180
066180
046180
0C6180
086184
18618C
186188
386198
687DB0
4861A0
8861C0
086180
086180
086180
086180
086180
086180
086180
086180
086180
086180
086180
086180
086180
086184
086184
0860FE
0860FC
ENDCHAR
STARTCHAR 4EF5
ENCODING 20213
SWIDTH 750 0
DWIDTH 25 0
BBX 23 30 1 -3
BITMAP
011800
019800
031000
031000
023000
063FFC
042100
0C6100
0C4100
144100
248100
448100
840100
040100
040100
05FFFE
040100
040100
040100
040100
040100
040100
040100
040100
040100
040100
040100
040100
040100
040100
ENDCHAR
STARTCHAR 4EF6
ENCODING 20214
SWIDTH 720 0
DWIDTH 24 0
BBX 21 31 2 -4
BITMAP
000400
060400
04E400
0CE400
0CC400
08C400
18FFF0
10FFE0
318400
310400
510400
920400
900400
100400
100400
100400
17FFF8
100400
100400
100400
100400
100400
100400
100400
100400
100400
100400
100400
100400
100400
100400
ENDCHAR
STARTCHAR 4EF7
ENCODING 20215
SWIDTH 750 0
DWIDTH 25 0
BBX 23 31 1 -3
BITMAP
018300
018300
010300
030680
030480
060C40
040860
0C1030
0C2018
1C200C
14400E
240824
440820
840820
040820
040820
040820
041820
041820
041820
041020
041020
041020
041020
043020
042020
042020
044020
044020
048020
040020
ENDCHAR
STARTCHAR 4EFB
ENCODING 20219
SWIDTH 750 0
DWIDTH 25 0
BBX 23 30 1 -3
BITMAP
010000
010038
0100F0
030F80
023100
060100
040100
0C0100
1C0100
140100
240100
440100
840100
04FFFE
047FF8
040100
040100
040100
040100
040100
040100
040100
040100
040100
040100
040100
040100
040100
04FFFC
040000
ENDCHAR
STARTCHAR 4EFD
ENCODING 20221
SWIDTH 750 0
DWIDTH 25 0
BBX 23 31 1 -4
BITMAP
008000
018900
010C80
010880
030840
021840
061860
041020
0C1030
0C2030
142018
244008
44400C
848006
043FF0
040810
040810
040810
040810
041810
041810
041810
041010
041010
041010
042010
042010
044010
044010
048010
048010
ENDCHAR
STARTCHAR 4EFF
ENCODING 20223
SWIDTH 750 0
DWIDTH 25 0
BBX 23 30 1 -2
BITMAP
030100
030100
030100
060100
06FFFE
0CFFFC
081000
081000
181000
381000
281000
481FF0
881010
081010
081010
081010
083010
083010
083010
082010
082010
082010
086010
084010
084010
08C010
088010
090010
090010
0A0010
ENDCHAR
STARTCHAR 4F01
ENCODING 20225
SWIDTH 720 0
DWIDTH 24 0
BBX 22 29 1 -1
BITMAP
003000
006000
007000
00C800
008400
018600
030300
020180
0410C0
081860
101830
20181C
40180C
801800
001800
021800
021FC0
021800
021800
021800
021800
021800
021800
021800
021800
021800
021800
7FFFF8
7FFFF8
ENDCHAR
STARTCHAR 4F09
ENCODING 20233
SWIDTH 720 0
DWIDTH 24 0
BBX 22 30 1 -3
BITMAP
030200
020200
060200
060200
05FFF8
0C0000
080000
180000
180000
281FC0
4810C0
8810C0
0810C0
0810C0
0810C0
0810C0
0810C0
0830C0
0830C0
0830C0
0820C0
0820C0
0820C0
0860C0
0840C0
08C0C0
0880C8
090048
09007C
0A0000
ENDCHAR
STARTCHAR 4F0A
ENCODING 20234
SWIDTH 750 0
DWIDTH 25 0
BBX 23 30 1 -3
BITMAP
020000
070000
06FFF0
060410
0C0410
0C0410
080410
180410
1BFFFE
280410
680410
480410
880410
080C10
080C10
08FFF0
080C00
080800
081800
081800
081800
081000
083000
082000
086000
084000
088000
088000
090000
0A0000
ENDCHAR
STARTCHAR 4F0D
ENCODING 20237
SWIDTH 750 0
DWIDTH 25 0
BBX 22 31 2 -4
BITMAP
020000
030000
060000
06FFF8
060C00
0C0C00
0C0800
180800
180800
380800
681800
481800
88FFE0
081820
081820
081820
081820
081020
081020
081020
083020
083020
083020
083020
083020
083020
083020
082020
0BFFFC
080000
080000
ENDCHAR
STARTCHAR 4F0E
ENCODING 20238
SWIDTH 720 0
DWIDTH 24 0
BBX 22 30 1 -2
BITMAP
030200
020200
060200
060200
040200
0DFFF8
080200
180200
180200
380200
280200
48FFE0
884060
082060
082060
081040
0810C0
081880
080980
080D80
080700
080200
080700
080D80
080980
0810C0
082060
084038
08801C
09000C
ENDCHAR
STARTCHAR 4F0F
ENCODING 20239
SWIDTH 750 0
DWIDTH 25 0
BBX 22 31 1 -4
BITMAP
010200
018300
010340
030360
020320
060330
060310
0C0300
0C0300
1CFFFC
340300
640300
840300
040300
040700
040680
040680
040480
040480
040CC0
040C40
040840
041860
041020
043030
042010
046018
04400C
04800C
048004
050000
ENDCHAR
STARTCHAR 4F10
ENCODING 20240
SWIDTH 750 0
DWIDTH 25 0
BBX 23 30 1 -3
BITMAP
018400
018480
030440
030460
020420
060430
040410
0C0400
0C047C
147FF8
24FC00
440400
840400
040400
040408
040418
040610
040630
040660
040660
0402C0
040380
040300
040700
040580
0408C0
0410C2
042064
04403E
04000C
ENDCHAR
STARTCHAR 4F11
ENCODING 20241
SWIDTH 750 0
DWIDTH 25 0
BBX 23 31 1 -3
BITMAP
018100
018100
010100
030100
030100
020100
060100
06FFFC
0E1940
1E1940
161920
261920
461120
861120
061120
061130
063110
063110
062110
062118
066118
064108
06410C
06810C
068106
070106
070100
060100
060100
060100
040100
ENDCHAR
STARTCHAR 4F17
ENCODING 20247
SWIDTH 720 0
DWIDTH 24 0
BBX 22 30 1 -3
BITMAP
006000
006000
006000
00D000
018800
010400
030200
060300
040180
0800C0
120260
220230
42021C
020208
020600
060700
060700
060700
060500
050480
050C80
0C8C80
0888C0
08D840
10D060
103060
202030
404030
808018
000010
ENDCHAR
STARTCHAR 4F18
ENCODING 20248
SWIDTH 750 0
DWIDTH 25 0
BBX 23 31 1 -4
BITMAP
021000
031100
021880
061840
061820
0C1830
081800
181800
19FFFC
281980
281980
481980
881980
081180
081180
081180
081180
081180
083180
083180
083180
082180
082180
086180
084180
084180
088180
088184
090184
0900FE
0A0000
ENDCHAR
STARTCHAR 4F19
ENCODING 20249
SWIDTH 750 0
DWIDTH 25 0
BBX 22 30 1 -3
BITMAP
018100
038300
030300
030300
020300
06230C
04230C
0C2318
1C2318
142318
246310
444310
8443A0
0443A0
044680
040680
040680
040640
040440
040C40
040C40
040820
041820
041030
043010
042018
046008
04C00C
048004
050000
ENDCHAR
STARTCHAR 4F1A
ENCODING 20250
SWIDTH 720 0
DWIDTH 24 0
BBX 21 29 2 -2
BITMAP
006000
006000
00D000
00D000
018800
010400
030600
060300
0C0180
1800C0
33FE60
600030
800018
000000
000000
000000
7FFFE0
00C000
00C000
008000
018000
010000
030400
020200
040100
040380
087C80
1FC0C0
0800C0
ENDCHAR
STARTCHAR 4F1B
ENCODING 20251
SWIDTH 720 0
DWIDTH 24 0
BBX 22 30 1 -4
BITMAP
020000
030000
02FFF8
06C000
04C000
04C000
0CC030
08C030
18C830
18C820
28C460
48C260
88C240
08C1C0
08C1C0
08C080
08C1C0
08C140
08C360
08C220
08C230
08C430
08C810
08C818
08D018
08D000
08C000
08C000
08FFFC
08FFF8
ENDCHAR
STARTCHAR 4F1E
ENCODING 20254
SWIDTH 750 0
DWIDTH 25 0
BBX 22 31 2 -3
BITMAP
002000
006000
007000
00C800
018C00
010600
030300
062180
0C30C0
1030E0
203070
48309C
843088
063180
023300
033200
013400
003000
FFFFF8
FFFFF8
003000
003000
003000
003000
003000
003000
003000
003000
003000
003000
002000
ENDCHAR
STARTCHAR 4F1F
ENCODING 20255
SWIDTH 750 0
DWIDTH 25 0
BBX 21 31 2 -3
BITMAP
030200
030200
020200
060200
060200
0DFFF8
0C0200
180200
180200
380200
28FFF0
480200
880200
080200
080200
080200
09FFF8
080208
080208
080208
080208
080208
080208
080208
080208
080208
080208
080200
080200
080200
080200
ENDCHAR
STARTCHAR 4F20
ENCODING 20256
SWIDTH 750 0
DWIDTH 25 0
BBX 22 31 2 -4
BITMAP
020000
060600
060600
040600
0C0C00
0CFFF0
080C00
180C00
381800
381800
581800
9BFFFC
183000
183000
183000
183000
186000
186000
187FE0
180060
180040
1800C0
184080
182100
181100
180E00
180600
180300
180300
100180
000080
ENDCHAR
STARTCHAR 4F22
ENCODING 20258
SWIDTH 720 0
DWIDTH 24 0
BBX 22 30 1 -3
BITMAP
020000
030000
02FFFC
060040
060040
0C0040
0C4040
086040
186040
386040
286040
486040
887FFC
080C40
080840
080840
080840
081840
081840
081040
081040
083040
082040
086040
084040
084040
088040
090040
090040
0A0040
ENDCHAR
STARTCHAR 4F24
ENCODING 20260
SWIDTH 720 0
DWIDTH 24 0
BBX 23 30 1 -3
BITMAP
033000
033000
022000
062000
067FFE
0C7FFC
084000
184000
188400
388400
290400
490400
880400
08FFF8
080408
080408
080408
080408
080C08
080C08
080C08
080808
080808
081808
081008
083008
082008
084008
088008
080008
ENDCHAR
STARTCHAR 4F25
ENCODING 20261
SWIDTH 720 0
DWIDTH 24 0
BBX 22 30 1 -3
BITMAP
033000
063010
063010
043030
0C3060
083040
1830C0
183080
383100
283200
483000
8BFFFC
09FFFC
083200
083200
083100
083100
083100
083080
083080
0830C0
083040
083040
083060
083020
083030
083018
083018
08300C
081008
ENDCHAR
STARTCHAR 4F26
ENCODING 20262
SWIDTH 750 0
DWIDTH 25 0
BBX 23 31 1 -2
BITMAP
018300
018200
010700
030680
020C80
060840
041820
0C1030
0C2018
14400C
248006
441000
841000
041810
041830
041860
0418C0
041980
041B00
041C00
041800
041800
041800
041800
041800
041800
041800
041808
041FFC
040FFC
040000
ENDCHAR
STARTCHAR 4F27
ENCODING 20263
SWIDTH 750 0
DWIDTH 25 0
BBX 23 31 1 -4
BITMAP
000200
018300
010700
030700
030C80
020C40
061860
0C1030
0C2018
1C400C
344006
240000
C41FE0
041FE0
041020
041020
041020
041020
041020
041020
041020
041020
041000
041000
041000
041000
041000
041008
041004
041FFE
040000
ENDCHAR
STARTCHAR 4F2A
ENCODING 20266
SWIDTH 750 0
DWIDTH 25 0
BBX 21 31 2 -4
BITMAP
020000
060800
070800
048800
0CC800
0C4800
186800
180800
380800
39FFF8
580808
980808
180808
180808
181808
181A08
181908
181908
181088
1810C8
1830C8
183008
182008
186008
184008
184008
188008
188008
190008
1A0008
100008
ENDCHAR
STARTCHAR 4F2B
ENCODING 20267
SWIDTH 750 0
DWIDTH 25 0
BBX 23 31 1 -3
BITMAP
020000
030100
020100
060100
060100
0C7FFC
0C7FFC
184004
184004
384004
284004
480000
880000
080000
080000
080000
080000
080000
080000
080000
080000
080000
080000
080000
080000
080000
080000
080000
09FFFE
080000
080000
ENDCHAR
STARTCHAR 4F2F
ENCODING 20271
SWIDTH 750 0
DWIDTH 25 0
BBX 21 30 1 -3
BITMAP
030300
020200
060200
060400
0C7FF8
0C7FF8
084008
184008
384008
284008
484008
884008
084008
084008
084008
087FF8
084008
084008
084008
084008
084008
084008
084008
084008
084008
084008
084008
084008
087FF8
080000
ENDCHAR
STARTCHAR 4F30
ENCODING 20272
SWIDTH 750 0
DWIDTH 25 0
BBX 23 30 1 -3
BITMAP
018100
010100
030100
030100
020100
060100
0CFFFE
0C0100
1C0100
340100
440100
840100
040100
040100
043FF8
042008
042008
042008
042008
042008
042008
042008
042008
042008
042008
042008
042008
042008
043FF8
040000
ENDCHAR
STARTCHAR 4F32
ENCODING 20274
SWIDTH 750 0
DWIDTH 25 0
BBX 22 31 2 -3
BITMAP
030000
030000
027FF8
064008
064008
044008
0C4008
084008
184008
387FF8
284000
484000
884C00
084C00
084C08
084C18
084C30
08CC60
08CCC0
08CD80
088E00
088C00
088C00
088C00
098C00
090C00
090C00
090C08
0A07FC
0A07FC
080000
ENDCHAR
STARTCHAR 4F34
ENCODING 20276
SWIDTH 750 0
DWIDTH 25 0
BBX 22 31 2 -3
BITMAP
030400
030600
030600
060610
064630
0C4630
0C2620
182640
183640
380600
680600
48FFF8
880600
080600
080600
080600
080600
080600
080600
0BFFFC
080600
080600
080600
080600
080600
080600
080600
080600
080600
080600
080600
ENDCHAR
STARTCHAR 4F36
ENCODING 20278
SWIDTH 750 0
DWIDTH 25 0
BBX 23 30 1 -3
BITMAP
030200
030600
030600
060500
060880
060840
0C1060
0C2030
1C6418
1C820E
2D0202
4C0300
8C0100
0C0000
0C7FF8
0C7FF8
0C0018
0C0030
0C0020
0C0060
0C0040
0C1080
0C0880
0C0900
0C0500
0C0200
0C0100
0C0180
0C00C0
0C0060
ENDCHAR
STARTCHAR 4F38
ENCODING 20280
SWIDTH 720 0
DWIDTH 24 0
BBX 21 31 1 -3
BITMAP
030200
020200
020200
060200
040200
0C0200
08FFF8
088208
188208
188208
288208
488208
888208
08FFF8
088208
088208
088208
088208
088208
088208
08FFF8
080200
080200
080200
080200
080200
080200
080200
080200
080200
080200
ENDCHAR
STARTCHAR 4F3A
ENCODING 20282
SWIDTH 720 0
DWIDTH 24 0
BBX 21 30 1 -4
BITMAP
020000
060000
06FFF8
040008
0C0008
0C0008
080008
19FFC8
180008
280008
480008
880008
080008
087F08
084108
084108
084108
084108
084108
084108
084108
084108
084108
087F08
080008
080008
080008
080008
080008
080008
ENDCHAR
STARTCHAR 4F3C
ENCODING 20284
SWIDTH 750 0
DWIDTH 25 0
BBX 23 30 1 -3
BITMAP
030010
030010
02C010
06C810
06C810
0CC410
0CC610
0CC630
1CC230
3CC230
2CC030
4CC030
8CC020
0CC020
0CC020
0CC060
0CC060
0CC040
0CC040
0CC0C0
0CC0D0
0CC090
0CC188
0CC10C
0CC104
0C4206
0C0406
0C0402
0C0802
081000
ENDCHAR
STARTCHAR 4F3D
ENCODING 20285
SWIDTH 750 0
DWIDTH 25 0
BBX 22 30 1 -3
BITMAP
034000
034000
024000
064000
064000
0440FC
0DFC84
0C4484
1C4484
3C4484
2C4484
4C4484
8C4484
0C4484
0C4484
0C4484
0C4484
0CC484
0CC484
0CC484
0CC484
0CC484
0C8484
0C8484
0C8484
0C8484
0D0484
0D0484
0E04FC
0A0400
ENDCHAR
STARTCHAR 4F43
ENCODING 20291
SWIDTH 750 0
DWIDTH 25 0
BBX 22 30 1 -2
BITMAP
030000
030000
060000
067FFC
044104
0C4104
084104
184104
184104
284104
684104
484104
884104
084104
087FFC
084104
084104
084104
084104
084104
084104
084104
084104
084104
084104
084104
084104
084104
087FFC
080000
ENDCHAR
STARTCHAR 4F46
ENCODING 20294
SWIDTH 750 0
DWIDTH 25 0
BBX 23 29 1 -2
BITMAP
030000
023FF0
062010
062010
0C2010
0C2010
182010
182010
382010
282010
483FF0
882010
082010
082010
082010
082010
082010
082010
082010
082010
083FF0
080000
080000
080000
080000
080000
080000
09FFFE
080000
ENDCHAR
STARTCHAR 4F4D
ENCODING 20301
SWIDTH 750 0
DWIDTH 25 0
BBX 23 30 1 -2
BITMAP
030100
030100
030100
060100
060100
0CFFFC
0C7FF8
1C0000
1C0010
2C0030
4C2030
8C2030
0C1030
0C1020
0C1020
0C1020
0C0820
0C0820
0C0840
0C0840
0C0840
0C0C40
0C0C80
0C0C80
0C0480
0C0000
0C0000
0DFFFE
0DFFFE
080000
ENDCHAR
STARTCHAR 4F4E
ENCODING 20302
SWIDTH 750 0
DWIDTH 25 0
BBX 23 30 1 -3
BITMAP
020000
070038
0600F0
061F80
04E080
0CC080
08C080
18C080
18C080
38C080
28C080
48FFFE
88FFFC
08C080
08C080
08C080
08C080
08C080
08C080
08C080
08C080
08C0C0
08C0C0
08C040
08C040
08C040
08C460
08C622
08C232
08431E
ENDCHAR
STARTCHAR 4F4F
ENCODING 20303
SWIDTH 720 0
DWIDTH 24 0
BBX 22 30 1 -2
BITMAP
030800
030400
060600
060200
040000
0CFFF8
080200
180200
180200
280200
480200
880200
080200
080200
080200
080200
08FFF0
080200
080200
080200
080200
080200
080200
080200
080200
080200
080200
080200
0BFFFC
080000
ENDCHAR
STARTCHAR 4F50
ENCODING 20304
SWIDTH 750 0
DWIDTH 25 0
BBX 23 31 1 -4
BITMAP
030800
030800
060800
060800
060800
041800
0DFFFE
0CFFF8
1C1000
1C1000
2C1000
4C1000
8C3000
0C3000
0C2000
0C3FF8
0C2080
0C6080
0C4080
0C4080
0C4080
0C8080
0C8080
0D0080
0D0080
0D0080
0E0080
0E0080
0C0080
0CFFFE
080000
ENDCHAR
STARTCHAR 4F51
ENCODING 20305
SWIDTH 750 0
DWIDTH 25 0
BBX 23 30 1 -3
BITMAP
030100
070300
060300
060200
040200
0C0200
08FFFE
183FFC
180400
380400
280C00
480C00
880800
081800
081800
081FF8
083808
082808
086808
084808
088808
090808
090808
0A0808
080808
080808
080808
080808
080808
080FF8
ENDCHAR
STARTCHAR 4F53
ENCODING 20307
SWIDTH 720 0
DWIDTH 24 0
BBX 22 31 1 -3
BITMAP
030200
030200
060200
060200
040200
0C0200
09FFFC
181220
181220
281220
681220
481220
883220
083220
083230
082230
082230
082210
086210
084218
084218
084218
089FE8
08820C
09020C
090204
0A0204
080200
080200
080200
080200
ENDCHAR
STARTCHAR 4F55
ENCODING 20309
SWIDTH 750 0
DWIDTH 25 0
BBX 23 30 1 -2
BITMAP
060000
040000
05FFFE
040010
0C0010
080010
180010
180010
380010
387E10
484210
884210
084210
084210
084210
084210
084210
084210
084210
084210
084210
087E10
080010
080010
080010
080010
080010
080010
080010
080010
ENDCHAR
STARTCHAR 4F57
ENCODING 20311
SWIDTH 750 0
DWIDTH 25 0
BBX 23 31 1 -3
BITMAP
008000
018080
018080
010080
033FFE
023FFE
062002
062002
0E2002
1E0000
360800
260C00
C60C00
060C0C
060C18
060C30
060C60
060CC0
060D00
060E00
060C00
060C00
060C00
060C00
060C00
060C00
060C00
060C02
060E06
0607FE
040000
ENDCHAR
STARTCHAR 4F58
ENCODING 20312
SWIDTH 720 0
DWIDTH 24 0
BBX 22 29 1 -2
BITMAP
003000
003000
006800
00C800
00C400
018200
030100
020180
0400C0
09FF60
11FF30
20001C
40000C
800000
000000
7FFFF8
003000
003000
003000
023000
023100
043080
043040
083060
183030
103010
203018
403008
803000
ENDCHAR
STARTCHAR 4F59
ENCODING 20313
SWIDTH 720 0
DWIDTH 24 0
BBX 22 31 1 -4
BITMAP
003000
003000
007000
006800
00C800
00C400
018200
030300
020180
0400C0
080060
13FF30
203018
40300C
803000
003000
7FFFF8
003000
003000
003000
063100
063080
0C3080
0C3040
083060
183030
303010
203018
403018
803000
003000
ENDCHAR
STARTCHAR 4F5A
ENCODING 20314
SWIDTH 750 0
DWIDTH 25 0
BBX 23 30 1 -3
BITMAP
070200
060200
062200
066200
0C6200
0C4200
087FF8
187FE0
184200
388200
688200
488200
880600
080600
09FFFE
080700
080500
080480
080C80
080C80
080840
081840
081860
083020
082030
086010
084018
08800C
09000E
0A0006
ENDCHAR
STARTCHAR 4F5B
ENCODING 20315
SWIDTH 750 0
DWIDTH 25 0
BBX 22 30 1 -4
BITMAP
020880
060880
060880
040880
0DFFF8
0C0888
080888
180888
180888
380888
68FFF8
488880
888880
088880
088880
089880
08FFFC
081884
081084
081084
081084
083084
082084
082084
084084
084084
088080
088080
090080
0A0080
ENDCHAR
STARTCHAR 4F5C
ENCODING 20316
SWIDTH 750 0
DWIDTH 25 0
BBX 22 30 2 -3
BITMAP
023000
033000
062000
062000
046000
0C7FFC
084600
18C600
188600
388600
690600
4A0600
8807F8
080600
080600
080600
080600
080600
080600
0807F8
080600
080600
080600
080600
080600
080600
080600
080600
080600
080600
ENDCHAR
STARTCHAR 4F5D
ENCODING 20317
SWIDTH 720 0
DWIDTH 24 0
BBX 21 30 1 -2
BITMAP
011000
023000
022000
062000
043FF8
0C7FF8
084008
184008
18C008
288008
490008
893F08
082108
082108
082108
082108
082108
082108
082108
082108
082108
083F08
080008
080008
080008
080008
080008
080008
080008
080008
ENDCHAR
STARTCHAR 4F5E
ENCODING 20318
SWIDTH 750 0
DWIDTH 25 0
BBX 23 30 1 -4
BITMAP
020000
030000
067FF0
060000
060000
0C0000
0C0000
0C0000
1CFFFE
3C0000
2C0400
4C0400
8C0C00
0C0C00
0C0800
0FFFFE
0C1860
0C3040
0C3040
0C30C0
0C20C0
0C6080
0C1D80
0C0700
0C0380
0C06C0
0C0C60
0C1038
0C601C
08800C
ENDCHAR
STARTCHAR 4F5F
ENCODING 20319
SWIDTH 780 0
DWIDTH 26 0
BBX 22 30 2 -3
BITMAP
030800
031800
021800
061FF0
061FF0
043020
0C3060
0C6860
1C48C0
3C44C0
6C8580
4D0300
8D0300
0C0780
0C0CC0
0C1860
0C3038
0C441C
0C8204
0F0300
0C0100
0C0180
0C0080
0C1000
0C0800
0C0600
0C0300
0C0100
0C0180
0C00C0
ENDCHAR
STARTCHAR 4F60
ENCODING 20320
SWIDTH 750 0
DWIDTH 25 0
BBX 23 30 1 -2
BITMAP
018400
018C00
010C00
030800
030FFE
061FFE
061006
0E1004
0E1104
162188
264188
464180
860180
061980
061990
061988
061188
063184
063184
062182
066182
064182
064180
068180
060180
060180
060180
060180
060180
040100
ENDCHAR
STARTCHAR 4F63
ENCODING 20323
SWIDTH 750 0
DWIDTH 25 0
BBX 22 30 1 -4
BITMAP
020000
030000
067FFC
064104
044104
0C4104
084104
184104
184104
384104
687FFC
884104
084104
084104
084104
084104
08C104
08C104
08FFFC
08C104
088104
088104
088104
088104
098104
090104
090104
0A0104
0A0104
080104
ENDCHAR
STARTCHAR 4F64
ENCODING 20324
SWIDTH 750 0
DWIDTH 25 0
BBX 23 30 1 -4
BITMAP
020000
030000
06FFFE
063000
043000
0C3000
083000
183000
183FE0
382020
282020
482020
882020
082020
082020
082420
082220
082220
082320
082020
082020
082020
082020
082020
082020
082020
082020
082022
082022
08203E
ENDCHAR
STARTCHAR 4F65
ENCODING 20325
SWIDTH 750 0
DWIDTH 25 0
BBX 22 30 2 -2
BITMAP
002000
006000
006000
00D000
008800
018C00
030600
020300
040380
0801C0
1000E0
27FE30
40001C
800000
000000
008000
004180
084180
042100
042300
063200
063200
021200
030400
030400
000800
000800
000000
FFFFF8
FFFFF8
ENDCHAR
STARTCHAR 4F67
ENCODING 20327
SWIDTH 750 0
DWIDTH 25 0
BBX 23 30 1 -2
BITMAP
018600
010600
030600
020600
0607F8
040600
0C0600
0C0600
1C0600
140600
240600
45FFFE
84FFFC
040600
040600
040600
040600
040680
040640
040620
040610
040618
04060C
04060C
040604
040600
040600
040600
040600
040600
ENDCHAR
STARTCHAR 4F69
ENCODING 20329
SWIDTH 720 0
DWIDTH 24 0
BBX 22 29 1 -2
BITMAP
0C0000
0C0000
0DFFF0
190010
190010
190010
117FD0
310C10
310C10
310C10
513F90
912C90
912C90
112C90
112C90
112C90
112C90
112C90
112C90
132C90
132C90
122C90
122C90
122C90
120C10
120C10
140C18
140C0C
100C0C
ENDCHAR
STARTCHAR 4F6C
ENCODING 20332
SWIDTH 720 0
DWIDTH 24 0
BBX 22 30 1 -2
BITMAP
030C00
020C00
060C08
060C18
04FFD0
0C0C30
080C20
180C60
180CC0
280CC0
480D80
89FFFC
087FF8
080600
080C00
081800
083010
087030
08B060
0930C0
0A3300
083C00
083000
083000
083000
083000
083008
083008
081FF8
0807F0
ENDCHAR
STARTCHAR 4F6F
ENCODING 20335
SWIDTH 750 0
DWIDTH 25 0
BBX 23 30 1 -2
BITMAP
030060
032040
061040
061080
041880
0C0100
08FFF8
187FE0
180200
280200
680200
880200
08FFF0
080200
080200
080200
080200
080200
0BFFFE
080200
080200
080200
080200
080200
080200
080200
080200
080200
080200
080200
ENDCHAR
STARTCHAR 4F70
ENCODING 20336
SWIDTH 750 0
DWIDTH 25 0
BBX 23 30 1 -4
BITMAP
020000
030000
06FFFE
060100
040100
0C0300
080200
180200
183FF8
382008
282008
482008
882008
082008
082008
082008
082008
083FF8
082008
082008
082008
082008
082008
082008
082008
082008
082008
082008
083FF8
080000
ENDCHAR
STARTCHAR 4F73
ENCODING 20339
SWIDTH 750 0
DWIDTH 25 0
BBX 23 30 1 -2
BITMAP
018100
018100
030100
030100
023FFC
060100
040100
0C0100
1C0100
140100
240100
447FFE
847FFE
040000
040100
040100
040100
040100
040100
047FFC
040100
040100
040100
040100
040100
040100
040100
04FFFE
04FFFE
040000
ENDCHAR
STARTCHAR 4F74
ENCODING 20340
SWIDTH 750 0
DWIDTH 25 0
BBX 23 30 1 -4
BITMAP
020000
030000
02FFFC
061030
041030
0C1030
081030
181030
181030
381FF0
681030
881030
081030
081030
081030
081030
081FF0
081030
081030
081030
081030
081030
0810FE
08FFF0
08F030
080030
080030
080030
080030
080020
ENDCHAR
STARTCHAR 4F76
ENCODING 20342
SWIDTH 750 0
DWIDTH 25 0
BBX 23 31 1 -4
BITMAP
030200
030200
060200
060200
040200
0C0200
09FFFE
180200
180200
380200
280200
480200
88FFFC
08FFFC
080000
080000
080000
080000
083FF0
082010
082010
082010
082010
082010
082010
082010
082010
082010
082010
083FF0
080000
ENDCHAR
STARTCHAR 4F7B
ENCODING 20347
SWIDTH 750 0
DWIDTH 25 0
BBX 23 30 1 -3
BITMAP
030980
030980
020980
060980
060980
050988
0C8998
0CC990
1C49A0
3C69C0
2C6980
4C0980
8C0980
0C1980
0C29C0
0C29A0
0C49B0
0CD998
0D9988
0D998C
0C1184
0C1180
0C3180
0C2180
0C2180
0C4180
0C4184
0C8184
0D00FE
0A00FE
ENDCHAR
STARTCHAR 4F7C
ENCODING 20348
SWIDTH 780 0
DWIDTH 26 0
BBX 24 31 1 -4
BITMAP
018100
018100
010100
0301FE
037FFE
020000
060C20
060C20
0E1810
1E1008
36300C
46200C
864836
068826
060860
060460
060440
0602C0
060280
060380
060100
060380
060280
0604C0
060C60
060830
061038
06101C
06200E
064007
048002
ENDCHAR
STARTCHAR 4F7E
ENCODING 20350
SWIDTH 750 0
DWIDTH 25 0
BBX 23 30 1 -3
BITMAP
020000
031900
061080
063080
063040
0C2040
086020
184030
188018
39000C
2A7FEE
487FE0
884020
084020
084020
087FE0
084020
084020
084020
084020
084020
087FE0
084020
084020
084020
084020
084020
084020
084020
084020
ENDCHAR
STARTCHAR 4F7F
ENCODING 20351
SWIDTH 750 0
DWIDTH 25 0
BBX 23 30 1 -3
BITMAP
020000
060100
060100
060100
05FFFE
0C0100
080100
180100
180100
387FF8
284108
484108
884108
084108
084108
087FF8
080300
080300
080300
084200
082200
081600
080E00
080600
080F00
081980
0810E0
082070
08401E
088006
ENDCHAR
STARTCHAR 4F83
ENCODING 20355
SWIDTH 750 0
DWIDTH 25 0
BBX 23 30 1 -3
BITMAP
020000
030000
060000
067FF0
064010
0C4010
0C4010
184010
184010
384010
284010
487FF0
880000
080000
082200
082310
082310
082310
082310
082310
082310
082310
084310
084310
084310
084310
088310
088314
090314
0A021E
ENDCHAR
STARTCHAR 4F84
ENCODING 20356
SWIDTH 750 0
DWIDTH 25 0
BBX 23 31 1 -4
BITMAP
020000
030000
060000
06FFF8
060600
0C0400
0C0C00
080800
181800
181020
382010
682030
487FD8
887C08
080008
080200
080300
080300
080300
0803F8
08FFF8
080300
080300
080300
080300
080300
080300
080300
080300
09FFFE
08FFFC
ENDCHAR
STARTCHAR 4F88
ENCODING 20360
SWIDTH 750 0
DWIDTH 25 0
BBX 22 31 2 -3
BITMAP
000400
030400
030C00
020FF8
061818
041010
0C3030
0C4860
1C0C40
1C04C0
2C0180
4C0600
8C0C00
0C3200
0CC200
0C0600
0C07FC
0C0FFC
0C1808
0C1018
0C2810
0C4430
0C0220
0C0240
0C0080
0C0100
0C0600
0C0C00
0C3000
08C000
010000
ENDCHAR
STARTCHAR 4F89
ENCODING 20361
SWIDTH 750 0
DWIDTH 25 0
BBX 23 30 1 -3
BITMAP
020400
060600
060400
040400
05FFFC
0CFFF8
080880
181840
183060
382030
284FD8
48800E
890004
080000
080000
09FFFC
081000
081000
081000
081000
081FF0
080010
080010
080010
080010
080010
080010
080010
080010
080010
ENDCHAR
STARTCHAR 4F8B
ENCODING 20363
SWIDTH 750 0
DWIDTH 25 0
BBX 22 30 1 -3
BITMAP
040004
0C0004
0DFF04
0C6004
086044
084044
184044
184044
187E44
38C644
38C644
588444
988444
188444
194444
194C44
1A2C44
1A0C44
180844
180844
181844
181044
181044
183044
182004
184004
184004
188004
190004
110004
ENDCHAR
STARTCHAR 4F8D
ENCODING 20365
SWIDTH 750 0
DWIDTH 25 0
BBX 23 30 1 -2
BITMAP
030100
030100
020100
060100
06FFF8
0C0100
0C0100
1C0100
1C0100
2C0100
4DFFFE
8C0000
0C0040
0C0040
0C0040
0C0040
0CFFFE
0C0040
0C0040
0C4040
0C2040
0C1040
0C1840
0C0840
0C0840
0C0040
0C0040
0C0040
0C0040
080040
ENDCHAR
STARTCHAR 4F8F
ENCODING 20367
SWIDTH 720 0
DWIDTH 24 0
BBX 22 31 1 -3
BITMAP
030200
030200
020200
063200
063200
0C2200
087FF0
087FC0
184200
384200
288200
480200
880200
09FFF8
081280
081280
083240
083240
083240
082240
086260
086220
084230
084230
088218
088218
09021C
0A020C
080208
080200
080200
ENDCHAR
STARTCHAR 4F91
ENCODING 20369
SWIDTH 750 0
DWIDTH 25 0
BBX 23 30 1 -2
BITMAP
030600
030600
030400
060C00
06FFFE
0C7FF8
080800
181800
181000
381000
283FF0
483010
887010
085010
089010
091FF0
091010
081010
081010
081010
081010
081FF0
081010
081010
081010
081010
081010
081010
081010
081010
ENDCHAR
STARTCHAR 4F94
ENCODING 20372
SWIDTH 750 0
DWIDTH 25 0
BBX 23 30 1 -2
BITMAP
010600
030C00
020C00
061840
041020
0C2030
0C4030
1CFFD8
1C4008
2C0208
4C2300
8C2300
0C2300
0C6300
0C7FF8
0C4300
0C8300
0C8300
0D0300
0C0300
0DFFFE
0C0300
0C0300
0C0300
0C0300
0C0300
0C0300
0C0300
0C0300
080200
ENDCHAR
STARTCHAR 4F97
ENCODING 20375
SWIDTH 750 0
DWIDTH 25 0
BBX 22 30 1 -4
BITMAP
020000
030000
06FFFC
068004
048004
0C8004
088004
18BFE4
188004
388004
288004
488004
888FC4
088844
088844
088844
088844
088844
088844
088844
088844
088844
088844
088FC4
088004
088004
088004
088004
088004
088004
ENDCHAR
STARTCHAR 4F9B
ENCODING 20379
SWIDTH 750 0
DWIDTH 25 0
BBX 23 30 1 -2
BITMAP
031020
031020
021020
061020
061020
0C1020
0CFFFC
1C1020
1C1020
2C1020
4C1020
8C1020
0C1020
0C1020
0C1020
0C1020
0DFFFE
0DFFFE
0C0000
0C0000
0C1840
0C1820
0C1820
0C3010
0C3010
0C2008
0C4008
0C400C
0C8004
090004
ENDCHAR
STARTCHAR 4F9D
ENCODING 20381
SWIDTH 750 0
DWIDTH 25 0
BBX 23 31 1 -4
BITMAP
030000
030100
030100
060100
060100
06FFFC
0C0300
0C0600
1C0600
1C0400
3C0C00
2C0900
4C1908
8C110C
0C1118
0C3090
0C30A0
0C50C0
0C9040
0C9040
0D1040
0E1060
0C1020
0C1030
0C1010
0C1018
0C1008
0C100C
0C1004
0C1006
081000
ENDCHAR
STARTCHAR 4FA0
ENCODING 20384
SWIDTH 750 0
DWIDTH 25 0
BBX 23 30 1 -2
BITMAP
030200
030200
030300
060300
060300
04FFFC
0C0300
0C0300
1C4318
3C2310
2C2310
4C3220
8C3220
0C1240
0C0200
0DFFFE
0DFFFE
0C0600
0C0600
0C0480
0C0480
0C0C80
0C0840
0C1860
0C1020
0C3030
0C6018
0C400C
0C800E
090004
ENDCHAR
STARTCHAR 4FA3
ENCODING 20387
SWIDTH 750 0
DWIDTH 25 0
BBX 23 30 1 -2
BITMAP
018000
013FF8
033008
033008
023008
063008
043008
0C3008
0C3008
143008
243008
443FF8
840000
040000
040000
040000
047FFE
044006
044006
044006
044006
044006
044006
044006
044006
044006
044006
044006
047FFE
040000
ENDCHAR
STARTCHAR 4FA5
ENCODING 20389
SWIDTH 750 0
DWIDTH 25 0
BBX 23 30 1 -3
BITMAP
008800
018C00
010C00
030C1C
0307F8
067F80
04FE08
0C0218
0C0330
140360
2401C0
440380
8406C4
04187C
04603E
040000
04FFFC
0408C0
0408C0
0408C0
0408C0
0418C0
0418C0
0410C0
0410C0
0430C0
0420C0
0440C4
048044
04007E
ENDCHAR
STARTCHAR 4FA6
ENCODING 20390
SWIDTH 750 0
DWIDTH 25 0
BBX 22 30 2 -3
BITMAP
010600
030600
020600
0607FC
060600
040600
0C0600
0C0600
1C7FF0
3C4010
6C4010
4C4210
8C4610
0C4610
0C4610
0C4610
0C4610
0C4610
0C4610
0C4610
0C4610
0C0600
0C0400
0C0C40
0C0820
0C1830
0C1010
0C2008
0C400C
088000
ENDCHAR
STARTCHAR 4FA7
ENCODING 20391
SWIDTH 750 0
DWIDTH 25 0
BBX 21 31 2 -4
BITMAP
060008
060008
05FE08
0D0208
0D0248
091248
191248
191248
391248
391248
591248
991248
191248
191248
193248
193248
193248
193248
182048
182048
182048
186048
185048
184808
18C608
188308
188108
190008
190008
120008
100008
ENDCHAR
STARTCHAR 4FA8
ENCODING 20392
SWIDTH 750 0
DWIDTH 25 0
BBX 23 30 1 -2
BITMAP
020038
0601E0
063F00
040600
0C0600
0C0400
080400
19FFFC
18FFFC
280880
681880
4810C0
881060
082020
082030
085058
08904E
081044
081040
081040
083040
083040
082040
082040
082040
084040
084040
088040
088040
080040
ENDCHAR
STARTCHAR 4FA9
ENCODING 20393
SWIDTH 750 0
DWIDTH 25 0
BBX 22 30 2 -3
BITMAP
010200
030600
030600
020D00
060D00
041880
0C1040
0C3060
1C2030
3C4018
2C800C
4D3FE4
8C0000
0C0000
0C0000
0C0000
0C0000
0DFFFC
0C0C00
0C0C00
0C0800
0C1800
0C1880
0C1040
0C2020
0C2010
0C4010
0C43E8
0CFE08
08E00C
ENDCHAR
STARTCHAR 4FAA
ENCODING 20394
SWIDTH 750 0
DWIDTH 25 0
BBX 23 31 1 -3
BITMAP
020000
030100
060100
06FFFC
06FFFC
0C1020
0C1060
080840
180CC0
180680
280380
680380
4806C0
880860
081038
08601E
089024
081020
081020
081020
081020
083020
083020
083020
082020
082020
082020
084020
084020
088020
080020
ENDCHAR
STARTCHAR 4FAC
ENCODING 20396
SWIDTH 750 0
DWIDTH 25 0
BBX 23 30 1 -3
BITMAP
030100
030300
060300
060200
06FFFC
0C8204
0C8604
1C8404
1C8404
3C0C00
2C0E00
4C0908
8C190C
0C1918
0C3930
0C38A0
0C68C0
0C4880
0C8840
0C8840
0D0860
0E0820
0C0830
0C0810
0C0818
0C0808
0C080C
0C0804
0C0806
080800
ENDCHAR
STARTCHAR 4FAE
ENCODING 20398
SWIDTH 750 0
DWIDTH 25 0
BBX 23 30 1 -3
BITMAP
033000
033000
066000
067FFC
044000
0CC000
088000
197FF0
196010
2A6010
286210
486210
886110
086010
086010
0BFFFE
086010
086010
086210
086110
086190
086110
086010
087FFC
080010
080010
080010
080010
080010
080010
ENDCHAR
STARTCHAR 4FAF
ENCODING 20399
SWIDTH 750 0
DWIDTH 25 0
BBX 23 30 1 -3
BITMAP
030000
030000
067FC0
060040
060040
040040
0C0040
0DFFFE
1C0000
1C1000
2C3000
4C2000
8C7FF8
0C4200
0C4200
0C8200
0C0200
0C0200
0DFFFE
0C0700
0C0480
0C0480
0C0CC0
0C0840
0C1860
0C1030
0C2010
0C4018
0C800C
090006
ENDCHAR
STARTCHAR 4FB5
ENCODING 20405
SWIDTH 750 0
DWIDTH 25 0
BBX 22 30 1 -3
BITMAP
020000
030000
067FF0
060010
040010
0C3FF0
080010
180010
180010
387FF0
280000
480000
880000
08FFFC
088004
088004
080000
087FF0
082060
081060
0808C0
0808C0
080580
080300
080300
0804C0
080860
081030
08601C
08800C
ENDCHAR
STARTCHAR 4FBF
ENCODING 20415
SWIDTH 750 0
DWIDTH 25 0
BBX 23 31 1 -4
BITMAP
020000
030000
060000
06FFFE
060100
0C0100
0C0100
187FF8
184108
384108
284108
484108
887FF8
084108
084108
084108
084108
084108
087FF8
080300
080300
084200
082600
081E00
080C00
080F00
081980
0830E0
08603C
08800E
090000
ENDCHAR
STARTCHAR 4FC3
ENCODING 20419
SWIDTH 720 0
DWIDTH 24 0
BBX 22 31 1 -3
BITMAP
010000
030000
033FF0
022010
062010
062010
042010
0C2010
0C2010
1C2010
1C2010
2C2010
4C3FF0
8C0300
0C0300
0C0300
0C2300
0C2300
0C2300
0C23FC
0C6300
0C6300
0C4300
0C4300
0CE300
0CA300
0C9300
0D1300
0D0F00
0E03FC
0A0000
ENDCHAR
STARTCHAR 4FC4
ENCODING 20420
SWIDTH 750 0
DWIDTH 25 0
BBX 23 30 1 -2
BITMAP
030180
060780
061D80
0671A0
043190
0C3198
083188
183180
183180
39FFFE
68FFF8
483080
883080
083080
08328C
083488
083898
083098
0870B0
08F0B0
09B0E0
0830E0
083040
0830C0
0830C0
083160
083162
083234
08343C
08300E
ENDCHAR
STARTCHAR 4FC5
ENCODING 20421
SWIDTH 750 0
DWIDTH 25 0
BBX 23 31 1 -3
BITMAP
030200
030340
020320
060330
060310
040310
0C0300
0DFFFC
1C0300
1C0300
3C0300
2C830C
4C4308
8C6318
0C23B0
0C33E0
0C1380
0C0740
0C0B40
0C0B60
0C1320
0C3330
0C2318
0C6318
0CC30C
0D8304
0D0306
0C0300
0C0300
0C0300
080200
ENDCHAR
STARTCHAR 4FCA
ENCODING 20426
SWIDTH 750 0
DWIDTH 25 0
BBX 23 31 1 -3
BITMAP
030600
030600
030C00
061800
061020
042010
0C40F8
0CFF88
1C0008
1C3040
2C3020
4C6010
8C4018
0C980C
0D1008
0C3FF0
0C3FF0
0C3020
0C7060
0C4840
0C8CC0
0D0580
0D0300
0C0300
0C0780
0C0CC0
0C1860
0C3030
0C401C
0C800E
0B0004
ENDCHAR
STARTCHAR 4FCE
ENCODING 20430
SWIDTH 720 0
DWIDTH 24 0
BBX 22 30 1 -4
BITMAP
040000
0C1FF0
0C1010
0C1010
081010
081010
1C1010
1E1010
121010
311010
219FF0
20D010
441010
8C1010
0C1010
0C1010
081010
081010
1C1FF0
1C1010
121010
131010
119010
219010
20D010
20D010
401010
401010
80FFFC
800000
ENDCHAR
STARTCHAR 4FCF
ENCODING 20431
SWIDTH 720 0
DWIDTH 24 0
BBX 20 30 1 -3
BITMAP
030200
030310
024330
062330
043320
0C3340
081B40
180300
187FF0
387FF0
284010
484010
884010
084010
084010
087FF0
084010
084010
084010
084010
084010
087FF0
084010
084010
084010
084010
084010
084010
084010
084010
ENDCHAR
STARTCHAR 4FD0
ENCODING 20432
SWIDTH 720 0
DWIDTH 24 0
BBX 21 31 1 -3
BITMAP
0C0008
0C0608
0C0C08
083808
19F008
183008
103048
103048
303048
303048
37FE48
51FC48
91B048
11B048
11B848
113C48
113448
113648
113248
123048
123048
123048
143048
143048
103008
103008
103008
103008
103008
103008
102008
ENDCHAR
STARTCHAR 4FD1
ENCODING 20433
SWIDTH 720 0
DWIDTH 24 0
BBX 21 30 1 -2
BITMAP
030000
027FF8
060030
060060
0404C0
0C0280
080100
180180
387FF8
284108
484108
884108
084108
084108
087FF8
084108
084108
084108
084108
084108
087FF8
084108
084108
084108
084108
084108
084108
084108
084108
084008
ENDCHAR
STARTCHAR 4FD7
ENCODING 20439
SWIDTH 750 0
DWIDTH 25 0
BBX 23 29 1 -2
BITMAP
018C00
010840
031820
031010
063010
062008
0C4308
0C470C
148680
240480
440C40
840860
041020
041030
042018
04400C
048006
040004
043FF0
042010
042010
042010
042010
042010
042010
042010
042010
042010
043FF0
ENDCHAR
STARTCHAR 4FD8
ENCODING 20440
SWIDTH 750 0
DWIDTH 25 0
BBX 23 30 1 -3
BITMAP
020000
030078
0603E0
063E00
064018
0C0410
084210
182320
183020
380040
280000
487FF0
880030
080060
0800C0
080180
080300
080200
09FFFE
08FFF8
080200
080200
080200
080200
080200
080200
080200
080200
080200
080200
ENDCHAR
STARTCHAR 4FDA
ENCODING 20442
SWIDTH 750 0
DWIDTH 25 0
BBX 23 31 1 -4
BITMAP
020000
070000
067FF0
064210
044210
0C4210
084210
184210
187FF0
384210
284210
484210
484210
884210
084210
087FF0
080200
080200
080200
080200
080200
08FFF8
080200
080200
080200
080200
080200
080200
080200
0BFFFE
080000
ENDCHAR
STARTCHAR 4FDC
ENCODING 20444
SWIDTH 750 0
DWIDTH 25 0
BBX 23 30 1 -3
BITMAP
018100
010100
030100
033FF8
062108
062108
0C2108
0C3FF8
1C2108
142108
242108
443FF8
843FF8
040000
040000
040000
05FFFE
041000
041000
041000
041FF0
040010
040010
040010
040010
040010
040010
040010
040010
040010
ENDCHAR
STARTCHAR 4FDD
ENCODING 20445
SWIDTH 750 0
DWIDTH 25 0
BBX 22 30 2 -3
BITMAP
0E0000
0C7FE0
0C4020
0C4020
184020
184020
104020
304020
304020
507FE0
900400
900400
100400
100400
13FFFC
103480
102480
102480
1064C0
106440
104440
104460
108420
108430
110418
110418
12040C
140404
140400
100400
ENDCHAR
STARTCHAR 4FDE
ENCODING 20446
SWIDTH 720 0
DWIDTH 24 0
BBX 22 30 1 -2
BITMAP
003000
006000
00D000
018C00
030600
060180
0C00C0
13FE30
63FE0C
800000
000020
000020
1FC020
104220
104220
104220
104220
1FC220
104220
104220
104220
104220
1FC220
104220
104220
104220
104020
104020
104020
104020
ENDCHAR
STARTCHAR 4FDF
ENCODING 20447
SWIDTH 750 0
DWIDTH 25 0
BBX 22 30 2 -3
BITMAP
010600
030600
030C00
020800
061840
043020
0C2030
0C41F0
1CFF18
3C1018
2C3000
4C3000
8C2000
0C7FF8
0C4200
0C4200
0C8200
0D0600
0C0600
0DFFFC
0C0700
0C0500
0C0C80
0C0880
0C1840
0C1020
0C3030
0C2018
0C400C
088004
ENDCHAR
STARTCHAR 4FE1
ENCODING 20449
SWIDTH 750 0
DWIDTH 25 0
BBX 22 30 2 -3
BITMAP
020000
030200
060200
060200
05FFFC
0CFFF8
080000
180000
180000
387FF8
280000
480000
880000
080000
087FF8
080000
080000
080000
080000
083FF0
082010
082010
082010
082010
082010
082010
082010
082010
082010
083FF0
ENDCHAR
STARTCHAR 4FE3
ENCODING 20451
SWIDTH 750 0
DWIDTH 25 0
BBX 23 31 1 -4
BITMAP
010000
018000
011FF0
031010
031010
061010
041010
0C1010
0C1010
141FF0
240000
240000
C40000
040000
047FF8
040200
040200
040200
040600
04FFFE
040700
040480
040480
040CC0
040860
041860
041030
042018
04600C
04C004
050000
ENDCHAR
STARTCHAR 4FE6
ENCODING 20454
SWIDTH 750 0
DWIDTH 25 0
BBX 23 31 1 -3
BITMAP
008100
018300
018300
010300
037FFC
020200
060200
060600
0E3FF8
1E1FF8
160400
260400
460C00
86FFFE
060800
060820
061020
061020
063020
062FFE
062020
064020
064820
068420
068620
070620
060220
060020
060020
060020
040020
ENDCHAR
STARTCHAR 4FE8
ENCODING 20456
SWIDTH 750 0
DWIDTH 25 0
BBX 23 30 1 -3
BITMAP
030000
06FFFE
0604C0
0604C0
0C84C8
0C44C8
0864C8
1824D0
3834D0
2804C0
4804C0
88FFFE
08FFFE
08C000
08C000
08C000
08C000
08C000
08C000
08C000
08C000
08C000
088000
088000
088000
088000
090000
090000
0A0000
080000
ENDCHAR
STARTCHAR 4FE9
ENCODING 20457
SWIDTH 720 0
DWIDTH 24 0
BBX 22 30 1 -3
BITMAP
080000
0C0000
0BFFFC
080880
180880
180880
100880
100880
31FFF8
318888
518888
518888
918888
119888
119888
119988
1199C8
1195C8
119548
119568
11A568
11A528
11A208
118208
118208
118008
118008
118008
118008
110008
ENDCHAR
STARTCHAR 4FEA
ENCODING 20458
SWIDTH 720 0
DWIDTH 24 0
BBX 22 30 1 -4
BITMAP
080000
0C0000
0BFFFC
080000
180000
180000
11F9F8
310908
310908
310908
510908
910908
914948
114948
116968
116928
116928
113938
113938
110908
110908
110908
110908
110908
110908
110908
110908
110908
110908
110908
ENDCHAR
STARTCHAR 4FED
ENCODING 20461
SWIDTH 750 0
DWIDTH 25 0
BBX 22 30 2 -3
BITMAP
010200
030200
030600
020500
060D00
040880
0C1040
0C3060
1C2030
3C4018
2C800C
4C3FC4
8C0000
0C0000
0C0800
0C0400
0C0430
0C8420
0C4220
0C4260
0C6260
0C2240
0C3040
0C3040
0C3080
0C0080
0C0000
0C0000
0C0000
0DFFFC
ENDCHAR
STARTCHAR 4FEE
ENCODING 20462
SWIDTH 750 0
DWIDTH 25 0
BBX 23 30 1 -3
BITMAP
020600
060600
060400
060FF8
040810
0C0C30
081430
199260
19A360
39A1C0
298180
4981C0
898270
098C18
09988E
09A180
098300
098600
098C30
099860
0980C0
098184
09830C
098418
099830
080060
0800C0
080300
080C00
083000
ENDCHAR
STARTCHAR 4FEF
ENCODING 20463
SWIDTH 750 0
DWIDTH 25 0
BBX 23 30 1 -1
BITMAP
030100
030100
060100
06FFFE
04FFFC
0CC208
08C608
18C608
18C608
38C408
68CC08
48CDFE
88DC08
08DC08
08EC08
08ED08
08CD88
08CC88
08CC88
08CCC8
08CCC8
088C08
088C08
088C08
088C08
088C08
090C08
090C08
090C08
080808
ENDCHAR
STARTCHAR 4FF1
ENCODING 20465
SWIDTH 750 0
DWIDTH 25 0
BBX 23 29 1 -2
BITMAP
010000
033FF0
022010
062010
042010
0C3FF0
0C2010
1C2010
3C2010
2C2010
4C3FF0
8C2010
0C2010
0C2010
0C2010
0C3FF0
0C2010
0C2010
0C2010
0C2010
0DFFFE
0C0000
0C0880
0C1840
0C1020
0C3010
0C6018
0C400C
088004
ENDCHAR
STARTCHAR 4FF3
ENCODING 20467
SWIDTH 720 0
DWIDTH 24 0
BBX 22 31 1 -3
BITMAP
030880
0308C0
0208C0
0608C0
0608C0
0C08C0
0DF8FC
1808C0
1808C0
3808C0
2808C0
4808C0
8808C0
08F8F8
0808C0
0808C0
0808C0
0808C0
0808C0
0808C0
0808C0
09F8FC
0808C0
0808C0
0808C0
0808C0
0808C0
0808C0
0808C0
0808C0
080880
ENDCHAR
STARTCHAR 4FF8
ENCODING 20472
SWIDTH 720 0
DWIDTH 24 0
BBX 23 30 1 -1
BITMAP
030200
060200
060200
06FFF8
0C0600
0C0600
080400
187FF8
181FF0
380C00
280800
49FFFC
881080
081040
082260
082220
084230
084218
089FEC
090206
0A0200
080200
080200
08FFF8
080200
080200
080200
080200
080200
080200
ENDCHAR
STARTCHAR 4FFA
ENCODING 20474
SWIDTH 750 0
DWIDTH 25 0
BBX 23 31 1 -4
BITMAP
020400
060600
060400
040C00
05FFFC
0C7FF8
081880
181040
183040
382220
284210
68C218
89020C
0A7FF0
084210
084210
084210
087FF0
084210
084210
084210
084210
087FF0
080200
080200
080200
080204
080204
080304
0803FE
080000
ENDCHAR
STARTCHAR 4FFE
ENCODING 20478
SWIDTH 750 0
DWIDTH 25 0
BBX 22 31 2 -3
BITMAP
020C00
060C00
040800
0CFFE0
0C8420
188420
108420
308420
30FFE0
508420
D08420
908420
108C20
10FFE0
10FFE0
101800
101200
102200
104200
100200
13FFFC
100200
100200
100200
100200
100200
100200
100200
100200
100200
100200
ENDCHAR
STARTCHAR 500C
ENCODING 20492
SWIDTH 750 0
DWIDTH 25 0
BBX 22 30 1 -3
BITMAP
030100
020100
060100
067FFC
0C7FFC
0C4004
084004
184004
383FF0
283010
483010
883010
083010
083010
083FF0
083000
083000
083000
083000
083FF8
083008
083008
083008
083008
083008
083008
083008
083008
083FF8
080000
ENDCHAR
STARTCHAR 500D
ENCODING 20493
SWIDTH 750 0
DWIDTH 25 0
BBX 22 31 2 -4
BITMAP
020400
060400
060400
0407F0
0DFFF0
080000
180040
184040
3820C0
383080
581100
980200
1BFFFC
1BFFFC
180000
180000
180000
187FE0
184020
184020
184020
184020
184020
184020
184020
184020
184020
184020
184020
187FE0
100000
ENDCHAR
STARTCHAR 500F
ENCODING 20495
SWIDTH 750 0
DWIDTH 25 0
BBX 22 30 2 -3
BITMAP
040400
060C00
040C00
0C0FF0
0C1830
081820
181860
192460
3922C0
394380
790180
D903C0
190660
190C38
19110C
196120
190120
190330
190300
197FFC
193FF8
190200
190600
190780
1904C0
180C60
180830
181010
181018
182008
ENDCHAR
STARTCHAR 5012
ENCODING 20498
SWIDTH 750 0
DWIDTH 25 0
BBX 22 31 1 -3
BITMAP
040004
0C0004
0C0004
0FFE04
0C3004
082004
186844
184844
18C444
388444
390C44
7BF644
5BE644
980244
181044
181044
181044
1BFE44
1BFE44
181044
181044
181044
181044
181044
181004
181104
181604
181804
1BE004
1B8004
100004
ENDCHAR
STARTCHAR 5014
ENCODING 20500
SWIDTH 750 0
DWIDTH 25 0
BBX 22 30 1 -2
BITMAP
030000
027FF8
064008
064008
044008
0C4008
084008
187FF8
184000
284080
484080
884888
084888
084888
084888
084888
08C888
08CFF8
08CFF8
088080
088080
089084
089084
099084
091084
091084
091084
0A1084
0A1FFC
081FFC
ENDCHAR
STARTCHAR 5018
ENCODING 20504
SWIDTH 720 0
DWIDTH 24 0
BBX 21 30 1 -2
BITMAP
030200
020308
068318
064318
046310
0C6320
083320
180340
18FFF8
28FFF8
288008
488008
888008
088008
088F88
088888
088888
088888
088888
088888
088888
088888
088F88
088008
088008
088008
088008
088008
088008
088008
ENDCHAR
STARTCHAR 5019
ENCODING 20505
SWIDTH 720 0
DWIDTH 24 0
BBX 22 30 1 -2
BITMAP
0C0000
0C0000
083FC0
080040
180040
180040
130040
337FFC
330000
330800
531800
531800
931FF8
131100
132100
132100
130100
130300
137FFC
130380
130380
130240
130640
130660
100C20
100830
101818
103018
10400C
108004
ENDCHAR
STARTCHAR 501A
ENCODING 20506
SWIDTH 750 0
DWIDTH 25 0
BBX 23 30 1 -3
BITMAP
030200
030200
030200
060600
06FFFC
043FF8
0C0500
0C0C80
1C1860
1C1030
2C2018
4C4008
8C0000
0DFFFE
0C0010
0C0010
0C0010
0C7F10
0C4110
0C4110
0C4110
0C4110
0C4110
0C4110
0C7F10
0C0010
0C0010
0C0010
0C0010
080010
ENDCHAR
STARTCHAR 501C
ENCODING 20508
SWIDTH 750 0
DWIDTH 25 0
BBX 22 30 1 -3
BITMAP
030000
027FFC
064004
064004
044104
0C4104
084104
185FE4
184104
284104
684104
484104
8841F4
085FF4
084004
084004
084004
084FC4
08C844
08C844
08C844
08C844
08C844
088844
088FC4
098004
090004
090004
0A0004
040000
ENDCHAR
STARTCHAR 501F
ENCODING 20511
SWIDTH 750 0
DWIDTH 25 0
BBX 23 31 1 -4
BITMAP
030040
030840
020840
060840
060840
0CFFF8
0C0840
180840
180840
380840
280840
49FFFE
89FFFE
080000
080000
080000
083FF0
082010
082010
082010
082010
082010
083FF0
082010
082010
082010
082010
082010
082010
083FF0
080000
ENDCHAR
STARTCHAR 5021
ENCODING 20513
SWIDTH 720 0
DWIDTH 24 0
BBX 21 31 1 -4
BITMAP
020000
030000
023FF0
062010
062010
042010
0C2010
083FF0
182010
182010
282010
482010
883FF0
080000
080000
080000
08FFF8
088008
088008
088008
088008
088008
08FFF8
088008
088008
088008
088008
088008
088008
08FFF8
080000
ENDCHAR
STARTCHAR 5025
ENCODING 20517
SWIDTH 750 0
DWIDTH 25 0
BBX 22 30 2 -3
BITMAP
030200
030200
020200
06FFF8
04C008
0CC008
0CC008
1CC808
1C0840
2C1820
4C1010
8C2018
0C4010
0C0000
0C0000
0C7FF0
0C0200
0C0200
0C0200
0C0200
0C0200
0C0200
0C0200
0C0200
0C0200
0C0200
0C0200
0C0200
0DFFFC
080000
ENDCHAR
STARTCHAR 5026
ENCODING 20518
SWIDTH 750 0
DWIDTH 25 0
BBX 23 30 1 -2
BITMAP
070600
064630
062620
063620
0C1640
0C0400
08FFFC
187FF0
180C00
380800
680800
49FFFE
881080
083040
082060
086030
085FD8
08904C
091046
0A1042
081040
081040
081040
081040
081000
081000
081010
081010
081FF8
080000
ENDCHAR
STARTCHAR 5028
ENCODING 20520
SWIDTH 750 0
DWIDTH 25 0
BBX 23 30 1 -3
BITMAP
030000
027FF8
066008
066008
046008
086008
187FF8
186000
386000
286080
486080
886080
086080
087FFE
084080
084080
084080
084080
0840F8
08CFF8
08C808
08C808
088808
088808
088808
088808
090808
090808
090FF8
080000
ENDCHAR
STARTCHAR 5029
ENCODING 20521
SWIDTH 750 0
DWIDTH 25 0
BBX 23 30 1 -3
BITMAP
018100
030100
030100
027FFC
060100
040100
0C3FF8
0C0100
1C0100
340100
65FFFE
840000
040000
040000
043FF0
042010
042010
042010
043FF0
042010
042010
042010
043FF0
042010
042010
042010
042010
042010
042010
042010
ENDCHAR
STARTCHAR 502A
ENCODING 20522
SWIDTH 750 0
DWIDTH 25 0
BBX 22 30 1 -3
BITMAP
030C00
031C00
0671F0
06C010
04C010
0CC010
08C010
18C010
18F9F0
28C010
28C010
48C010
88C010
08C010
08FFF0
08FFF0
081080
081080
081080
083080
083080
083080
082080
082080
086080
084080
084080
088088
09008C
0A007C
ENDCHAR
STARTCHAR 502C
ENCODING 20524
SWIDTH 750 0
DWIDTH 25 0
BBX 23 30 1 -3
BITMAP
018200
010300
030300
0303FC
020300
060300
040300
0C3FF8
0C2008
142008
242008
442008
843FF8
042008
042008
042008
043FF8
040100
040100
040100
040100
05FFFE
040100
040100
040100
040100
040100
040100
040100
040100
ENDCHAR
STARTCHAR 502D
ENCODING 20525
SWIDTH 750 0
DWIDTH 25 0
BBX 23 30 1 -2
BITMAP
020030
0200E0
020780
067E00
060200
040200
0DFFFC
0CFFFC
1C1A40
1C1220
2C3230
4C2218
8C420E
0C8206
0C0000
0C0C00
0C0800
0DFFFE
0C1860
0C1060
0C10C0
0C30C0
0C1180
0C0D80
0C0300
0C07C0
0C0460
0C1838
0C300C
08C004
ENDCHAR
STARTCHAR 502E
ENCODING 20526
SWIDTH 720 0
DWIDTH 24 0
BBX 22 31 1 -4
BITMAP
020000
030000
027FF0
064210
064210
0C4210
0C4210
087FF0
184210
384210
284210
484210
887FF0
080200
080200
080200
080200
09FFFC
083240
083240
083240
082260
086220
084220
084230
088218
088218
09020C
0A020C
0A0200
080200
ENDCHAR
STARTCHAR 503A
ENCODING 20538
SWIDTH 780 0
DWIDTH 26 0
BBX 23 31 2 -2
BITMAP
010200
030200
020200
06FFF8
060200
040200
0C0200
1C3FF0
1C0200
2C0200
4C0200
8DFFFE
0C7FFC
0C0000
0C0000
0C3FF0
0C2010
0C2210
0C2210
0C2210
0C2210
0C2610
0C2610
0C2410
0C0400
0C0840
0C0820
0C1010
0C2018
0C400C
008000
ENDCHAR
STARTCHAR 503C
ENCODING 20540
SWIDTH 750 0
DWIDTH 25 0
BBX 22 30 2 -2
BITMAP
060400
060400
040400
0DFFF8
0C0400
180400
100400
300400
307FE0
707FE0
D04020
904020
104020
107FE0
104020
104020
104020
104020
107FE0
104020
104020
104020
107FE0
104020
104020
104020
104020
104020
13FFFC
100000
ENDCHAR
STARTCHAR 503E
ENCODING 20542
SWIDTH 750 0
DWIDTH 25 0
BBX 23 30 1 -3
BITMAP
040000
0C0000
0C1FFE
0D0040
0980C0
098080
198080
1987F8
198408
398408
398448
59E448
598448
998448
198448
198448
1984C8
1984C8
1984C8
198488
198488
198080
198180
198120
198110
198310
198218
18040C
18080C
180004
ENDCHAR
STARTCHAR 5043
ENCODING 20547
SWIDTH 750 0
DWIDTH 25 0
BBX 23 30 1 -3
BITMAP
020000
030000
06FFFC
06C000
06C000
0CCFF8
0CC808
08C808
18C808
38CFF8
28C808
48C808
88CFF8
08C000
08C100
08C100
08C300
08FFFC
08C630
08C630
08CC30
08CC60
08C760
08C1C0
08C1F0
08C318
08CC0C
08D000
08C000
08FFFE
ENDCHAR
STARTCHAR 5047
ENCODING 20551
SWIDTH 750 0
DWIDTH 25 0
BBX 22 31 1 -3
BITMAP
040000
0C0000
09FDF8
098408
098408
198408
118408
118408
318408
31FDF8
518000
918000
918000
118000
1183F8
11FD08
118118
118118
118118
118198
1180B0
11FCB0
1180F0
118060
118060
1180F0
1181B0
118118
11820C
118404
000004
ENDCHAR
STARTCHAR 5048
ENCODING 20552
SWIDTH 720 0
DWIDTH 24 0
BBX 22 30 1 -3
BITMAP
030000
033FF0
022010
062010
062010
043FF0
0C2010
0C2010
1C2010
1C3FF0
2C0000
4C1000
8C3000
0C3FFC
0C200C
0C400C
0CC10C
0C810C
0D030C
0E430C
0C64CC
0C646C
0C680C
0C700C
0C600C
0C7FEC
0C7FCC
0C000C
0C000C
080008
ENDCHAR
STARTCHAR 504C
ENCODING 20556
SWIDTH 750 0
DWIDTH 25 0
BBX 23 30 1 -3
BITMAP
031820
071820
061820
061820
06FFFE
0C1820
0C1820
181820
180600
380600
280600
48FFFE
88FFFE
080C00
080800
081800
081800
083000
083FF8
083018
085018
085018
089018
091018
091018
0A1018
081018
081018
081018
081FF8
ENDCHAR
STARTCHAR 504E
ENCODING 20558
SWIDTH 750 0
DWIDTH 25 0
BBX 23 31 1 -4
BITMAP
020000
030000
077FF0
064210
064210
0C4210
0C4210
087FF0
184210
184210
284210
684210
487FF0
880000
080000
080000
09FFFE
083000
083008
083218
083230
083120
083140
083080
0830C0
083060
083030
083038
08301C
083004
083000
ENDCHAR
STARTCHAR 504F
ENCODING 20559
SWIDTH 750 0
DWIDTH 25 0
BBX 21 30 2 -3
BITMAP
0E0200
0C0200
0C0200
08FFF8
18FFF8
188008
108008
308008
30FFF8
508000
908000
908000
108000
10BFF8
10A448
11A448
11A448
11A448
112448
112448
113FF8
112448
122448
122448
122448
142448
142448
102448
102448
102008
ENDCHAR
STARTCHAR 5055
ENCODING 20565
SWIDTH 750 0
DWIDTH 25 0
BBX 23 30 1 -2
BITMAP
034080
0360C0
0260C4
0660CC
0660CC
047ED8
0C60E0
0C60C0
1C60C0
1C60C0
2C60C4
4C60C4
8C627E
0C0600
0C0400
0C3FF8
0C3FF8
0C2008
0C2008
0C2008
0C2008
0C2008
0C3FF8
0C2008
0C2008
0C2008
0C2008
0C2008
0C3FF8
080000
ENDCHAR
STARTCHAR 505A
ENCODING 20570
SWIDTH 750 0
DWIDTH 25 0
BBX 23 30 1 -3
BITMAP
0C00C0
0C40C0
0840C0
084080
084080
1840FE
1040FE
17FD08
304108
304108
704198
504298
904098
104090
13F890
1208D0
120870
120860
120860
120860
120860
120860
1208F0
120890
120898
120918
13F90C
10020C
100406
100006
ENDCHAR
STARTCHAR 505C
ENCODING 20572
SWIDTH 750 0
DWIDTH 25 0
BBX 23 30 1 -3
BITMAP
020000
030100
060100
06FFFC
040000
0C0000
083FF0
182010
182010
382010
283FF0
480000
880000
080000
08FFFE
088002
088002
080000
08FFF8
080100
080100
080100
080100
080100
080100
080100
080100
080100
080100
080100
ENDCHAR
STARTCHAR 5065
ENCODING 20581
SWIDTH 750 0
DWIDTH 25 0
BBX 23 30 1 -3
BITMAP
020040
060040
060040
07F040
0417F8
0C3048
082048
186048
186FFE
38C048
28C048
48C048
8987F8
09F040
081040
081040
081040
0937F8
093040
093040
08A040
08AFFE
08E040
084040
084040
086040
08B040
089840
090E00
0A07FE
ENDCHAR
STARTCHAR 506C
ENCODING 20588
SWIDTH 750 0
DWIDTH 25 0
BBX 23 30 1 -3
BITMAP
031000
031000
021000
063FF8
0626C8
0C26C8
0C44C8
0C4C88
1CAC88
3C9988
2C1D88
4C1308
8C2188
0C22C8
0C4208
0C8408
0C0C08
0C1808
0C3200
0C0100
0C0180
0C1180
0C9008
0C9008
0C9004
0D9004
0D9006
0D1026
0C1020
0C0FF0
ENDCHAR
STARTCHAR 5076
ENCODING 20598
SWIDTH 720 0
DWIDTH 24 0
BBX 22 32 1 -3
BITMAP
020000
020000
067FF0
064210
044210
0C4210
0C4210
087FF0
184210
184210
384210
684210
487FF0
880200
080200
080200
080200
09FFFC
09820C
09820C
09824C
09824C
09826C
0983AC
09BE2C
09A03C
09803C
09800C
09800C
09800C
098008
010000
ENDCHAR
STARTCHAR 5077
ENCODING 20599
SWIDTH 720 0
DWIDTH 24 0
BBX 22 30 1 -2
BITMAP
030600
030600
060D00
060880
0410C0
0C2060
084038
189F9C
390F04
280000
480008
88FC08
088488
088488
088488
088488
08FC88
088488
088488
088488
088488
08FC88
088488
088488
088488
088408
088408
088408
088408
088408
ENDCHAR
STARTCHAR 507B
ENCODING 20603
SWIDTH 750 0
DWIDTH 25 0
BBX 23 30 1 -3
BITMAP
030200
034310
022330
063320
061B40
040300
0DFFFC
0CFFFC
1C1B40
1C1320
2C3330
4C6318
8C430C
0C8206
0C0400
0C0400
0C0C00
0DFFFE
0C1860
0C1860
0C1040
0C30C0
0C3080
0C0D80
0C0300
0C02C0
0C0660
0C0838
0C300C
08C004
ENDCHAR
STARTCHAR 507E
ENCODING 20606
SWIDTH 750 0
DWIDTH 25 0
BBX 23 31 1 -3
BITMAP
030100
030100
060100
067FF8
040100
0C1120
0C1920
1C1820
1C1820
3FFFFE
2C1820
4C1820
8C1020
0C0000
0C3FF8
0C2018
0C2018
0C2118
0C2118
0C2118
0C2318
0C2318
0C2318
0C0210
0C0680
0C0440
0C0830
0C1818
0C200C
0C400C
008000
ENDCHAR
STARTCHAR 507F
ENCODING 20607
SWIDTH 750 0
DWIDTH 25 0
BBX 22 31 2 -3
BITMAP
060400
068610
044630
0C2660
0C3640
080680
19FFF8
19FFF8
390008
390008
590008
980000
187FF0
180000
180000
180000
180000
180000
1BFFFC
180400
180C00
180800
181800
181080
181040
182020
184030
184070
18BF98
18F808
000008
ENDCHAR
STARTCHAR 5080
ENCODING 20608
SWIDTH 750 0
DWIDTH 25 0
BBX 23 30 1 -2
BITMAP
070400
060400
060400
067FF0
0C7FF0
0C4210
084210
184210
387FF0
284210
484210
884210
084610
084610
087FF0
080400
080400
080730
080F20
080B20
080B20
081B48
081358
08337C
082300
084304
084304
08838C
0901FE
0A0000
ENDCHAR
STARTCHAR 5085
ENCODING 20613
SWIDTH 750 0
DWIDTH 25 0
BBX 22 31 2 -3
BITMAP
060600
060640
0C0620
0C0630
0DFFFC
180600
180600
187FF0
384610
384610
584610
D87FF0
184610
184610
184610
187FF0
184610
184610
184610
180040
180040
1BFFFC
180040
180040
182040
181040
181840
180040
180040
180040
100040
ENDCHAR
STARTCHAR 5088
ENCODING 20616
SWIDTH 750 0
DWIDTH 25 0
BBX 23 30 1 -2
BITMAP
020000
06FFFC
060480
060480
0C0480
0C0480
087FF8
184488
184488
384488
284488
484488
887FF8
080000
080200
080200
080200
09FFFE
080A80
081A40
081A40
081260
083220
082230
086210
084218
08420C
08820E
090206
080200
ENDCHAR
STARTCHAR 508D
ENCODING 20621
SWIDTH 750 0
DWIDTH 25 0
BBX 23 31 1 -4
BITMAP
020000
070200
060200
06FFFC
040000
0C1060
080860
180840
180C80
38FFFC
28FFFC
488004
888004
080200
080200
0BFFFE
08FFFC
080800
080800
080800
081FF0
081810
081010
081010
083010
082010
082010
084010
08C010
088010
090010
ENDCHAR
STARTCHAR 5091
ENCODING 20625
SWIDTH 750 0
DWIDTH 25 0
BBX 22 30 2 -3
BITMAP
064020
064020
044020
0CFFFC
0CFDF8
188C20
198A20
394B20
3A5B20
785B20
D813FC
983020
182020
184020
18C220
180220
180200
1BFFFC
183280
183280
183240
182240
186260
184220
18C230
188218
19020C
190204
120200
100200
ENDCHAR
STARTCHAR 50A3
ENCODING 20643
SWIDTH 750 0
DWIDTH 25 0
BBX 23 31 1 -3
BITMAP
000200
030200
020200
06FFF8
060600
040600
0C0600
0C7FF8
1C7FF8
1C0C00
3C0C00
2C0C00
4DFFFC
8C1880
0C1040
0C3220
0C2330
0C4318
0CC33C
0CB336
0D1B64
0E1B80
0C0300
0C0300
0C0B80
0C1340
0C3330
0C6308
0CC308
0C0300
080200
ENDCHAR
STARTCHAR 50A5
ENCODING 20645
SWIDTH 750 0
DWIDTH 25 0
BBX 23 31 1 -4
BITMAP
020000
070200
062318
062310
043320
0C0340
0C03FC
18FFFC
188004
388004
288004
483FF0
882010
082010
082010
082010
082010
082010
083FF0
080880
080880
080880
081880
081880
081080
081080
082080
086084
084084
0880FE
0B0000
ENDCHAR
STARTCHAR 50A7
ENCODING 20647
SWIDTH 750 0
DWIDTH 25 0
BBX 23 30 1 -2
BITMAP
030100
030100
020100
06FFFC
06FFFC
04C004
0CC024
0C80E4
1C0780
1C3800
2C3000
4C3000
8C3000
0C3FF8
0C3FF8
0C3040
0C3040
0C3040
0C3040
0C3040
0C3040
0DFFFE
0C0000
0C1000
0C1840
0C3020
0C3010
0C2018
0C4008
0C800C
ENDCHAR
STARTCHAR 50A8
ENCODING 20648
SWIDTH 720 0
DWIDTH 24 0
BBX 22 29 1 -2
BITMAP
0C0300
080300
090308
198FF8
188310
108310
100330
300360
300360
7003C0
57BFFC
908180
108200
108600
108FF0
108C10
10B410
10C410
108410
108410
108410
1087F0
108410
108410
108410
108410
108410
108410
1087F0
ENDCHAR
STARTCHAR 50A9
ENCODING 20649
SWIDTH 720 0
DWIDTH 24 0
BBX 23 31 1 -4
BITMAP
040200
0C0220
0C0220
0C0220
0C0620
0BE420
1827FC
182620
182620
382E20
3A6E20
597620
9977FC
18E620
18C620
18C620
18C620
18C620
18C620
18E7FC
19A620
192620
192620
1A3620
1A3620
1C0620
1C0620
1807FE
180600
180600
100400
ENDCHAR
STARTCHAR 50AC
ENCODING 20652
SWIDTH 750 0
DWIDTH 25 0
BBX 23 31 1 -3
BITMAP
030100
030100
032104
062104
062104
042104
0C3FFC
0C3FFC
1C0000
1C1880
2C1880
4C3080
8C3FFE
0C3FF8
0C6080
0C6080
0CA080
0D3FFC
0E2080
0C2080
0C2080
0C2080
0C3FFC
0C2080
0C2080
0C2080
0C2080
0C2080
0C3FFE
082000
082000
ENDCHAR
STARTCHAR 50B2
ENCODING 20658
SWIDTH 750 0
DWIDTH 25 0
BBX 23 30 1 -2
BITMAP
0C20C0
0C20C0
0C20C0
0BFEC0
182080
1820FE
1021FE
102108
33FD08
302108
502288
902098
93FE98
108098
108090
1080D0
108050
10F870
108870
108860
118860
118860
118870
1108F0
110898
130898
12090C
12090C
140A06
140C04
ENDCHAR
STARTCHAR 50BA
ENCODING 20666
SWIDTH 750 0
DWIDTH 25 0
BBX 23 31 1 -3
BITMAP
032000
032100
036100
067EFC
06468C
044688
0CC488
0CAC58
1D3C50
1D8C50
3CC820
6CD820
4C1010
8C2FD8
0C6008
0C4004
0C8002
0D0000
0CFFFC
0C0300
0C0300
0C1300
0C3320
0C2310
0C6308
0C430C
0CC304
0C8304
0D0300
0C0300
080300
ENDCHAR
STARTCHAR 50BB
ENCODING 20667
SWIDTH 750 0
DWIDTH 25 0
BBX 22 31 2 -3
BITMAP
020800
060800
061000
05FFF0
0D8010
098110
199B10
198610
398B10
39B190
598010
99FFF0
180000
182100
1860C0
186020
18F030
19B018
193FE0
187FC0
1860C0
186180
189180
188B00
190E00
180E00
181B00
1831C0
1860F0
18803C
11001C
ENDCHAR
STARTCHAR 50CF
ENCODING 20687
SWIDTH 750 0
DWIDTH 25 0
BBX 23 30 1 -3
BITMAP
010800
031800
031000
063FE0
062060
044040
0CC080
0CFFF8
1C4308
1C4308
2C4208
4C7FF8
8C0400
0C0C08
0C1218
0C6210
0C8320
0C07E0
0C0D20
0C19A0
0C6190
0C8390
0C0798
0C0C88
0C308C
0CC186
0C0186
0C1100
0C0F00
080E00
ENDCHAR
STARTCHAR 50D6
ENCODING 20694
SWIDTH 750 0
DWIDTH 25 0
BBX 22 30 2 -3
BITMAP
040000
040200
040200
0DFFFC
080200
080200
18FFF0
18FFF0
380000
380000
787FE0
D84020
184020
184020
187FE0
180000
182040
1830C0
181880
1BFFFC
1BFFFC
180000
180000
187FF0
184010
184010
184010
184010
184010
187FF0
ENDCHAR
STARTCHAR 50DA
ENCODING 20698
SWIDTH 750 0
DWIDTH 25 0
BBX 23 30 1 -3
BITMAP
030200
030200
020200
06FFFC
063FF8
048C4C
0C4C4C
0C6838
1C1030
3C3018
2C3FFC
4C5016
8C9010
0D1010
0C1010
0C1FF0
0C1010
0C1010
0C1010
0C1FF0
0C0300
0C1300
0C1300
0C3310
0C2308
0C6304
0C4306
0C8306
0D0300
080300
ENDCHAR
STARTCHAR 50E6
ENCODING 20710
SWIDTH 750 0
DWIDTH 25 0
BBX 23 30 1 -3
BITMAP
0460C0
0C60C0
0C60D0
0C60C8
0BFECC
19FCCC
1800C0
1800C0
39FFFC
3904C0
5904C0
5904F0
9904F0
1904F0
1904F0
19FCF0
1860F0
1860B0
1960B0
1968B0
1968B0
1965B0
1A65B0
1A6530
1A6130
1A6130
1C6234
1C6234
186414
10641E
ENDCHAR
STARTCHAR 50E7
ENCODING 20711
SWIDTH 720 0
DWIDTH 24 0
BBX 21 30 2 -3
BITMAP
0620C0
0C3080
0C3080
0C0100
19FFF8
19FFF8
114658
314658
312658
512698
D13698
911618
110618
11FFF8
100000
100000
10FFE0
10C020
10C020
10C020
10C020
10C020
10FFE0
10C020
10C020
10C020
10C020
10C020
10FFE0
100000
ENDCHAR
STARTCHAR 50EC
ENCODING 20716
SWIDTH 750 0
DWIDTH 25 0
BBX 22 31 2 -3
BITMAP
062000
062100
0C6100
0C6100
0C41F8
08FFF8
18C100
19C100
39C100
3BC100
7EFFF8
98C100
18C100
18C100
18C100
18FFF8
18C100
18C100
18C100
18C100
18FFFC
18C000
18C000
180000
189110
189110
188888
188888
198CC8
190CCC
010000
ENDCHAR
STARTCHAR 50ED
ENCODING 20717
SWIDTH 720 0
DWIDTH 24 0
BBX 22 31 1 -3
BITMAP
0C0000
0C0000
0FF9F8
082040
192240
192340
112340
11FBF8
31FBF8
3058C0
5058A0
5058A0
909920
109928
111A3C
120000
100000
10FFF0
10C030
10C030
10C030
10C030
10FFF0
10C030
10C030
10C030
10C030
10C030
10FFF0
10FFF0
100000
ENDCHAR
STARTCHAR 50EE
ENCODING 20718
SWIDTH 750 0
DWIDTH 25 0
BBX 23 29 1 -2
BITMAP
070200
060200
06FFF8
040000
0C2060
081040
1818C0
19FFFE
39FFFE
280000
480000
887FF0
084210
084210
084210
084210
087FF0
084210
084210
084210
087FF0
080200
080200
080200
08FFF8
080200
080200
080200
0BFFFE
ENDCHAR
STARTCHAR 50F3
ENCODING 20723
SWIDTH 750 0
DWIDTH 25 0
BBX 23 31 1 -4
BITMAP
030000
030000
02FFFC
060440
060440
0C0440
0C7FF8
0C4448
1C4448
3C4448
2C4448
4C4448
8C7FF8
0C0000
0C0310
0C2310
0C1330
0C1B20
0C1B40
0C03FE
0DFFFC
0C1B60
0C1B20
0C1330
0C3310
0C2318
0C4308
0C430C
0C8306
090300
080200
ENDCHAR
STARTCHAR 50F5
ENCODING 20725
SWIDTH 750 0
DWIDTH 25 0
BBX 23 31 1 -4
BITMAP
020000
060000
06FFFE
040000
040000
0C3FF8
082108
182108
182108
383FF8
282108
482108
883FF8
080000
080000
08FFFE
080000
080000
083FF8
082108
082108
082108
083FF8
082108
082108
082108
083FF8
080000
080000
09FFFE
080000
ENDCHAR
STARTCHAR 50FB
ENCODING 20731
SWIDTH 720 0
DWIDTH 24 0
BBX 22 29 1 -2
BITMAP
0C0020
0C0020
09FC20
090FFC
190CF0
110C08
110C98
310C98
310CD0
710CD0
51FC20
9103FC
1100F8
110020
110020
117C20
114420
1147FC
134420
134420
134420
134420
124420
124420
124420
124420
144420
144420
147C20
ENDCHAR
STARTCHAR 5104
ENCODING 20740
SWIDTH 750 0
DWIDTH 25 0
BBX 22 29 2 -2
BITMAP
060200
040200
0CFFF8
0C0000
0820C0
1810C0
181880
3801FC
3BFFFC
580000
D80000
187FF0
184010
184010
187FF0
184010
184010
184010
187FF0
180000
180400
182200
193210
193110
193108
1B3008
1F3044
1E3044
101FE0
ENDCHAR
STARTCHAR 5106
ENCODING 20742
SWIDTH 750 0
DWIDTH 25 0
BBX 23 30 1 -3
BITMAP
0C88C0
0CCCC0
0CCCC0
1BFFC0
18CCC0
18CCFE
10CCFC
108888
310188
318188
710188
51FD88
91FC98
9204D8
1204D8
120450
15E450
112450
112470
112430
112420
112430
112470
112450
11E4D8
100498
10048C
10050C
100606
100604
ENDCHAR
STARTCHAR 5107
ENCODING 20743
SWIDTH 750 0
DWIDTH 25 0
BBX 23 30 1 -3
BITMAP
030000
033FF8
062448
062448
062448
042448
0C2448
0C3FF8
1C0000
1C0000
2DFFFE
4C0000
8C0000
0C3FF8
0C2008
0C2008
0C2008
0C2008
0C3FF8
0C0C04
0C0C06
0C1884
0C1888
0C3850
0C6860
0C8830
0D0818
0C081C
0C080E
080806
ENDCHAR
STARTCHAR 510B
ENCODING 20747
SWIDTH 750 0
DWIDTH 25 0
BBX 23 29 1 -2
BITMAP
031000
063000
063FE0
066060
0C4040
0C8080
08FFFE
188000
388620
288410
488C98
88988C
0890C0
089FFE
088FFC
088000
088FF8
088000
088000
088FF8
088000
088000
098000
090FF8
090808
090808
090808
0A0808
0A0FF8
ENDCHAR
STARTCHAR 5112
ENCODING 20754
SWIDTH 750 0
DWIDTH 25 0
BBX 23 31 1 -4
BITMAP
020000
030000
06FFF8
060200
060200
0CFFFC
0C8204
188204
18FAF4
380200
280200
487AF8
880200
080000
09FFFE
080400
080400
080400
080800
08FFF8
088888
088888
088888
088888
088888
088888
088888
088888
088888
088888
088008
ENDCHAR
STARTCHAR 5121
ENCODING 20769
SWIDTH 750 0
DWIDTH 25 0
BBX 22 31 1 -4
BITMAP
080000
0C0000
08FFF0
088610
188610
188610
108610
10FFF0
308610
308610
708610
508610
90FFF0
100000
100000
13F9FC
124924
124924
124924
124924
124924
124924
13F9FC
124924
124924
124924
124924
124924
124924
13F9FC
100000
ENDCHAR
STARTCHAR 513F
ENCODING 20799
SWIDTH 720 0
DWIDTH 24 0
BBX 22 28 1 -2
BITMAP
020400
020400
020400
020400
020400
020400
020400
020400
020400
020400
020400
020400
060400
060400
060400
040400
040400
040400
0C0400
0C0400
080400
080400
100400
100400
200400
200408
400408
8007FC
ENDCHAR
STARTCHAR 5140
ENCODING 20800
SWIDTH 750 0
DWIDTH 25 0
BBX 22 27 2 -3
BITMAP
FFFFF8
020400
020400
020400
020400
020400
020400
020400
020400
020400
060400
060400
060400
060400
040400
040400
0C0400
0C0400
080400
080400
100400
100400
200400
200400
400408
800408
0007FC
ENDCHAR
STARTCHAR 5141
ENCODING 20801
SWIDTH 720 0
DWIDTH 24 0
BBX 22 30 2 -3
BITMAP
010000
018000
030000
030000
060000
040000
0C0200
080100
100180
100080
201FC0
7FFC40
020C60
020C00
020C00
020C00
060C00
060C00
060C00
040C00
040C00
0C0C00
080C00
080C00
180C00
100C00
200C00
400C08
800C08
0007FC
ENDCHAR
STARTCHAR 5143
ENCODING 20803
SWIDTH 750 0
DWIDTH 25 0
BBX 21 27 3 -3
BITMAP
3FFF80
000000
000000
000000
000000
000000
000000
000000
FFFFF0
020C00
020C00
020C00
020C00
060C00
060C00
060C00
040C00
040C00
0C0C00
080C00
080C00
180C00
100C00
200C00
600C10
400C10
8007F8
ENDCHAR
STARTCHAR 5144
ENCODING 20804
SWIDTH 750 0
DWIDTH 25 0
BBX 22 27 2 -3
BITMAP
1FFF80
100080
100080
100080
100080
100080
100080
100080
100080
100080
1FFF80
020400
020400
020400
020400
060400
060400
040400
040400
0C0400
080400
080400
100400
300400
200410
400418
8007FC
ENDCHAR
STARTCHAR 5145
ENCODING 20805
SWIDTH 720 0
DWIDTH 24 0
BBX 21 30 2 -3
BITMAP
004000
004000
004000
FFFFF0
FFFFF0
018000
010000
030000
020800
060400
040200
080300
180100
101F80
3FF880
0218C0
021800
021800
061800
061800
041800
041800
0C1800
081800
181800
101800
301800
201810
401810
800FF8
ENDCHAR
STARTCHAR 5146
ENCODING 20806
SWIDTH 750 0
DWIDTH 25 0
BBX 22 31 1 -3
BITMAP
008C00
008C00
008C00
008C00
008C10
408C30
208C60
308C60
188CC0
088D00
0C8E00
028C00
048C00
048E00
048D00
098C80
198CC0
318C60
610C30
410C10
C30C18
030C00
060C00
060C00
0C0C00
0C0C00
180C04
100C04
20060C
4007FC
800000
ENDCHAR
STARTCHAR 5148
ENCODING 20808
SWIDTH 750 0
DWIDTH 25 0
BBX 22 29 2 -2
BITMAP
042000
0C2000
0C2000
082000
0FFFE0
1FFFE0
102000
102000
202000
202000
402000
002000
FFFFF8
7FFFF8
010400
010400
010400
030400
030400
020400
060400
060400
040400
0C0400
080400
100400
200408
400408
8007FC
ENDCHAR
STARTCHAR 5149
ENCODING 20809
SWIDTH 750 0
DWIDTH 25 0
BBX 23 31 1 -4
BITMAP
001000
001800
001820
101820
081860
041840
0618C0
021880
031980
031900
001A00
7FFFFC
7FFFFC
008200
008200
008200
018200
018200
018200
010200
010200
030200
020200
020200
060200
040200
080204
100204
300204
4001FE
800000
ENDCHAR
STARTCHAR 514B
ENCODING 20811
SWIDTH 750 0
DWIDTH 25 0
BBX 22 30 2 -3
BITMAP
002000
002000
002000
002000
FFFFF0
002000
002000
002000
0FFF00
0FFF00
080100
080100
080100
080100
080100
080100
080100
0FFF00
030800
030800
030800
030800
020800
060800
040800
0C0800
180800
100810
200810
C00FFC
ENDCHAR
STARTCHAR 514D
ENCODING 20813
SWIDTH 750 0
DWIDTH 25 0
BBX 21 30 3 -3
BITMAP
060000
040000
0C0000
0FFC00
180C00
101800
201000
203000
402000
BFFF80
204080
204080
204080
204080
20C080
20C080
3FFF80
00B000
00B000
01B000
01B000
013000
033000
023000
063000
0C3000
083010
103010
603010
801FF8
ENDCHAR
STARTCHAR 5150
ENCODING 20816
SWIDTH 720 0
DWIDTH 24 0
BBX 21 30 2 -3
BITMAP
200000
21FF80
210080
210080
210080
210080
210080
21FF80
210080
210080
210080
210080
210080
21FF80
200000
040000
041000
041000
041000
0C1000
0C1000
0C1000
081000
081000
101000
101000
201000
401010
801010
001FF8
ENDCHAR
STARTCHAR 5151
ENCODING 20817
SWIDTH 720 0
DWIDTH 24 0
BBX 21 30 2 -3
BITMAP
000200
080600
040400
060C00
020800
031000
1FFF00
1FFF00
100100
100100
100100
100100
100100
100100
100100
100100
1FFF00
021800
021800
021800
061800
061800
041800
041800
0C1800
081800
101800
201810
400810
800FF8
ENDCHAR
STARTCHAR 5152
ENCODING 20818
SWIDTH 720 0
DWIDTH 24 0
BBX 21 30 2 -3
BITMAP
018000
038000
1C3F80
300080
300080
300080
300080
300080
3F9F80
300080
300080
300080
300080
300080
3FFF80
3FFF80
020400
020400
060400
060400
060400
040400
0C0400
0C0400
080400
100400
300400
200410
400410
8003F8
ENDCHAR
STARTCHAR 5154
ENCODING 20820
SWIDTH 750 0
DWIDTH 25 0
BBX 21 30 3 -3
BITMAP
060000
040000
0C0000
0FFC00
180C00
101800
201000
403000
802000
3FFF80
204080
204080
204080
204080
20C080
20C080
3FFF80
00B000
00B000
01B000
01B200
013100
033080
0630C0
063040
0C3000
183010
303010
603010
801FF8
ENDCHAR
STARTCHAR 5155
ENCODING 20821
SWIDTH 720 0
DWIDTH 24 0
BBX 22 28 2 -2
BITMAP
3F8FE0
208820
208820
208820
208820
208820
20F820
200020
200020
200020
200020
200020
3FFFE0
030400
030400
020400
060400
060400
060400
040400
0C0400
0C0400
180400
100400
300408
600408
400408
8007FC
ENDCHAR
STARTCHAR 5156
ENCODING 20822
SWIDTH 750 0
DWIDTH 25 0
BBX 21 29 2 -2
BITMAP
002000
002000
FFFFF0
7FFFE0
060000
060C00
0C0200
0C4300
18C180
3180C0
610860
820400
060200
080300
101F80
1FF980
021880
021800
021800
061800
061800
041800
041800
0C1800
081800
101810
201810
400810
800FF8
ENDCHAR
STARTCHAR 515A
ENCODING 20826
SWIDTH 750 0
DWIDTH 25 0
BBX 21 30 3 -3
BITMAP
00C000
10C300
08C300
0CC600
00C400
00C000
FFFFE0
FFFFE0
800020
800020
8FFE20
080200
080200
080200
080200
080200
080200
080200
0FFE00
021000
021000
021000
061000
041000
041000
081000
181000
301010
401010
801FF8
ENDCHAR
STARTCHAR 515C
ENCODING 20828
SWIDTH 720 0
DWIDTH 24 0
BBX 21 30 2 -3
BITMAP
002000
046000
0C4000
31FDE0
61FC20
610420
610420
610420
610420
61FC20
610420
610420
610420
610420
610420
79FDE0
000000
010000
010800
010800
030800
030800
020800
020800
060800
040800
080800
100810
200810
C00FF8
ENDCHAR
STARTCHAR 5162
ENCODING 20834
SWIDTH 750 0
DWIDTH 25 0
BBX 23 29 1 -2
BITMAP
040080
040080
040080
FFDFF8
040080
040080
040080
040080
7FCFF0
7FCFF0
404810
404810
404810
404810
404810
7FCFF0
130660
130460
130460
130460
330460
330460
230460
230C60
230860
430860
431068
83106C
83207E
ENDCHAR
STARTCHAR 5165
ENCODING 20837
SWIDTH 720 0
DWIDTH 24 0
BBX 22 29 1 -2
BITMAP
002000
002000
002000
002000
001000
001000
001000
001800
003800
003800
002400
006400
006600
004200
00C200
00C300
018100
018180
010180
030080
0200C0
040040
0C0060
080020
100030
200010
200018
40000C
800008
ENDCHAR
STARTCHAR 5168
ENCODING 20840
SWIDTH 720 0
DWIDTH 24 0
BBX 22 29 1 0
BITMAP
003000
002000
003000
004800
00C400
008600
018300
030180
0200C0
0400E0
080070
13FF98
60100C
801000
001000
001000
001000
001000
0FFFC0
001000
001000
001000
001000
001000
001000
001000
001000
7FFFF8
7FFFF8
ENDCHAR
STARTCHAR 516B
ENCODING 20843
SWIDTH 720 0
DWIDTH 24 0
BBX 22 28 1 -2
BITMAP
008400
008400
008400
008200
008200
018200
018200
018200
018100
010100
010100
010180
030180
030080
020080
0200C0
060040
040040
040060
080060
080020
080030
100030
100018
200018
40000C
40000C
80000C
ENDCHAR
STARTCHAR 516C
ENCODING 20844
SWIDTH 750 0
DWIDTH 25 0
BBX 21 29 2 -2
BITMAP
018800
018400
018400
030400
030400
020200
060200
040300
0C0100
080180
1820C0
106060
206070
604038
404010
80C000
008000
008000
018000
010000
030400
020200
060100
040100
080180
180180
103E80
3FE0C0
3E0040
ENDCHAR
STARTCHAR 516D
ENCODING 20845
SWIDTH 750 0
DWIDTH 25 0
BBX 22 29 1 -2
BITMAP
004000
002000
003000
003000
000000
000000
000000
7FFFFC
000000
000000
000000
000000
008000
008400
018200
010200
010100
030180
020080
0600C0
040040
0C0060
080020
180020
100030
200010
200018
400018
800008
ENDCHAR
STARTCHAR 516E
ENCODING 20846
SWIDTH 750 0
DWIDTH 25 0
BBX 23 29 1 -2
BITMAP
00C400
00C200
018200
010100
030180
020080
040040
0C0060
080030
17FFD8
23FF0E
410006
810000
010000
010000
010000
01FF80
000080
000080
000080
000080
000080
000080
000080
000080
000080
000080
000080
000080
ENDCHAR
STARTCHAR 5170
ENCODING 20848
SWIDTH 750 0
DWIDTH 25 0
BBX 19 29 3 0
BITMAP
080600
040600
040400
020C00
030800
030800
001000
3FFFC0
1FFF80
000000
000000
000000
000000
000000
000000
000000
1FFF00
000000
000000
000000
000000
000000
000000
000000
000000
000000
000000
000000
FFFFE0
ENDCHAR
STARTCHAR 5171
ENCODING 20849
SWIDTH 720 0
DWIDTH 24 0
BBX 22 30 1 -2
BITMAP
010100
010100
010100
010100
010100
010100
3FFFF0
010100
010100
010100
010100
010100
010100
010100
010100
010100
FFFFFC
FFFFFC
000000
000000
018400
018300
030180
0300C0
060040
0C0060
080030
100018
200018
400000
ENDCHAR
STARTCHAR 5172
ENCODING 20850
SWIDTH 720 0
DWIDTH 24 0
BBX 22 27 1 -4
BITMAP
3FFFE0
002000
002000
002000
002000
002000
0FFF80
002000
002000
002000
002000
002000
FFFFFC
000000
000000
008800
018800
010400
010200
030200
020100
040180
0C00C0
080060
100030
200018
40000C
ENDCHAR
STARTCHAR 5173
ENCODING 20851
SWIDTH 750 0
DWIDTH 25 0
BBX 21 31 2 -4
BITMAP
000100
040100
020300
030200
018200
018400
000000
1FFFC0
002000
002000
002000
002000
002000
002000
002000
7FFFF0
006000
005000
005000
00C800
008C00
018400
018200
030300
060180
0600C0
0C0060
180030
300018
400008
800000
ENDCHAR
STARTCHAR 5174
ENCODING 20852
SWIDTH 750 0
DWIDTH 25 0
BBX 21 30 2 -3
BITMAP
008040
2080C0
2040C0
104080
106080
082180
082100
0C3100
043100
063200
060200
060400
000400
FFFFF8
FFFFF8
000000
000000
010400
010400
020200
020100
060180
040080
0C00C0
080040
100060
300020
200030
400030
800000
ENDCHAR
STARTCHAR 5175
ENCODING 20853
SWIDTH 750 0
DWIDTH 25 0
BBX 23 31 1 -4
BITMAP
000020
0001E0
000F80
00F800
070000
060000
060000
060000
060000
07FFF8
07FFF0
060100
060100
060100
060100
060100
060100
060100
060100
FFFFFE
000000
000000
008200
018100
030080
030040
060020
0C0030
180018
300008
600000
ENDCHAR
STARTCHAR 5176
ENCODING 20854
SWIDTH 720 0
DWIDTH 24 0
BBX 22 30 1 -3
BITMAP
020100
020100
020100
3FFFF8
020100
020100
020100
020100
020100
03FF00
020100
020100
020100
020100
03FF00
020100
020100
020100
020100
020100
FFFFFC
000000
000000
010400
030300
0600C0
040060
080030
100018
200000
ENDCHAR
STARTCHAR 5177
ENCODING 20855
SWIDTH 720 0
DWIDTH 24 0
BBX 22 29 1 -2
BITMAP
07FF80
040080
040080
040080
040080
07FF80
040080
040080
040080
040080
07FF80
040080
040080
040080
040080
07FF80
040080
040080
040080
040080
FFFFFC
000000
010400
030300
060180
0600C0
0C0060
180030
200030
ENDCHAR
STARTCHAR 5178
ENCODING 20856
SWIDTH 720 0
DWIDTH 24 0
BBX 22 30 1 -2
BITMAP
008400
008400
008400
1FFFE0
108420
108420
108420
108420
108420
108420
108420
1FFFE0
108420
108420
108420
108420
108420
108420
108420
108420
10843C
FFFFFC
000000
030000
030300
0600C0
0C0060
180030
300010
400000
ENDCHAR
STARTCHAR 5179
ENCODING 20857
SWIDTH 720 0
DWIDTH 24 0
BBX 22 30 1 -3
BITMAP
040180
030180
018300
018200
FFFFFC
FFFFFC
000000
060180
060180
040100
0C0300
0C0300
084210
084630
10C430
108820
209020
3F9FE0
010040
0300C0
020080
060180
048120
0C8220
084210
084410
104810
20E838
3F7FD8
006018
ENDCHAR
STARTCHAR 517B
ENCODING 20859
SWIDTH 750 0
DWIDTH 25 0
BBX 22 30 2 -2
BITMAP
020600
010400
018800
000800
3FFFE0
1FFFC0
006000
006000
1FFFC0
00C000
00C000
008000
FFFFF8
010800
030400
060200
040100
0D05C0
1904E0
310478
41041C
83040C
030400
020400
020400
020400
040400
080400
080400
100400
ENDCHAR
STARTCHAR 517C
ENCODING 20860
SWIDTH 750 0
DWIDTH 25 0
BBX 22 30 2 -2
BITMAP
000200
010200
018400
000000
FFFFF8
008400
008400
008400
3FFFC0
008440
008440
008440
008440
FFFFFC
008440
008440
008440
3FFFC0
068600
048600
0C8500
0C8500
088480
1884C0
108440
308460
208420
408430
808418
808400
ENDCHAR
STARTCHAR 517D
ENCODING 20861
SWIDTH 720 0
DWIDTH 24 0
BBX 22 29 1 -2
BITMAP
020300
010200
018400
0FFFC0
0FFFC0
082040
082040
082040
0FFFC0
082040
082040
082040
0FFFC0
000000
000000
000000
FFFFFC
000000
000000
07FF80
040080
040080
040080
040080
040080
040080
040080
040080
07FF80
ENDCHAR
STARTCHAR 5180
ENCODING 20864
SWIDTH 720 0
DWIDTH 24 0
BBX 22 30 1 -3
BITMAP
008C20
7F8CE0
008F80
008C10
018C10
1E8C10
7087F8
4001F0
0FFFC0
0FFFC0
082040
082040
0FFFC0
082040
082040
0FFFC0
010200
010200
010200
3FFFE0
010200
010200
010200
FFFFFC
000000
008400
038300
0600C0
180060
200030
ENDCHAR
STARTCHAR 5181
ENCODING 20865
SWIDTH 750 0
DWIDTH 25 0
BBX 23 30 1 -2
BITMAP
410000
233FF8
323018
143018
7FB018
7FB018
4CBFF8
4CB000
4CB120
4CB120
7FB120
4CBFF8
4CB120
4CB120
4CB120
7FB120
0C3FFC
0C3FF0
0C2600
FFE68C
0C2698
0C2650
0C2660
0C2640
0C2620
0C6630
0C4618
0C461C
0C860E
088204
ENDCHAR
STARTCHAR 5182
ENCODING 20866
SWIDTH 720 0
DWIDTH 24 0
BBX 18 28 3 -4
BITMAP
FFFFC0
800040
800040
800040
800040
800040
800040
800040
800040
800040
800040
800040
800040
800040
800040
800040
800040
800040
800040
800040
800040
800040
800040
800040
800040
800040
800040
800040
ENDCHAR
STARTCHAR 5185
ENCODING 20869
SWIDTH 720 0
DWIDTH 24 0
BBX 17 30 3 -2
BITMAP
008000
008000
008000
008000
FFFF80
C08080
C08080
C08080
C08080
C18080
C18080
C18080
C18080
C14080
C32080
C23080
C21080
C41880
C40C80
C80C80
D00680
E00080
C00080
C00080
C00080
C00080
C00080
C00080
C00080
800000
ENDCHAR
STARTCHAR 5188
ENCODING 20872
SWIDTH 720 0
DWIDTH 24 0
BBX 18 29 3 -2
BITMAP
FFFFC0
C00040
C00040
C00040
C00440
C00C40
D00C40
C81840
C41840
C23040
C33040
C16040
C0E040
C0C040
C0E040
C1A040
C13040
C21840
C41840
C40C40
C80C40
D00640
E00040
C00040
C00040
C00040
C00040
800040
800000
ENDCHAR
STARTCHAR 5189
ENCODING 20873
SWIDTH 720 0
DWIDTH 24 0
BBX 22 30 1 -2
BITMAP
001000
001000
001000
001000
0FFFE0
081020
081020
081020
081020
081020
081020
0FFFE0
081020
081020
081020
081020
081020
FFFFFC
FFFFFC
080020
080020
080020
080020
080020
080020
080020
080020
080020
080020
080020
ENDCHAR
STARTCHAR 518C
ENCODING 20876
SWIDTH 720 0
DWIDTH 24 0
BBX 22 29 1 -1
BITMAP
1F87E0
108420
108420
108420
108420
108420
108420
108420
108420
108420
108420
FFFFFC
108420
108420
108420
108420
108420
308C20
308C20
308C20
208820
208820
208820
208820
409020
409020
809020
80A020
008020
ENDCHAR
STARTCHAR 518D
ENCODING 20877
SWIDTH 750 0
DWIDTH 25 0
BBX 23 28 1 -4
BITMAP
7FFFF8
001000
001000
001000
001000
0FFFE0
081020
081020
081020
081020
081020
0FFFE0
081020
081020
081020
081020
081020
FFFFFE
080020
080020
080020
080020
080020
080020
080020
080020
080020
080020
ENDCHAR
STARTCHAR 5192
ENCODING 20882
SWIDTH 720 0
DWIDTH 24 0
BBX 18 28 3 -4
BITMAP
FFFFC0
800040
800040
800040
9FFC40
800040
800040
800040
9FFC40
800000
000000
000000
1FFE00
100200
100200
100200
1FFE00
100200
100200
100200
100200
1FFE00
100200
100200
100200
100200
100200
1FFE00
ENDCHAR
STARTCHAR 5195
ENCODING 20885
SWIDTH 720 0
DWIDTH 24 0
BBX 21 29 2 -2
BITMAP
3FFFC0
200040
200040
200040
27FF40
200040
200040
27FF40
000000
030000
07FC00
0C0C00
181800
301000
5FFF80
902080
102080
106080
106080
1FFF80
00D800
009800
019800
011800
021800
041810
081810
300FF8
C00000
ENDCHAR
STARTCHAR 5196
ENCODING 20886
SWIDTH 750 0
DWIDTH 25 0
BBX 19 4 3 22
BITMAP
FFFFE0
800020
800020
800020
ENDCHAR
STARTCHAR 5197
ENCODING 20887
SWIDTH 750 0
DWIDTH 25 0
BBX 21 28 3 -2
BITMAP
FFFFE0
800020
800020
800020
000000
000000
07FC00
040400
040400
040400
040400
040400
040400
040400
040400
0C0400
0C0400
0C0400
080400
080400
080400
080400
100400
100400
200400
200410
400410
4007F8
ENDCHAR
STARTCHAR 5199
ENCODING 20889
SWIDTH 720 0
DWIDTH 24 0
BBX 20 28 1 -2
BITMAP
3FFFF0
200010
200010
260010
060000
060000
07FFE0
060000
060000
060000
060000
060000
07FFE0
07FFE0
000020
000020
000020
000020
000020
FFFF20
000020
000020
000020
000020
000020
000020
000020
000020
ENDCHAR
STARTCHAR 519B
ENCODING 20891
SWIDTH 720 0
DWIDTH 24 0
BBX 22 29 1 -1
BITMAP
3FFFF0
200010
208010
208010
018000
018000
010000
3FFFF0
030000
060000
061000
041000
0C1000
0C1000
0FFFE0
001000
001000
001000
001000
001000
FFFFFC
001000
001000
001000
001000
001000
001000
001000
001000
ENDCHAR
STARTCHAR 519C
ENCODING 20892
SWIDTH 720 0
DWIDTH 24 0
BBX 21 30 1 -2
BITMAP
001000
003000
002000
002000
3FFFF0
3FFFF0
204010
20C010
208010
018000
012000
031010
031030
031020
050840
0D0840
090480
110400
110200
210300
410100
810180
010080
010040
010060
010030
010018
010018
010008
010000
ENDCHAR
STARTCHAR 51A0
ENCODING 20896
SWIDTH 750 0
DWIDTH 25 0
BBX 23 29 1 -3
BITMAP
3FFFF8
200008
200008
200008
000020
1FE020
000020
000020
000FFE
000020
000020
7FF020
08C020
08C820
08C420
08C620
08C220
08C320
18C020
18C020
10C020
10C020
10C020
10C020
20C020
20C004
40C004
407FFE
800000
ENDCHAR
STARTCHAR 51A2
ENCODING 20898
SWIDTH 750 0
DWIDTH 25 0
BBX 21 28 2 -4
BITMAP
7FFFF0
400010
400010
400010
3FFFC0
00C000
018000
034040
0640E0
0C61C0
186300
30E600
41AC00
133200
0E1200
0C3100
1E3100
627180
83D0C0
0190C0
031060
063030
0C3038
303018
403000
006000
00E000
00C000
ENDCHAR
STARTCHAR 51A4
ENCODING 20900
SWIDTH 720 0
DWIDTH 24 0
BBX 20 28 2 -4
BITMAP
FFFFE0
C00020
C40020
8C0020
0FFC00
0FFC00
101800
301000
202000
7FFF80
A04080
204080
204080
20C080
20C080
20C080
3FFF80
00B000
01B000
013000
033300
063100
043080
0830C0
103010
203010
403010
801FF0
ENDCHAR
STARTCHAR 51A5
ENCODING 20901
SWIDTH 720 0
DWIDTH 24 0
BBX 22 29 1 -3
BITMAP
3FFFF0
200010
200010
200010
07FF80
040080
040080
040080
07FF80
040080
040080
040080
07FF80
000000
000000
002000
002000
FFFFFC
FFFFFC
000000
000400
010200
030300
020180
040080
0400C0
080060
100030
200030
ENDCHAR
STARTCHAR 51AB
ENCODING 20907
SWIDTH 720 0
DWIDTH 24 0
BBX 5 23 1 2
BITMAP
80
40
60
20
30
18
18
00
00
00
00
00
00
08
08
08
10
10
30
20
60
C0
80
ENDCHAR
STARTCHAR 51AC
ENCODING 20908
SWIDTH 750 0
DWIDTH 25 0
BBX 23 31 1 -3
BITMAP
004000
00C000
00C000
00FF80
01FF80
010180
030100
028300
04C200
044600
082400
103C00
201800
003C00
006700
00C380
0180E0
06207C
0C101E
300804
C00C00
000600
000600
010000
00C000
003000
001800
000C00
000600
000300
000100
ENDCHAR
STARTCHAR 51AF
ENCODING 20911
SWIDTH 720 0
DWIDTH 24 0
BBX 22 29 0 -3
BITMAP
00FFE0
000020
400020
200020
202020
102020
102020
182020
082020
002020
002020
002020
00203C
003FFC
040004
040004
040004
080004
080004
1BFFE4
100004
300004
600004
C00004
000004
000004
000004
000004
000004
ENDCHAR
STARTCHAR 51B0
ENCODING 20912
SWIDTH 750 0
DWIDTH 25 0
BBX 22 31 1 -4
BITMAP
000800
000C00
000C00
000C00
800C00
400C18
400C18
600C30
27CC60
304EC0
004F80
004E00
004F00
00CD00
00CD00
108D80
108D80
108CC0
218CC0
210C40
210C60
620C60
420C30
C40C30
840C18
880C1C
100C0C
000C0C
000C00
000C00
000800
ENDCHAR
STARTCHAR 51B1
ENCODING 20913
SWIDTH 720 0
DWIDTH 24 0
BBX 22 27 1 -3
BITMAP
07FFFC
804000
404000
404000
204000
204000
304000
107FC0
004040
004040
004040
004040
004040
084040
084040
084040
104040
107FC0
300040
200040
600040
C00040
800040
000040
000040
000040
0FFFFC
ENDCHAR
STARTCHAR 51B2
ENCODING 20914
SWIDTH 750 0
DWIDTH 25 0
BBX 22 31 0 -3
BITMAP
000200
000200
000200
000200
400200
200200
300200
18FFFC
188204
0C8204
0C8204
008204
008204
008204
008204
008204
048204
048204
08FFFC
080200
080200
100200
100200
200200
600200
C00200
000200
000200
000200
000200
000200
ENDCHAR
STARTCHAR 51B3
ENCODING 20915
SWIDTH 750 0
DWIDTH 25 0
BBX 23 30 1 -3
BITMAP
000800
000800
000800
800800
400800
41FFF0
600810
200810
300810
300810
000810
000810
000810
001810
07FFFE
101A00
101200
101300
101100
203180
202080
2020C0
4060C0
C04060
80C030
008030
010018
02000C
040004
080000
ENDCHAR
STARTCHAR 51B5
ENCODING 20917
SWIDTH 720 0
DWIDTH 24 0
BBX 22 28 1 -4
BITMAP
01FFE0
010020
810020
410020
410020
210020
210020
110020
010020
010020
010020
01FFE0
002180
082180
082180
102180
106180
106180
306180
204180
604180
C0C180
808180
018180
010180
020188
040184
0800FC
ENDCHAR
STARTCHAR 51B6
ENCODING 20918
SWIDTH 720 0
DWIDTH 24 0
BBX 23 30 0 -3
BITMAP
000600
000400
000C00
000800
401800
201020
203030
102010
104018
188018
0181EC
01FF0C
00000C
000006
000000
040000
047FF0
084010
084010
084010
104010
304010
204010
604010
C04010
004010
004010
004010
004010
007FF0
ENDCHAR
STARTCHAR 51B7
ENCODING 20919
SWIDTH 720 0
DWIDTH 24 0
BBX 22 30 1 -3
BITMAP
000600
000600
000E00
800D00
401880
601080
202040
306020
18C838
19040C
020204
000300
000300
000000
00FFF0
08FFF0
080030
080020
080060
100040
1000C0
302080
201180
600900
C00D00
C00600
000300
000180
000080
0000C0
ENDCHAR
STARTCHAR 51BB
ENCODING 20923
SWIDTH 750 0
DWIDTH 25 0
BBX 23 30 1 -2
BITMAP
000800
000800
000800
801800
43FFFE
201000
303000
103300
182300
186300
006300
006300
004300
00FFF8
000300
080300
080300
083300
103300
103320
102310
206318
204308
40830C
C1030C
020300
040300
000300
000300
000300
ENDCHAR
STARTCHAR 51BC
ENCODING 20924
SWIDTH 720 0
DWIDTH 24 0
BBX 22 29 1 -3
BITMAP
000400
004400
804400
80C400
40C400
60FFF0
20FFC0
318400
310400
020400
020400
000400
000400
07FFFC
01FFF0
102180
102180
102180
106180
206180
206180
604180
404180
C0C180
808180
010184
010184
020184
0400FC
ENDCHAR
STARTCHAR 51BD
ENCODING 20925
SWIDTH 720 0
DWIDTH 24 0
BBX 21 31 1 -3
BITMAP
000008
000008
07FE08
008008
808008
408088
418088
618088
218088
31FC88
310C88
030C88
030C88
020C88
030C88
048888
14D888
18D888
181088
103088
203088
202088
206088
404088
C0C008
808008
010008
020008
020008
040008
080008
ENDCHAR
STARTCHAR 51C0
ENCODING 20928
SWIDTH 750 0
DWIDTH 25 0
BBX 23 30 1 -3
BITMAP
006000
006000
007FC0
80C0C0
408080
418180
210100
220200
34FFF0
000410
000410
000410
000410
07FFFE
000410
100410
100410
100410
100410
21FFF0
200400
600400
400400
C00400
800400
000400
000400
000400
000400
000400
ENDCHAR
STARTCHAR 51C4
ENCODING 20932
SWIDTH 720 0
DWIDTH 24 0
BBX 22 31 1 -3
BITMAP
000400
000400
000400
83FFF8
400400
400400
200400
20FFF0
300410
300410
07FFFC
000410
000410
00FFF0
00FFF0
100000
100800
101800
17FFFC
203060
2030C0
6020C0
4060C0
C06180
803B00
000F00
000780
000C60
003038
01C008
020000
ENDCHAR
STARTCHAR 51C6
ENCODING 20934
SWIDTH 750 0
DWIDTH 25 0
BBX 22 31 2 -3
BITMAP
004000
004100
00C100
80C100
808100
408100
61FFFC
218100
338100
338100
058100
058100
098100
11FFF8
018100
018100
098100
098100
198100
11FFF8
318100
318100
618100
C18100
C18100
818100
018100
01FFFC
018000
010000
010000
ENDCHAR
STARTCHAR 51C7
ENCODING 20935
SWIDTH 750 0
DWIDTH 25 0
BBX 23 31 1 -3
BITMAP
018000
018340
018340
818320
818220
418220
418210
6FFA10
238610
238418
038408
03880C
03C88E
07A084
07B080
159080
158180
158180
358180
298100
298100
718120
518210
C18210
C18210
818418
018408
0189F8
018F0C
01800C
010000
ENDCHAR
STARTCHAR 51C9
ENCODING 20937
SWIDTH 720 0
DWIDTH 24 0
BBX 22 30 1 -3
BITMAP
000400
000600
000600
83FFFC
43FFFC
600000
300000
300000
187FE0
184020
004020
004020
004020
004020
004020
084020
087FE0
080600
100600
104600
304600
204620
608610
C08618
808618
01060C
02060C
040600
000600
000400
ENDCHAR
STARTCHAR 51CB
ENCODING 20939
SWIDTH 720 0
DWIDTH 24 0
BBX 20 29 1 -3
BITMAP
03FFF0
020010
820010
420410
420410
620410
227FD0
320410
020410
020410
020410
02FFD0
027F90
0A0010
0E0010
163F90
162090
362090
342090
642090
642090
C42090
8C2090
883F90
080010
080010
100010
100010
200000
ENDCHAR
ENDFONT
